<svg xmlns="http://www.w3.org/2000/svg" id="interactive_star" width="87.605" height="84.588" viewBox="0 0 84.236 87.971">
    <g transform="translate(10.943 19.533)" id="color">
        <path id="path4223" d="M11.145 56.558c-1.2-.746-.667-9.776 1.12-18.957.278-1.43.507-2.847.507-3.149 0-.437-.995-1.546-4.953-5.513-6.332-6.347-9.61-10.417-9.61-11.932 0-.258.267-.59.676-.839 2.043-1.246 9.232-2.915 17.009-3.948 4.64-.617 4.269-.478 4.909-1.838C22.1 7.624 25.13 1.652 26.03.08c2.478-4.331 5.126-7.837 5.92-7.837.514 0 2.341 2.084 3.77 4.299 1.99 3.087 3.255 5.388 5.677 10.34 1.212 2.474 2.3 4.56 2.42 4.633.118.074 2.381.445 5.028.826 9.208 1.325 15.65 2.994 16.773 4.347.835 1.006-3.17 6.07-10.574 13.37l-4.06 4.003.759 4.214c1.717 9.535 2.204 16.522 1.255 18.015-.27.425-.414.467-1.177.345-3.183-.507-9.842-3.365-17.02-7.304-1.329-.73-2.605-1.327-2.835-1.327-.23 0-1.181.423-2.116.94-2.704 1.495-8.923 4.57-11.284 5.578-3.593 1.535-6.808 2.417-7.42 2.036" fill="#dcdcdc"/>
    </g>
    <g transform="translate(10.943 19.533)" id="star">
        <path d="M44.83 10.034c-2.314-5.1-9.044-19.167-12.868-19.167-3.827 0-10.556 14.065-12.87 19.165-5.569.64-21.037 2.728-22.203 6.314-1.166 3.588 10.122 14.37 14.251 18.157-1.113 5.495-3.908 20.855-.857 23.07.43.312.993.464 1.727.464 4.687 0 17.308-6.93 19.948-8.409 2.64 1.48 15.26 8.41 19.95 8.41.73 0 1.295-.154 1.726-.465 3.051-2.22.254-17.576-.861-23.069 4.13-3.789 15.424-14.575 14.257-18.16-1.162-3.58-16.63-5.672-22.2-6.31m6.273 23.436a.951.951 0 0 0-.288.892c1.989 9.624 3.15 20.633 1.708 21.683-.005.004-.148.104-.615.104-3.85 0-15.366-6.083-19.482-8.427a.93.93 0 0 0-.467-.124.93.93 0 0 0-.466.124c-4.116 2.344-15.632 8.426-19.482 8.426-.376 0-.563-.065-.615-.102-1.307-.95-.526-10.88 1.705-21.685a.945.945 0 0 0-.289-.891C5.548 26.854-1.863 18.63-1.312 16.932c.55-1.696 11.382-3.995 21.15-5.08a.945.945 0 0 0 .758-.551c4.02-8.956 9.546-18.542 11.366-18.542 1.817 0 7.342 9.586 11.364 18.544a.944.944 0 0 0 .759.551c9.768 1.085 20.597 3.383 21.148 5.079.5 1.534-5.971 9.106-14.13 16.537" id="path3049-3"/>
    </g>
    <g transform="translate(10.943 19.533)" id="0_face">
        <path id="ellipse3006" d="M23.976 20.688c0 1.566-.846 2.836-1.89 2.836-1.045 0-1.892-1.27-1.892-2.836 0-1.567.847-2.836 1.891-2.836 1.045 0 1.891 1.27 1.891 2.836"/>
        <path id="ellipse3008" d="M42.887 20.688c0 1.566-.846 2.836-1.89 2.836-1.045 0-1.892-1.27-1.892-2.836 0-1.567.847-2.836 1.891-2.836 1.045 0 1.891 1.27 1.891 2.836"/>
        <path id="circle3010" d="M35.323 29.197a3.782 3.782 0 1 1-7.564 0 3.782 3.782 0 0 1 7.564 0"/>
    </g>
    <g transform="translate(10.943 19.533)" id="1_face" display="none">
        <path id="ellipse3119" d="M24.755 23.845c0 1.567-.846 2.837-1.89 2.837-1.045 0-1.892-1.27-1.892-2.837 0-1.566.847-2.836 1.891-2.836 1.045 0 1.891 1.27 1.891 2.836"/>
        <path id="ellipse3121" d="M43.667 23.845c0 1.567-.847 2.837-1.892 2.837-1.044 0-1.89-1.27-1.89-2.837 0-1.566.846-2.836 1.89-2.836 1.045 0 1.892 1.27 1.892 2.836"/>
        <path d="M39.884 33.3H24.755a.945.945 0 1 0 0 1.892h15.13a.945.945 0 1 0 0-1.892" id="path3125"/>
    </g>
    <g transform="translate(10.943 19.533)" id="3_face" display="none">
        <path id="ellipse3195" d="M24.282 21.169c0 1.566-.847 2.836-1.892 2.836-1.044 0-1.89-1.27-1.89-2.836 0-1.567.846-2.836 1.89-2.836 1.045 0 1.892 1.27 1.892 2.836"/>
        <path id="ellipse3197" d="M43.193 21.169c0 1.566-.847 2.836-1.892 2.836-1.044 0-1.89-1.27-1.89-2.836 0-1.567.846-2.836 1.89-2.836 1.045 0 1.892 1.27 1.892 2.836"/>
        <path d="M37.52 26.841a.945.945 0 0 0-.947.946 4.733 4.733 0 0 1-4.728 4.728 4.732 4.732 0 0 1-4.728-4.728.945.945 0 1 0-1.892 0c0 3.65 2.969 6.619 6.618 6.619 3.649 0 6.618-2.97 6.618-6.619a.94.94 0 0 0-.942-.946" id="path3201"/>
    </g>
    <g transform="translate(10.943 19.533)" id="5_face" opacity=".94" display="none">
        <path id="ellipse3043" d="M24.372 17.276c0 1.566-.847 2.836-1.891 2.836-1.045 0-1.891-1.27-1.891-2.836 0-1.567.846-2.836 1.89-2.836 1.045 0 1.892 1.27 1.892 2.836"/>
        <path id="ellipse3045" d="M43.283 17.276c0 1.566-.847 2.836-1.891 2.836-1.045 0-1.891-1.27-1.891-2.836 0-1.567.846-2.836 1.89-2.836 1.045 0 1.892 1.27 1.892 2.836"/>
        <path d="M41.188 22.423H22.277a1.891 1.891 0 0 0-1.82 2.398c.078.287 2.066 7.058 11.275 7.058 9.212 0 11.198-6.77 11.278-7.058a1.891 1.891 0 0 0-1.822-2.398" id="path3047"/>
    </g>
</svg>
