<svg xmlns="http://www.w3.org/2000/svg" viewBox="0 0 53.125 72.28" id="interactive_flame">
    <g id="color" transform="translate(4.052 3.638)">
        <path d="M17.507 62.483C8.797 60.037 2.664 51.834 2.664 42.63c0-5.805.967-9.102 5.052-17.215 2.046-4.064 3.882-8.425 4.081-9.69l.087-2.863 1.628 1.847c2.323 2.635 4.816 5.268 5.08 10.584.187 3.765-.745 5.158-.103 5.409 1.123.439 2.552-2.547 4.678-7.059 2.137-4.535 1.893-9.248.056-14.708-.66-1.962-4.248-9.517.119-4.955 2.988 3.122 8.453 8.361 10.8 11.733 5.515 7.928 8.289 16.865 8.345 26.055.032 5.143-.105 5.901-1.667 9.244-4.289 9.18-14.166 14.041-23.313 11.472" id="path4140-3" fill="#c9acc8"/>
    </g>
    <g id="line" transform="translate(4.052 3.638)">
        <path d="M20.066 1.51A.938.938 0 1 0 18.7 2.67l.654 1.515c3.682 8.52 6.228 14.407.597 22.456.126-6.87-2.792-12.336-8.705-16.28a.946.946 0 0 0-1.073.022.94.94 0 0 0-.348 1.016c1.342 4.703-.628 8.077-3.122 12.351C4.14 28.145.95 33.612.948 42.075v.006c.003 11.878 9.663 21.542 21.54 21.555.006.002.014.006.023.006 11.89 0 21.562-9.674 21.562-21.562 0-16.313-8.526-30.722-24.007-40.57m2.46 60.255c-.006 0-.01-.004-.016-.004-10.856 0-19.686-8.829-19.688-19.686 0-7.956 2.922-12.964 5.5-17.382 2.207-3.779 4.158-7.127 3.77-11.373 4.842 4.022 6.721 9.356 5.74 16.236a.935.935 0 0 0 .541.985.932.932 0 0 0 1.1-.244c8.345-9.737 6.038-16.514 2.211-25.444 13.257 9.406 20.513 22.521 20.513 37.224.001 10.852-8.823 19.68-19.672 19.688" id="path3260"/>
    </g>
    <g id="face" transform="translate(4.052 3.638)">
        <path d="M15.143 44.17a4.26 4.26 0 0 0-.062-.687l-2.985-1.492c-.425.515-.703 1.292-.703 2.18 0 1.552.838 2.811 1.875 2.811s1.875-1.259 1.875-2.812" id="path3262"/>
        <path d="M32.018 46.983c1.037 0 1.875-1.26 1.875-2.812 0-.887-.278-1.664-.703-2.179l-2.985 1.492a4.249 4.249 0 0 0-.062.687c0 1.552.839 2.812 1.875 2.812" id="path3264"/>
        <path d="M22.643 45.164c-4.653 0-8.438 3.785-8.438 8.438a.937.937 0 1 0 1.876 0 6.57 6.57 0 0 1 6.562-6.562 6.57 6.57 0 0 1 6.562 6.562.937.937 0 1 0 1.876 0c0-4.653-3.785-8.438-8.438-8.438" id="path3266"/>
    </g>
</svg>
