<?xml version="1.0" encoding="UTF-8" standalone="no"?>
<svg
   xmlns:dc="http://purl.org/dc/elements/1.1/"
   xmlns:cc="http://creativecommons.org/ns#"
   xmlns:rdf="http://www.w3.org/1999/02/22-rdf-syntax-ns#"
   xmlns:svg="http://www.w3.org/2000/svg"
   xmlns="http://www.w3.org/2000/svg"
   xmlns:sodipodi="http://sodipodi.sourceforge.net/DTD/sodipodi-0.dtd"
   xmlns:inkscape="http://www.inkscape.org/namespaces/inkscape"
   version="1.1"
   x="0px"
   y="0px"
   viewBox="0 0 53.125 72.28"
   enable-background="new 0 0 100 100"
   xml:space="preserve"
   id="interactive_flame"
   inkscape:version="0.48.4 r9939"
   width="100%"
   height="100%"
   sodipodi:docname="all-dislike.svg"><sodipodi:namedview
     pagecolor="#ffffff"
     bordercolor="#666666"
     borderopacity="1"
     objecttolerance="10"
     gridtolerance="10"
     guidetolerance="10"
     inkscape:pageopacity="0"
     inkscape:pageshadow="2"
     inkscape:window-width="1156"
     inkscape:window-height="671"
     id="namedview3272"
     showgrid="false"
     fit-margin-top="5"
     fit-margin-right="5"
     fit-margin-bottom="5"
     fit-margin-left="5"
     inkscape:zoom="7.552"
     inkscape:cx="-0.31736353"
     inkscape:cy="28.051466"
     inkscape:window-x="75"
     inkscape:window-y="34"
     inkscape:window-maximized="0"
     inkscape:current-layer="color" /><metadata
     id="metadata3276"><rdf:RDF><cc:Work
         rdf:about=""><dc:format>image/svg+xml</dc:format><dc:type
           rdf:resource="http://purl.org/dc/dcmitype/StillImage" /><dc:title /></cc:Work></rdf:RDF></metadata><defs
     id="defs3274" /><g
     inkscape:groupmode="layer"
     id="color"
     inkscape:label="color"
     style="display:inline"
     transform="translate(4.0519072,3.6378436)"><path
       style="fill:#c9acc8;fill-opacity:1;stroke:none"
       d="M17.507252 62.483435C8.7962066 60.037034 2.6635411 51.834184 2.6635411 42.628979C2.6635411 36.824004 3.6310363 33.527465 7.7159142 25.414078C9.7619011 21.350337 11.598455 16.989425 11.797145 15.723164C11.797145 15.723164 11.883515 12.860606 11.883515 12.860606C11.883515 12.860606 13.511908 14.707876 13.511908 14.707876C15.835013 17.343234 18.327843 19.975694 18.59192 25.291532C18.778957 29.05656 17.8474 30.449712 18.489149 30.700675C19.612 31.139776 21.041306 28.154157 23.166985 23.64237C25.303743 19.107068 25.059845 14.394114 23.223035 8.9338832C22.56307 6.9720217 18.974673 -0.58319029 23.34199 3.9792885C26.33012 7.1009506 31.795391 12.340342 34.141474 15.712308C39.657469 23.640317 42.430605 32.577044 42.48717 41.766865C42.51883 46.910202 42.382194 47.667991 40.820373 51.011162C36.531413 60.191932 26.654466 65.05233 17.50725 62.483435C17.50725 62.483435 17.507254 62.483435 17.507254 62.483435"
       id="path4140-3" /></g><g
     inkscape:groupmode="layer"
     id="line"
     inkscape:label="flame"
     transform="translate(4.0519072,3.6378436)"><path
       d="M20.066092 1.5101574C19.720092 1.2841573 19.266092 1.3191573 18.954092 1.5861574C18.641092 1.8521574 18.538092 2.2911574 18.700092 2.6701574C18.700092 2.6701574 19.354092 4.1851574 19.354092 4.1851574C23.036092 12.705158 25.582093 18.592158 19.951092 26.641158C20.077092 19.771158 17.159092 14.305158 11.246092 10.361158C10.920092 10.145157 10.492092 10.154157 10.173092 10.383158C9.8560932 10.615158 9.7170932 11.020158 9.8250932 11.399158C11.167092 16.102158 9.1970932 19.476158 6.7030931 23.750158C4.140093 28.145158 0.95009306 33.612158 0.94809246 42.075158C0.94809246 42.075158 0.94809246 42.075158 0.94809246 42.075158C0.94809246 42.075158 0.94809246 42.075158 0.94809246 42.077158C0.94809246 42.077158 0.94809246 42.079158 0.94809246 42.079158C0.94809246 42.079158 0.94809246 42.079158 0.94809246 42.081158C0.95109246 53.959158 10.611092 63.623158 22.487092 63.636158C22.494092 63.638158 22.502092 63.642158 22.511092 63.642158C34.400093 63.642158 44.073093 53.968158 44.073093 42.080158C44.073093 25.767158 35.547093 11.358158 20.066092 1.5101574C20.066092 1.5101574 20.066092 1.5101574 20.066092 1.5101574M22.525092 61.765158C22.520092 61.765158 22.516092 61.761158 22.510092 61.761158C11.654092 61.761158 2.8240931 52.932158 2.8220931 42.075158C2.8220931 34.119158 5.7440931 29.111158 8.3220931 24.693158C10.529092 20.914158 12.480092 17.566158 12.091092 13.320158C16.934092 17.342158 18.813092 22.676158 17.831092 29.556158C17.772092 29.967158 17.992092 30.370158 18.373092 30.541158C18.756092 30.717158 19.201092 30.613158 19.472092 30.297158C27.818093 20.560158 25.511093 13.783158 21.684092 4.8531574C34.941093 14.259158 42.197093 27.374158 42.197093 42.077158C42.198093 52.929158 33.374093 61.756158 22.525092 61.765158C22.525092 61.765158 22.525092 61.765158 22.525092 61.765158"
       id="path3260"
       style="fill:#000000" /></g><g
     inkscape:groupmode="layer"
     id="face"
     inkscape:label="face"
     style="display:inline"
     transform="translate(4.0519072,3.6378436)"><path
       d="M15.143008 44.17028C15.143008 43.93228 15.117008 43.70528 15.081008 43.48328C15.081008 43.48328 12.096008 41.99128 12.096008 41.99128C11.671008 42.50628 11.393008 43.28328 11.393008 44.17028C11.393008 45.72328 12.231008 46.98228 13.268008 46.98228C14.305008 46.98228 15.143008 45.72328 15.143008 44.17028C15.143008 44.17028 15.143008 44.17028 15.143008 44.17028"
       id="path3262"
       style="fill:#000000" /><path
       d="M32.018008 46.98328C33.055008 46.98328 33.893008 45.72328 33.893008 44.17128C33.893008 43.28428 33.615008 42.50728 33.190008 41.99228C33.190008 41.99228 30.205008 43.48428 30.205008 43.48428C30.169008 43.70628 30.143008 43.93228 30.143008 44.17128C30.143008 45.72328 30.982008 46.98328 32.018008 46.98328C32.018008 46.98328 32.018008 46.98328 32.018008 46.98328"
       id="path3264"
       style="fill:#000000" /><path
       d="M22.643008 45.164424C17.990008 45.164424 14.205008 48.949424 14.205008 53.602424C14.205008 54.120424 14.624008 54.540424 15.143008 54.540424C15.662008 54.540424 16.081008 54.120424 16.081008 53.602424C16.081008 49.984424 19.025008 47.040424 22.643008 47.040424C26.261008 47.040424 29.205008 49.984424 29.205008 53.602424C29.205008 54.120424 29.624008 54.540424 30.143008 54.540424C30.662008 54.540424 31.081008 54.120424 31.081008 53.602424C31.081008 48.949424 27.296008 45.164424 22.643008 45.164424C22.643008 45.164424 22.643008 45.164424 22.643008 45.164424"
       id="path3266"
       style="fill:#000000" /></g></svg>