<?xml version="1.0" encoding="UTF-8" standalone="no"?>
<svg
   xmlns:dc="http://purl.org/dc/elements/1.1/"
   xmlns:cc="http://creativecommons.org/ns#"
   xmlns:rdf="http://www.w3.org/1999/02/22-rdf-syntax-ns#"
   xmlns:svg="http://www.w3.org/2000/svg"
   xmlns="http://www.w3.org/2000/svg"
   xmlns:sodipodi="http://sodipodi.sourceforge.net/DTD/sodipodi-0.dtd"
   xmlns:inkscape="http://www.inkscape.org/namespaces/inkscape"
   version="1.1"
   id="interactive_star"
   x="0px"
   y="0px"
   xml:space="preserve"
   inkscape:version="0.48.4 r9939"
   sodipodi:docname="all-star3.svg"
   width="87.605217"
   height="84.587532"
   enable-background="new 0 0 100 100"
   viewBox="0 0 84.235786 87.971033"><sodipodi:namedview
     pagecolor="#ffffff"
     bordercolor="#666666"
     borderopacity="1"
     objecttolerance="10"
     gridtolerance="10"
     guidetolerance="10"
     inkscape:pageopacity="0"
     inkscape:pageshadow="2"
     inkscape:window-width="975"
     inkscape:window-height="716"
     id="namedview3055"
     showgrid="true"
     fit-margin-top="10"
     fit-margin-left="10"
     fit-margin-right="10"
     fit-margin-bottom="10"
     inkscape:zoom="2.56"
     inkscape:cx="54.518638"
     inkscape:cy="30.10735"
     inkscape:window-x="214"
     inkscape:window-y="24"
     inkscape:window-maximized="0"
     inkscape:current-layer="3_face"
     inkscape:snap-global="false"><inkscape:grid
       originy="25.865385px"
       originx="15.353469px"
       type="xygrid"
       id="grid4750"
       empspacing="5"
       visible="true"
       enabled="true"
       snapvisiblegridlinesonly="true" /></sodipodi:namedview><metadata
     id="metadata3059"><rdf:RDF><cc:Work
         rdf:about=""><dc:format>image/svg+xml</dc:format><dc:type
           rdf:resource="http://purl.org/dc/dcmitype/StillImage" /><dc:title></dc:title></cc:Work></rdf:RDF></metadata><defs
     id="defs3057" /><g
     transform="translate(10.94277,19.533258)"
     inkscape:groupmode="layer"
     id="color"
     inkscape:label="color"
     style="display:inline"><path
       id="path4223"
       d="m 11.145373,56.558235 c -1.200689,-0.746402 -0.667355,-9.776232 1.119694,-18.957419 0.278419,-1.430421 0.50658,-2.84718 0.507022,-3.148352 6.45e-4,-0.437493 -0.99526,-1.546008 -4.9535071,-5.513624 C 1.4870797,22.592353 -1.791395,18.521632 -1.791395,17.006609 c 0,-0.25743 0.2676697,-0.589334 0.6761992,-0.838468 2.04369493,-1.246315 9.2318471,-2.914898 17.0090098,-3.948292 4.639921,-0.616533 4.269035,-0.477682 4.908954,-1.837791 1.297651,-2.7580875 4.328104,-8.7310036 5.226793,-10.30182916 2.477958,-4.33124944 5.126332,-7.83677224 5.920571,-7.83677224 0.513732,0 2.341135,2.0837604 3.769526,4.2983339 1.990938,3.08674391 3.254866,5.3884372 5.677791,10.339624 1.211135,2.474921 2.299507,4.5600795 2.418605,4.6336845 0.119092,0.07361 2.382019,0.445335 5.028713,0.826063 9.208716,1.324676 15.650731,2.993999 16.773156,4.346437 0.835028,1.006149 -3.169506,6.069509 -10.573714,13.369468 0,0 -4.060828,4.003653 -4.060828,4.003653 0,0 0.75924,4.214768 0.75924,4.214768 1.717439,9.534039 2.204382,16.521551 1.255389,18.014564 -0.269879,0.424588 -0.414057,0.466908 -1.176716,0.345405 -3.183432,-0.507168 -9.842369,-3.365029 -17.019347,-7.30431 -1.329983,-0.729996 -2.605968,-1.327266 -2.835524,-1.327266 -0.229554,0 -1.181905,0.42289 -2.11633,0.939758 -2.704029,1.495703 -8.923156,4.57046 -11.283832,5.578765 -3.593578,1.53491 -6.808089,2.416772 -7.420888,2.035831 0,0 0,0 0,0"
       style="fill:#dcdcdc;fill-opacity:1;stroke:none"
       inkscape:connector-curvature="0" /></g><g
     transform="translate(10.94277,19.533258)"
     inkscape:groupmode="layer"
     id="star"
     inkscape:label="star"
     style="display:inline"><path
       d="m 44.830106,10.033971 c -2.313704,-5.1004357 -9.04402,-19.1672293 -12.86859,-19.1672293 -3.826587,0 -10.555894,14.0647775 -12.86859,19.1652133 -5.56943,0.639444 -21.0381626,2.728232 -22.2040918,6.313767 -1.1659291,3.588561 10.1222015,14.370379 14.2513658,18.157632 -1.113482,5.494794 -3.9082843,20.854598 -0.857301,23.07047 0.430668,0.311654 0.993461,0.462942 1.726705,0.462942 4.686914,0 17.3084,-6.929008 19.948886,-8.408609 2.639477,1.479601 15.259954,8.409618 19.948887,8.409618 0.731227,0 1.296037,-0.153306 1.726704,-0.46496 3.050983,-2.219905 0.254165,-17.575675 -0.861335,-23.068452 4.131182,-3.78927 15.424355,-14.575124 14.257417,-18.159649 -1.161895,-3.581502 -16.630627,-5.672306 -22.200057,-6.310743 0,0 0,0 0,0 m 6.272416,23.435579 c -0.245087,0.225924 -0.356033,0.565818 -0.287448,0.8926 1.988937,9.62396 3.150833,20.632711 1.707542,21.682653 -0.005,0.004 -0.147254,0.103889 -0.614231,0.103889 -3.850793,0 -15.366865,-6.0828 -19.481909,-8.426763 -0.144229,-0.08371 -0.306612,-0.124055 -0.466977,-0.124055 -0.160366,0 -0.322749,0.04034 -0.466977,0.124055 -4.115045,2.343963 -15.631116,8.425755 -19.481908,8.425755 -0.375197,0 -0.562794,-0.06455 -0.614233,-0.101862 C 10.08925,55.09674 10.869898,45.165161 13.100898,34.361154 13.169482,34.032353 13.058537,33.694477 12.81244,33.469561 5.5475727,26.854212 -1.8625323,18.629168 -1.3118427,16.931712 -0.76115299,15.236274 10.070087,12.936691 19.837265,11.852457 c 0.334852,-0.03732 0.6223,-0.248114 0.758459,-0.551699 4.020236,-8.9552623 9.546297,-18.5419029 11.365792,-18.5419029 1.817478,0 7.34253,9.5866406 11.364783,18.5439209 0.137169,0.304594 0.424617,0.515388 0.75846,0.551698 9.768186,1.084233 20.597408,3.38281 21.148098,5.078247 0.500261,1.534063 -5.970849,9.106552 -14.130335,16.536829 0,0 0,0 0,0"
       id="path3049-3"
       style="fill:#000000"
       inkscape:connector-curvature="0" /></g><g
     transform="translate(10.94277,19.533258)"
     inkscape:groupmode="layer"
     id="0_face"
     inkscape:label="0_face"
     style="display:inline"><path
       id="ellipse3006"
       d="m 23.976411,20.687734 c 0,1.566363 -0.846677,2.836153 -1.891105,2.836153 -1.044428,0 -1.891104,-1.26979 -1.891104,-2.836153 0,-1.566364 0.846676,-2.836153 1.891104,-2.836153 1.044428,0 1.891105,1.269789 1.891105,2.836153 0,0 0,0 0,0"
       style="fill:#000000"
       inkscape:connector-curvature="0" /><path
       id="ellipse3008"
       d="m 42.887459,20.687734 c 0,1.566363 -0.846677,2.836153 -1.891105,2.836153 -1.044428,0 -1.891104,-1.26979 -1.891104,-2.836153 0,-1.566364 0.846676,-2.836153 1.891104,-2.836153 1.044428,0 1.891105,1.269789 1.891105,2.836153 0,0 0,0 0,0"
       style="fill:#000000"
       inkscape:connector-curvature="0" /><path
       id="circle3010"
       d="m 35.32304,29.197201 c 0,2.088857 -1.693354,3.78221 -3.78221,3.78221 -2.088856,0 -3.782209,-1.693353 -3.782209,-3.78221 0,-2.088857 1.693353,-3.782209 3.782209,-3.782209 2.088856,0 3.78221,1.693352 3.78221,3.782209 0,0 0,0 0,0"
       style="fill:#000000"
       inkscape:connector-curvature="0" /></g><g
     transform="translate(10.94277,19.533258)"
     inkscape:groupmode="layer"
     id="1_face"
     inkscape:label="1_face"
     style="display:none"><path
       id="ellipse3119"
       d="m 24.755476,23.845402 c 0,1.566363 -0.846676,2.836153 -1.891105,2.836153 -1.044428,0 -1.891105,-1.26979 -1.891105,-2.836153 0,-1.566364 0.846677,-2.836153 1.891105,-2.836153 1.044429,0 1.891105,1.269789 1.891105,2.836153 0,0 0,0 0,0"
       style="fill:#000000"
       inkscape:connector-curvature="0" /><path
       id="ellipse3121"
       d="m 43.666524,23.845402 c 0,1.566363 -0.846676,2.836153 -1.891105,2.836153 -1.044428,0 -1.891105,-1.26979 -1.891105,-2.836153 0,-1.566364 0.846677,-2.836153 1.891105,-2.836153 1.044429,0 1.891105,1.269789 1.891105,2.836153 0,0 0,0 0,0"
       style="fill:#000000"
       inkscape:connector-curvature="0" /><path
       d="m 39.884314,33.299917 c 0,0 -15.128837,0 -15.128837,0 -0.523458,0 -0.946057,0.422599 -0.946057,0.946057 0,0.523458 0.422599,0.946057 0.946057,0.946057 0,0 15.128837,0 15.128837,0 0.523459,0 0.946057,-0.422599 0.946057,-0.946057 0,-0.523458 -0.422598,-0.946057 -0.946057,-0.946057 0,0 0,0 0,0"
       id="path3125"
       style="fill:#000000"
       inkscape:connector-curvature="0" /></g><g
     transform="translate(10.94277,19.533258)"
     inkscape:groupmode="layer"
     id="3_face"
     inkscape:label="3_face"
     style="display:none"><path
       id="ellipse3195"
       d="m 24.281507,21.168834 c 0,1.566363 -0.846678,2.836153 -1.891105,2.836153 -1.044429,0 -1.891105,-1.26979 -1.891105,-2.836153 0,-1.566364 0.846676,-2.836153 1.891105,-2.836153 1.044427,0 1.891105,1.269789 1.891105,2.836153 0,0 0,0 0,0"
       style="fill:#000000"
       inkscape:connector-curvature="0" /><path
       id="ellipse3197"
       d="m 43.192555,21.168834 c 0,1.566363 -0.846678,2.836153 -1.891105,2.836153 -1.044429,0 -1.891105,-1.26979 -1.891105,-2.836153 0,-1.566364 0.846676,-2.836153 1.891105,-2.836153 1.044427,0 1.891105,1.269789 1.891105,2.836153 0,0 0,0 0,0"
       style="fill:#000000"
       inkscape:connector-curvature="0" /><path
       d="m 37.51924,26.84114 c -0.522449,0 -0.946057,0.422599 -0.946057,0.946057 0,2.607203 -2.120055,4.728266 -4.728267,4.728266 -2.608212,0 -4.728266,-2.120055 -4.728266,-4.728266 0,-0.52245 -0.422599,-0.946057 -0.946057,-0.946057 -0.523458,0 -0.946057,0.422599 -0.946057,0.946057 0,3.649075 2.969287,6.618362 6.618363,6.618362 3.649077,0 6.618362,-2.969287 6.618362,-6.618362 0.004,-0.52245 -0.419573,-0.946057 -0.942021,-0.946057 0,0 0,0 0,0"
       id="path3201"
       style="fill:#000000"
       inkscape:connector-curvature="0" /></g><g
     transform="translate(10.94277,19.533258)"
     inkscape:groupmode="layer"
     id="5_face"
     inkscape:label="5_face"
     style="opacity:0.93999999;display:none"><path
       id="ellipse3043"
       d="m 24.371814,17.275739 c 0,1.566364 -0.846677,2.836153 -1.891105,2.836153 -1.044429,0 -1.891105,-1.269789 -1.891105,-2.836153 0,-1.566364 0.846676,-2.836153 1.891105,-2.836153 1.044428,0 1.891105,1.269789 1.891105,2.836153 0,0 0,0 0,0"
       style="fill:#000000"
       inkscape:connector-curvature="0" /><path
       id="ellipse3045"
       d="m 43.282862,17.275739 c 0,1.566364 -0.846677,2.836153 -1.891105,2.836153 -1.044429,0 -1.891105,-1.269789 -1.891105,-2.836153 0,-1.566364 0.846676,-2.836153 1.891105,-2.836153 1.044428,0 1.891105,1.269789 1.891105,2.836153 0,0 0,0 0,0"
       style="fill:#000000"
       inkscape:connector-curvature="0" /><path
       d="m 41.187774,22.423334 c 0,0 -18.911047,0 -18.911047,0 -0.591034,0 -1.146766,0.276353 -1.504815,0.746356 -0.357041,0.471011 -0.475046,1.082216 -0.315689,1.65106 0.07867,0.287448 2.066599,7.058108 11.276028,7.058108 9.211444,0 11.197357,-6.77066 11.278044,-7.058108 0.157339,-0.568844 0.04135,-1.180049 -0.317705,-1.65106 -0.356033,-0.470003 -0.913783,-0.746356 -1.504816,-0.746356 0,0 0,0 0,0"
       id="path3047"
       style="fill:#000000"
       inkscape:connector-curvature="0" /></g></svg>