<?xml version="1.0" encoding="UTF-8" standalone="no"?>
<svg
   xmlns:dc="http://purl.org/dc/elements/1.1/"
   xmlns:cc="http://creativecommons.org/ns#"
   xmlns:rdf="http://www.w3.org/1999/02/22-rdf-syntax-ns#"
   xmlns:svg="http://www.w3.org/2000/svg"
   xmlns="http://www.w3.org/2000/svg"
   xmlns:sodipodi="http://sodipodi.sourceforge.net/DTD/sodipodi-0.dtd"
   xmlns:inkscape="http://www.inkscape.org/namespaces/inkscape"
   version="1.1"
   id="Layer_1"
   x="0px"
   y="0px"
   viewBox="0 0 41.245724 53.085998"
   enable-background="new 0 0 100 100"
   xml:space="preserve"
   height="53.085999"
   width="41.245724"
   inkscape:version="0.48.4 r9939"
   sodipodi:docname="bookmark-shadow.svg"><metadata
     id="metadata3193"><rdf:RDF><cc:Work
         rdf:about=""><dc:format>image/svg+xml</dc:format><dc:type
           rdf:resource="http://purl.org/dc/dcmitype/StillImage" /><dc:title /></cc:Work></rdf:RDF></metadata><defs
     id="defs3191" /><sodipodi:namedview
     pagecolor="#ffffff"
     bordercolor="#666666"
     borderopacity="1"
     objecttolerance="10"
     gridtolerance="10"
     guidetolerance="10"
     inkscape:pageopacity="0"
     inkscape:pageshadow="2"
     inkscape:window-width="1301"
     inkscape:window-height="744"
     id="namedview3189"
     showgrid="false"
     fit-margin-top="1"
     fit-margin-right="1"
     fit-margin-left="1"
     fit-margin-bottom="1"
     inkscape:zoom="5.7667888"
     inkscape:cx="52.787126"
     inkscape:cy="11.948267"
     inkscape:window-x="65"
     inkscape:window-y="24"
     inkscape:window-maximized="1"
     inkscape:current-layer="Layer_1" /><path
     style="fill:#460008;fill-opacity:1;stroke:#460008;stroke-width:1.5;stroke-linecap:round;stroke-miterlimit:4;stroke-opacity:1;stroke-dasharray:none;stroke-dashoffset:0"
     d="M 3.9156757,50.980318 C 3.0154026,50.554713 2.46497,49.995522 2.0551628,49.090199 1.7527506,48.422127 1.75,48.224305 1.75,27.142923 1.75,6.7350319 1.7613091,5.8454229 2.0280505,5.2705527 2.3966269,4.4762121 3.1616918,3.7229539 3.9905811,3.3383086 4.5957141,3.0574972 4.9983037,3.0202336 7.9231135,2.9743146 10.90057,2.9275691 11.181498,2.9006694 11.181498,2.6623148 c 0,-0.143464 0.156028,-0.4074247 0.346729,-0.5865793 0.344528,-0.323667 0.38632,-0.3257357 6.5808,-0.3257357 l 6.234071,0 0.310495,0.3947302 c 0.170772,0.2171016 0.310494,0.4834656 0.310494,0.5919199 0,0.1565482 0.766542,0.2064182 3.719199,0.2419656 l 3.719199,0.044776 0.601899,0.3986108 c 0.885667,0.5865365 1.126799,1.2268481 1.215042,3.2264592 l 0.07472,1.6932119 1.814285,5.543e-4 c 2.040241,6.292e-4 2.533375,0.1737417 3.088486,1.0841988 0.292767,0.4801746 0.297703,0.7921105 0.298253,18.8503335 5.99e-4,20.248591 0.04955,19.162962 -0.933513,20.711 -0.608449,0.958131 -1.593302,1.686047 -2.775009,2.051038 -0.938472,0.289865 -1.405571,0.298515 -16.044267,0.297093 l -15.0776525,-0.0015 -0.7490538,-0.354115 0,4e-5 z M 35.678339,48.932185 c 0.528077,-0.271802 0.874246,-0.594037 1.194367,-1.111788 l 0.450769,-0.729055 0.03978,-18.32616 0.03978,-18.326158 -1.57159,0 -1.57159,0 -0.0412,16.741352 c -0.0439,17.837883 -0.01643,17.189923 -0.762781,17.991524 -0.832244,0.893851 0.04213,0.840311 -15.059034,0.922084 l -13.8330762,0.07491 -0.3614942,0.420333 c -0.7438009,0.864868 -0.3381189,2.322547 0.7340588,2.63759 0.2852046,0.0838 6.4209566,0.129785 15.2379376,0.114199 l 14.760478,-0.0261 0.7436,-0.38273 z M 17.979006,43.996633 c 11.439047,0 13.564238,-0.03272 13.81029,-0.21262 0.28478,-0.208219 0.2917,-0.601445 0.334162,-18.988514 0.02385,-10.326741 0.0039,-18.9949908 -0.04424,-19.2627775 l -0.0876,-0.486885 -3.513764,0 -3.513765,0 0,10.7213175 c 0,11.997722 0.03845,11.592051 -1.099172,11.598192 -0.401347,0.0022 -1.095383,-0.542874 -5.657844,-4.44322 -0.210784,-0.180194 -0.571915,0.05225 -2.944699,1.895349 -2.848589,2.212693 -3.201547,2.380817 -3.781253,1.80111 C 11.187126,26.324591 11.1815,26.119217 11.1815,15.6824 l 0,-10.6365635 -2.9261221,0 c -3.2176019,0 -3.7309671,0.1025665 -4.2156897,0.8422631 -0.2610378,0.3983461 -0.2757023,1.304668 -0.314068,19.4103594 l -0.040245,18.992503 0.3870716,-0.147165 c 0.2430269,-0.0924 5.4182077,-0.147164 13.9065592,-0.147164 z m 4.887731,-30.186867 0,-10.1122263 -4.793944,0 -4.793945,0 0,9.9624153 c 0,5.479328 0.04089,9.962415 0.09087,9.962415 0.04997,0 0.943222,-0.663336 1.984992,-1.474081 2.184448,-1.700019 2.478661,-1.877735 2.919304,-1.763368 0.177716,0.04613 1.233222,0.859804 2.345566,1.808175 1.112345,0.948371 2.073007,1.725342 2.134804,1.726604 0.0618,0.0012 0.112358,-4.54821 0.112358,-10.109934 z"
     id="path5753"
     inkscape:connector-curvature="0" /></svg>