<?xml version="1.0" encoding="UTF-8" standalone="no"?>
<svg
   xmlns:dc="http://purl.org/dc/elements/1.1/"
   xmlns:cc="http://creativecommons.org/ns#"
   xmlns:rdf="http://www.w3.org/1999/02/22-rdf-syntax-ns#"
   xmlns:svg="http://www.w3.org/2000/svg"
   xmlns="http://www.w3.org/2000/svg"
   xmlns:sodipodi="http://sodipodi.sourceforge.net/DTD/sodipodi-0.dtd"
   xmlns:inkscape="http://www.inkscape.org/namespaces/inkscape"
   version="1.1"
   id="Layer_1"
   x="0px"
   y="0px"
   viewBox="0 0 40 51.761909"
   enable-background="new 0 0 100 100"
   xml:space="preserve"
   height="51.761909"
   width="40"
   inkscape:version="0.48.4 r9939"
   sodipodi:docname="noun_89086.svg"><metadata
     id="metadata3193"><rdf:RDF><cc:Work
         rdf:about=""><dc:format>image/svg+xml</dc:format><dc:type
           rdf:resource="http://purl.org/dc/dcmitype/StillImage" /><dc:title></dc:title></cc:Work></rdf:RDF></metadata><defs
     id="defs3191" /><sodipodi:namedview
     pagecolor="#ffffff"
     bordercolor="#666666"
     borderopacity="1"
     objecttolerance="10"
     gridtolerance="10"
     guidetolerance="10"
     inkscape:pageopacity="0"
     inkscape:pageshadow="2"
     inkscape:window-width="640"
     inkscape:window-height="480"
     id="namedview3189"
     showgrid="false"
     fit-margin-top="1"
     fit-margin-right="1"
     fit-margin-left="1"
     fit-margin-bottom="1"
     inkscape:zoom="2.36"
     inkscape:cx="11.937288"
     inkscape:cy="18.147461"
     inkscape:window-x="65"
     inkscape:window-y="24"
     inkscape:window-maximized="0"
     inkscape:current-layer="Layer_1" /><path
     d="M 36.707937,7.574603 H 33.631746 V 4.920635 c 0,-1.809524 -1.326984,-2.653969 -2.714285,-2.714286 H 24.403174 V 2.085714 C 24.403174,1.48254 23.920635,1 23.317461,1 H 11.555556 C 10.952381,1 10.469841,1.48254 10.469841,2.085714 V 2.266666 H 4.8 c -2.050793,0 -3.679365,1.628572 -3.8,3.619048 0,0.06032 0,0.120635 0,0.180953 v 40.834921 c 0,0 0,0 0,0 0,0 0,0.06032 0,0.06032 0,2.111111 1.688889,3.8 3.8,3.8 h 28.771429 c 0,0 0.06032,0 0.06032,0 2.593648,-0.120636 5.368252,-1.749208 5.368252,-5.97143 V 9.806349 c 0,-1.206348 -1.025396,-2.231746 -2.292063,-2.231746 z M 12.701587,3.171429 h 9.469842 v 0.120634 19.96508 l -4.041271,-3.438095 c -0.120634,-0.06032 -0.180952,-0.120635 -0.301586,-0.180952 0,0 0,0 0,0 -0.120636,-0.06032 -0.24127,-0.06032 -0.361905,-0.06032 0,0 0,0 0,0 0,0 0,0 0,0 -0.06032,0 -0.180953,0 -0.24127,0.06032 -0.06032,0 -0.06032,0 -0.120635,0 -0.120635,0.06032 -0.24127,0.120634 -0.361905,0.180952 l -4.04127,3.136508 V 3.352381 3.171429 z M 3.231746,6.187302 c 0,-0.06032 0,-0.120635 0,-0.120635 0,-0.844444 0.72381,-1.568254 1.568254,-1.568254 h 5.669841 v 20.749206 c 0,0.422222 0.24127,0.844445 0.603174,1.025398 0.361905,0.180952 0.844445,0.120634 1.146032,-0.120636 l 5.126984,-3.980952 5.187303,4.403174 c 0.06032,0.06032 0.180952,0.120636 0.241269,0.180953 0,0 0.06032,0 0.06032,0 0.06032,0.06032 0.180953,0.06032 0.24127,0.06032 0,0 0,0 0.06032,0 0.06032,0 0.06032,0 0.120636,0 0.06032,0 0.06032,0 0.120635,0 0,0 0.06032,0 0.06032,0 0.120634,0 0.180952,-0.06032 0.301587,-0.06032 0.422223,-0.180953 0.663492,-0.603175 0.663492,-1.025397 V 4.438095 h 6.514286 c 0.48254,0 0.48254,0.24127 0.48254,0.48254 v 3.8 33.536508 c 0,0.784128 -0.301588,0.904762 -0.663493,0.96508 H 4.8 c -0.120635,0 -0.24127,0 -0.422222,0 -0.06032,0 -0.120635,0 -0.24127,0.06032 -0.06032,0 -0.120635,0 -0.180952,0 -0.120636,0 -0.180953,0.06032 -0.301588,0.06032 0,0 -0.06032,0 -0.06032,0 -0.120635,0.06032 -0.180953,0.06032 -0.301587,0.120635 0,0 0,0 -0.06032,0 0,0 -0.06032,0 -0.06032,0.06032 V 6.187302 z m 33.536508,38.663492 c 0,2.895238 -1.749206,3.619048 -3.196825,3.739683 H 4.8 c -0.844444,0 -1.568254,-0.72381 -1.568254,-1.568254 0,0 0,-0.06032 0,-0.06032 0,-0.301587 0.120635,-0.603174 0.301588,-0.844444 0,0 0,-0.06032 0.06032,-0.06032 0.06032,-0.06032 0.06032,-0.120635 0.120635,-0.180953 0.06032,-0.06032 0.120634,-0.06032 0.120634,-0.120635 0,0 0.06032,-0.06032 0.06032,-0.06032 0.06032,-0.06032 0.120636,-0.06032 0.241271,-0.120635 0,0 0,0 0.06032,0 0.06032,-0.06032 0.180953,-0.06032 0.24127,-0.06032 0,0 0,0 0.06032,0 0.120635,0 0.180952,-0.06032 0.301588,-0.06032 h 26.11746 c 1.326984,0 2.714285,-0.904762 2.714285,-2.83492 V 42.257143 9.806349 l 3.136509,0 v 35.044445 z"
     id="path3187"
     inkscape:connector-curvature="0" /></svg>