<?xml version="1.0" encoding="UTF-8" standalone="no"?>
<svg
   xmlns:dc="http://purl.org/dc/elements/1.1/"
   xmlns:cc="http://creativecommons.org/ns#"
   xmlns:rdf="http://www.w3.org/1999/02/22-rdf-syntax-ns#"
   xmlns:svg="http://www.w3.org/2000/svg"
   xmlns="http://www.w3.org/2000/svg"
   xmlns:sodipodi="http://sodipodi.sourceforge.net/DTD/sodipodi-0.dtd"
   xmlns:inkscape="http://www.inkscape.org/namespaces/inkscape"
   viewBox="0 0 26.998617 29.157307"
   version="1.1"
   x="0px"
   y="0px"
   id="svg3039"
   inkscape:version="0.48.4 r9939"
   width="100%"
   height="100%"
   sodipodi:docname="noun_604217_cc.svg">
  <metadata
     id="metadata3053">
    <rdf:RDF>
      <cc:Work
         rdf:about="">
        <dc:format>image/svg+xml</dc:format>
        <dc:type
           rdf:resource="http://purl.org/dc/dcmitype/StillImage" />
        <dc:title></dc:title>
      </cc:Work>
    </rdf:RDF>
  </metadata>
  <defs
     id="defs3051" />
  <sodipodi:namedview
     pagecolor="#ffffff"
     bordercolor="#666666"
     borderopacity="1"
     objecttolerance="10"
     gridtolerance="10"
     guidetolerance="10"
     inkscape:pageopacity="0"
     inkscape:pageshadow="2"
     inkscape:window-width="1036"
     inkscape:window-height="627"
     id="namedview3049"
     showgrid="false"
     fit-margin-top="1"
     fit-margin-right="1"
     fit-margin-bottom="1"
     fit-margin-left="1"
     inkscape:zoom="5.8999998"
     inkscape:cx="13.999309"
     inkscape:cy="11.156616"
     inkscape:window-x="75"
     inkscape:window-y="34"
     inkscape:window-maximized="0"
     inkscape:current-layer="svg3039" />
  <g
     transform="translate(-2.0006912,-1022.3616)"
     id="g3041">
    <path
       style="font-size:medium;font-style:normal;font-variant:normal;font-weight:normal;font-stretch:normal;text-indent:0;text-align:start;text-decoration:none;line-height:normal;letter-spacing:normal;word-spacing:normal;text-transform:none;direction:ltr;block-progression:tb;writing-mode:lr-tb;text-anchor:start;baseline-shift:baseline;color:#000000;fill:#000000;fill-opacity:1;fill-rule:nonzero;stroke:none;visibility:visible;display:inline;overflow:visible;enable-background:accumulate;font-family:sans-serif"
       d="m 9.8925781,3 a 0.50064427,0.50064427 0 0 0 0.050781,1 c 1.2561919,0 2.4110729,0.6448038 3.0820319,1.6894531 -1.712534,0.894602 -2.886719,2.6832243 -2.886719,4.7421879 0.0011,0.4021 0.04943,0.800453 0.140625,1.189453 a 0.50005,0.50005 0 0 0 0,0.002 C 9.5446109,12.133276 8.8886022,12.747771 8.3320312,13.445312 7.0745875,12.442106 6.0315374,11.196578 5.2910156,9.7675781 A 0.50005,0.50005 0 0 0 4.8457031,9.4921875 0.50005,0.50005 0 0 0 4.4023438,10.228516 c 0.814202,1.571176 1.9637993,2.938686 3.3515624,4.035156 -0.8078891,1.276791 -1.3034475,2.76544 -1.390625,4.363281 l -2.8554687,0 a 0.50005,0.50005 0 1 0 0,1 l 2.8554687,0 c 0.1076904,1.973392 0.8364063,3.780272 2.0058594,5.226563 -1.6664227,1.156623 -3.0320873,2.696316 -3.9667968,4.5 a 0.50005,0.50005 0 0 0 0.4433593,0.736328 0.50005,0.50005 0 0 0 0.4453125,-0.275391 c 0.8788507,-1.695887 2.1701875,-3.139438 3.75,-4.210937 1.6575374,1.645064 3.9408374,2.664062 6.4589844,2.664062 2.518147,0 4.801447,-1.018998 6.458984,-2.664062 1.599373,1.084694 2.903996,2.550589 3.783204,4.273437 a 0.50005,0.50005 0 0 0 0.427734,0.279297 0.50005,0.50005 0 0 0 0.46289,-0.732422 c -0.935496,-1.833096 -2.314296,-3.398788 -4.001953,-4.570312 1.169453,-1.446291 1.89817,-3.253171 2.00586,-5.226563 l 2.855469,0 a 0.50005,0.50005 0 1 0 0,-1 l -2.855469,0 c -0.08723,-1.598787 -0.583846,-3.087939 -1.392578,-4.365234 1.407677,-1.112289 2.572314,-2.50192 3.388671,-4.101563 A 0.50005,0.50005 0 0 0 26.169922,9.4257812 0.50005,0.50005 0 0 0 25.742188,9.7050781 C 24.999505,11.160392 23.941962,12.425441 22.666016,13.443359 22.109809,12.7467 21.454638,12.132755 20.720703,11.623047 a 0.50005,0.50005 0 0 0 0,-0.002 c 0.09136,-0.3898 0.138484,-0.789153 0.140625,-1.189453 0,-2.0589636 -1.174185,-3.8475859 -2.886719,-4.7421879 C 18.645568,4.6448038 19.800448,4 21.056641,4 a 0.50005,0.50005 0 1 0 0,-1 C 19.398692,3 17.872833,3.8849793 17.037109,5.3066406 16.549571,5.1605044 16.034392,5.0800781 15.5,5.0800781 c -0.534392,0 -1.049571,0.080426 -1.537109,0.2265625 C 13.127167,3.8849793 11.601308,3 9.9433594,3 A 0.50005,0.50005 0 0 0 9.8925781,3 z M 15.5,6.078125 c 2.415429,0 4.361328,1.9428625 4.361328,4.351563 -0.0012,0.212607 -0.02268,0.423304 -0.05469,0.632812 C 18.521647,10.376849 17.056774,9.9863281 15.5,9.9863281 c -1.556774,0 -3.021647,0.3905209 -4.306641,1.0761719 -0.03235,-0.210727 -0.0541,-0.422372 -0.05469,-0.634766 C 11.139772,8.0199344 13.085239,6.078125 15.5,6.078125 z M 13.25,8 a 0.5,0.5 0 0 0 -0.5,0.5 0.5,0.5 0 0 0 0.5,0.5 0.5,0.5 0 0 0 0.5,-0.5 0.5,0.5 0 0 0 -0.5,-0.5 z m 5,0 A 0.5,0.5 0 0 0 17.75,8.5 0.5,0.5 0 0 0 18.25,9 0.5,0.5 0 0 0 18.75,8.5 0.5,0.5 0 0 0 18.25,8 z M 15,11.011719 15,27.242188 C 10.720745,26.983986 7.3379006,23.459697 7.3378906,19.126953 7.3378503,14.794133 10.720739,11.269942 15,11.011719 z m 1,0 c 4.27926,0.258223 7.66215,3.782414 7.662109,8.115234 C 23.6621,23.459697 20.279254,26.983986 16,27.242188 L 16,11.011719 z M 10.441406,15 a 0.50064429,0.50064429 0 0 0 0.05078,1 l 3,0 a 0.50005,0.50005 0 1 0 0,-1 l -3,0 a 0.50005,0.50005 0 0 0 -0.05078,0 z m 7.015625,0 a 0.50064426,0.50064426 0 0 0 0.05078,1 l 3,0 a 0.50005,0.50005 0 1 0 0,-1 l -3,0 a 0.50005,0.50005 0 0 0 -0.05078,0 z m -6.015625,2 a 0.50064429,0.50064429 0 0 0 0.05078,1 l 2,0 a 0.50005,0.50005 0 1 0 0,-1 l -2,0 a 0.50005,0.50005 0 0 0 -0.05078,0 z m 6.015625,0 a 0.50064426,0.50064426 0 0 0 0.05078,1 l 2,0 a 0.50005,0.50005 0 1 0 0,-1 l -2,0 a 0.50005,0.50005 0 0 0 -0.05078,0 z m -5.015625,2 a 0.50064429,0.50064429 0 0 0 0.05078,1 l 1,0 a 0.50005,0.50005 0 1 0 0,-1 l -1,0 a 0.50005,0.50005 0 0 0 -0.05078,0 z m 5.015625,0 a 0.50064426,0.50064426 0 0 0 0.05078,1 l 1,0 a 0.50005,0.50005 0 1 0 0,-1 l -1,0 a 0.50005,0.50005 0 0 0 -0.05078,0 z"
       transform="translate(0,1020.3622)"
       id="path3043"
       inkscape:connector-curvature="0" />
  </g>
</svg>
