<?xml version="1.0" encoding="UTF-8" standalone="no"?>
<svg
   xmlns:dc="http://purl.org/dc/elements/1.1/"
   xmlns:cc="http://creativecommons.org/ns#"
   xmlns:rdf="http://www.w3.org/1999/02/22-rdf-syntax-ns#"
   xmlns:svg="http://www.w3.org/2000/svg"
   xmlns="http://www.w3.org/2000/svg"
   xmlns:sodipodi="http://sodipodi.sourceforge.net/DTD/sodipodi-0.dtd"
   xmlns:inkscape="http://www.inkscape.org/namespaces/inkscape"
   version="1.1"
   id="Layer_1"
   x="0px"
   y="0px"
   width="66.902985"
   height="66.752129"
   viewBox="5 -10 66.902985 90.115374"
   enable-background="new 0 0 100 100"
   xml:space="preserve"
   inkscape:version="0.48.4 r9939"
   sodipodi:docname="noun_29993_cc.svg"><metadata
     id="metadata3073"><rdf:RDF><cc:Work
         rdf:about=""><dc:format>image/svg+xml</dc:format><dc:type
           rdf:resource="http://purl.org/dc/dcmitype/StillImage" /><dc:title></dc:title></cc:Work></rdf:RDF></metadata><defs
     id="defs3071" /><sodipodi:namedview
     pagecolor="#ffffff"
     bordercolor="#666666"
     borderopacity="1"
     objecttolerance="10"
     gridtolerance="10"
     guidetolerance="10"
     inkscape:pageopacity="0"
     inkscape:pageshadow="2"
     inkscape:window-width="640"
     inkscape:window-height="480"
     id="namedview3069"
     showgrid="false"
     fit-margin-top="0"
     fit-margin-left="0"
     fit-margin-right="0"
     fit-margin-bottom="0"
     inkscape:zoom="2.36"
     inkscape:cx="36.786056"
     inkscape:cy="27.820016"
     inkscape:window-x="65"
     inkscape:window-y="24"
     inkscape:window-maximized="0"
     inkscape:current-layer="Layer_1" /><path
     clip-rule="evenodd"
     d="m 43.842549,13.297358 c 3.58,-2.133 7.535,-2.567 11.154,-1.727 1.795,0.417 3.502,1.146 5.033,2.134 1.541,0.995 2.911,2.252 4.024,3.721 2.102,2.772 3.292,6.286 2.993,10.193 7.221,0.294 12.134,4.274 14.649,9.499 1.171,2.432 1.809,5.139 1.903,7.863 0.095,2.71 -0.353,5.447 -1.351,7.96 -2.38,5.994 -7.812,10.669 -16.387,10.669 v -0.009 h -1.628 l -2.301,-3.984 h 3.929 v -0.008 c 6.671,0 10.868,-3.565 12.684,-8.137 0.791,-1.993 1.146,-4.184 1.069,-6.366 -0.075,-2.169 -0.582,-4.321 -1.513,-6.254 -2.132,-4.427 -6.572,-7.68 -13.252,-7.209 v 0 c -0.189,0.013 -0.384,-0.002 -0.578,-0.046 -1.074,-0.246 -1.746,-1.316 -1.5,-2.391 0.846,-3.639 -0.04,-6.912 -1.905,-9.373 -0.828,-1.092 -1.848,-2.028 -2.994,-2.768 -1.155,-0.745 -2.433,-1.293 -3.768,-1.603 -3.049,-0.708 -6.428,-0.186 -9.354,2.033 l -0.003,-0.003 c -0.826,0.625 -2.007,0.514 -2.7,-0.278 -2.26,-2.592 -4.924,-4.387 -7.752,-5.464 l -2.822,-4.8890001 c 4.453,0.771 8.77,2.852 12.37,6.4370001 l 0,0 z m 1.789,50.304 -2.301,-3.984 h -31.479 v -0.008 c -4.891,0 -8.663,-2.037 -11.12899996,-5.039 -1.60499999,-1.954 -2.67400004,-4.326 -3.15200004,-6.822 -0.478,-2.494 -0.361,-5.102 0.404,-7.528 1.17800005,-3.732 3.922,-7.049 8.433,-8.856 0.789,-0.316 1.264,-1.08 1.252,-1.882 0.176,-5.936 2.74,-10.743 6.508,-14.027 0.804,-0.701 1.665,-1.333 2.572,-1.895 l -1.996,-3.457 c -1.125,0.691 -2.197,1.476 -3.201,2.351 -4.299,3.748 -7.3,9.123 -7.804,15.724 -5.0409999,2.388 -8.1670002,6.383 -9.5770002,10.854 -0.964,3.059 -1.113,6.337 -0.514,9.466 0.6,3.127 1.954,6.117 3.9970002,8.604 3.18600004,3.877 8.007,6.508 14.208,6.508 v -0.008 h 33.779 z"
     id="path3061"
     inkscape:connector-curvature="0"
     style="fill-rule:evenodd" /><path
     clip-rule="evenodd"
     d="m 11.948549,-7.4586421 c -0.467,-0.813 -0.187,-1.849 0.625,-2.316 0.813,-0.4659999 1.849,-0.186 2.316,0.625 l 50.07,86.7250001 c 0.467,0.812 0.187,1.849 -0.626,2.314 -0.812,0.467 -1.849,0.187 -2.314,-0.625 l -50.071,-86.7230001 z"
     id="path3063"
     inkscape:connector-curvature="0"
     style="fill-rule:evenodd" /></svg>