<?xml version="1.0" encoding="UTF-8" standalone="no"?>
<svg
   xmlns:dc="http://purl.org/dc/elements/1.1/"
   xmlns:cc="http://creativecommons.org/ns#"
   xmlns:rdf="http://www.w3.org/1999/02/22-rdf-syntax-ns#"
   xmlns:svg="http://www.w3.org/2000/svg"
   xmlns="http://www.w3.org/2000/svg"
   xmlns:sodipodi="http://sodipodi.sourceforge.net/DTD/sodipodi-0.dtd"
   xmlns:inkscape="http://www.inkscape.org/namespaces/inkscape"
   version="1.1"
   id="Your_Icon"
   x="0px"
   y="0px"
   width="74.074532"
   height="48.200581"
   viewBox="5 -10 74.074532 65.070784"
   enable-background="new 0 0 100 100"
   xml:space="preserve"
   inkscape:version="0.48.4 r9939"
   sodipodi:docname="cloud-ok.svg"><metadata
     id="metadata3090"><rdf:RDF><cc:Work
         rdf:about=""><dc:format>image/svg+xml</dc:format><dc:type
           rdf:resource="http://purl.org/dc/dcmitype/StillImage" /><dc:title></dc:title></cc:Work></rdf:RDF></metadata><defs
     id="defs3088" /><sodipodi:namedview
     pagecolor="#ffffff"
     bordercolor="#666666"
     borderopacity="1"
     objecttolerance="10"
     gridtolerance="10"
     guidetolerance="10"
     inkscape:pageopacity="0"
     inkscape:pageshadow="2"
     inkscape:window-width="640"
     inkscape:window-height="480"
     id="namedview3086"
     showgrid="false"
     fit-margin-top="0"
     fit-margin-left="0"
     fit-margin-right="0"
     fit-margin-bottom="0"
     inkscape:zoom="2.36"
     inkscape:cx="39.8641"
     inkscape:cy="17.32789"
     inkscape:window-x="137"
     inkscape:window-y="143"
     inkscape:window-maximized="0"
     inkscape:current-layer="Your_Icon" /><path
     style="fill:#000000"
     inkscape:connector-curvature="0"
     id="path3078"
     d="m 51.583774,-9.9487 c -1.0176,0.0518 -2.3379,0.1699 -3.1084,0.2822 -0.75,0.1084 -1.4639,0.2881 -2.5176,0.6377 -4.7568,1.582 -9.4121,4.8906 -12.3408,8.7598 -0.3906,0.5186 -1.0273,1.5049 -1.4277,2.209 -0.2109,0.3652 -0.3857,0.6787 -0.3965,0.6885 -0.0049,0.0107 -0.2979,-0.1074 -0.6416,-0.2666 -1.8037,-0.8223 -3.5762,-1.2998 -5.7695,-1.5576 -1.1055,-0.1328 -3.6221,-0.1328 -4.624,-0.005 -2.0146,0.2627 -3.6689,0.7607 -5.498,1.6543 -2.209,1.084 -3.9863,2.3379 -5.6973002,4.0234 -2.2461,2.2139 -3.4893,4.2432 -4.5264,7.3828 -0.499,1.5 -0.8379,3.0264 -0.9658,4.3418 l -0.0625,0.6416 -1.2324,0.6172 c -1.5215,0.7549 -2.3379,1.2793 -3.5449,2.2656 -1.6807,1.3711 -3.3193,3.1748 -4.4033,4.8496 -1.3721,2.1064 -2.3125,4.7627 -2.6924,7.5781 -0.1133,0.8379 -0.1338,3.165 -0.0312,3.9824 0.4521,3.6631 1.7373,6.6992 4.0391,9.582 0.5029,0.626 1.9521,2.1113 2.7539,2.8203 2.1475,1.8955 4.0479,2.8467 7.3057,3.6533 1.8906,0.4668 3.7197,0.5908 10.6504002,0.6934 8.7031,0.1338 44.1182,0.2412 49.04,0.1543 7.9951,-0.1445 11,-0.4932 13.7949,-1.5928 1.999,-0.7861 3.6377,-1.6494 4.9326,-2.5947 4.5879,-3.3496 7.2187,-8.5547 7.4092,-14.6689 0.0771,-2.5322 -0.3809,-4.8545 -1.459,-7.3721 -0.9971,-2.3281 -2.1631,-4.0283 -4.0439,-5.9092 -2.5791,-2.5732 -5.4463,-4.2793 -8.5801,-5.0908 -0.3594,-0.0928 -0.6729,-0.1855 -0.6885,-0.2002 -0.0156,-0.0156 0.0361,-0.5762 0.123,-1.249 0.1338,-1.084 0.1494,-1.3662 0.1445,-2.6045 0,-1.9268 -0.1748,-3.335 -0.6426,-5.1787 -1.5205,-6.0732 -5.4102,-11.5762 -10.4346,-14.7822 -2.3486,-1.5 -6.9053,-3.3184 -9.0586,-3.6221 -1.2481,-0.1689 -3.6934,-0.2255 -5.8057,-0.123 z m 4.7265,2.9288 c 1.0537,0.082 1.7627,0.2568 3.1963,0.7754 1.5205,0.5498 3.3037,1.3359 4.5625,2.0088 1.9268,1.0381 4.0635,2.8779 5.6973,4.9121 2.2305,2.7842 3.8174,6.1445 4.501,9.5615 0.2773,1.3818 0.334,1.998 0.334,3.5449 -0.0049,1.2949 -0.0156,1.5156 -0.1699,2.6719 -0.2207,1.6543 -0.2568,2.3633 -0.1436,2.7021 0.1025,0.3184 0.3291,0.5957 0.6162,0.7656 0.124,0.0723 0.5088,0.2109 0.8584,0.3027 0.3496,0.0977 1.0273,0.2832 1.5,0.4111 2.5791,0.7041 4.9072,2.0713 7.0186,4.1152 1.0225,0.9971 1.8291,1.9736 2.4971,3.0322 0.3955,0.626 1.0889,2.0596 1.4023,2.9023 0.7295,1.958 0.9766,3.4268 0.9199,5.4668 -0.123,4.2539 -1.665,8.0352 -4.3926,10.8047 -1.2334,1.248 -2.4922,2.127 -4.2803,2.9902 -3.2217,1.5518 -4.9424,1.875 -11.2725,2.1113 -2.0703,0.0771 -12.207,0.1592 -16.0557,0.1289 -1.8496,-0.0156 -7.7686,-0.0361 -13.1523,-0.0518 -5.3848,-0.0156 -10.9336,-0.0361 -12.3311,-0.0508 -1.3975,-0.0156 -4.2646,-0.0361 -6.3711,-0.0518 -5.9951,-0.0459 -10.0078,-0.1387 -11.9189002,-0.2881 -1.002,-0.0771 -1.665,-0.1797 -2.5693,-0.4053 -3.2061,-0.8066 -4.8037,-1.7422 -7.249,-4.2441 -0.8682,-0.8887 -1.4395,-1.5879 -2.0303,-2.4863 -1.2686,-1.9316 -2.0391,-3.915 -2.3936,-6.1709 -0.0977,-0.6426 -0.1133,-0.9346 -0.1133,-2.1787 0,-1.6279 0.0771,-2.291 0.4111,-3.6221 0.7041,-2.8047 1.9268,-4.9629 4.0537,-7.1357 1.6387,-1.6807 2.8613,-2.5791 4.7881,-3.5254 1.1924,-0.585 1.542,-0.791 1.8965,-1.1143 0.5801,-0.5342 0.7803,-1.0381 0.8477,-2.127 0.0713,-1.2334 0.3701,-2.5947 0.9297,-4.2236 0.6572,-1.9268 1.2949,-3.1445 2.3633002,-4.4951 0.5137,-0.6533 2.0039,-2.1426 2.6768,-2.6768 2.0498,-1.6338 4.3008,-2.7949 6.4531,-3.3447 2.4971,-0.6318 5.7852,-0.5352 8.5186,0.251 0.9814,0.2832 1.5469,0.5146 2.8154,1.1514 1.1152,0.5596 1.2021,0.5908 1.5566,0.6162 0.3389,0.0205 0.4014,0.0107 0.7041,-0.1387 0.1953,-0.0977 0.3857,-0.2363 0.4775,-0.3545 0.082,-0.1025 0.4883,-0.791 0.9102,-1.5254 1.084,-1.9062 1.6689,-2.7334 2.8301,-4.0078 2.7334,-2.9854 6.875,-5.5391 10.6865,-6.5762 1.5625,-0.4264 5.7598,-0.6422 8.4209,-0.4312 z" /><path
     inkscape:connector-curvature="0"
     style="font-size:medium;font-style:normal;font-variant:normal;font-weight:normal;font-stretch:normal;text-indent:0;text-align:start;text-decoration:none;line-height:normal;letter-spacing:normal;word-spacing:normal;text-transform:none;direction:ltr;block-progression:tb;writing-mode:lr-tb;text-anchor:start;baseline-shift:baseline;color:#000000;fill:#000000;fill-opacity:1;fill-rule:nonzero;stroke:none;stroke-width:6.84569836;marker:none;visibility:visible;display:inline;overflow:visible;enable-background:accumulate;font-family:Sans;-inkscape-font-specification:Sans"
     d="m 42.291458,10.828559 c -7.067026,0 -13.144423,4.35633 -15.652898,10.542061 a 1.5950273,1.5950273 0 1 0 2.95583,1.193991 c 2.031717,-5.00996 6.939262,-8.5472 12.697068,-8.5472 5.976009,0 11.024826,3.815318 12.900923,9.129633 l -0.640682,-0.640677 c -0.438643,-0.450477 -1.164353,-0.599675 -1.747302,-0.364044 -0.218623,0.08839 -0.409987,0.23316 -0.567896,0.407704 -0.0526,0.0582 -0.101578,0.124314 -0.145563,0.189314 -0.132096,0.195046 -0.224214,0.408916 -0.262142,0.640678 -0.01258,0.07725 -0.01398,0.154368 -0.01445,0.232974 -0.0046,0.0533 -0.0046,0.106794 0,0.160146 0.03728,0.37271 0.210562,0.730279 0.480485,0.990138 l 3.392705,3.392689 c 0.03165,0.04566 0.06571,0.08909 0.101905,0.131071 0.355699,0.439435 0.957422,0.665093 1.514329,0.56785 0.01439,0 0.02932,4.7e-5 0.04381,0 0.03451,-0.0089 0.0683,-0.01864 0.10195,-0.02889 0.01958,-0.0046 0.03916,-0.0093 0.0582,-0.01445 0.08511,-0.02702 0.168114,-0.06113 0.247509,-0.101949 0.01448,-0.0046 0.02932,-0.0098 0.0438,-0.01445 0.02986,-0.01817 0.05891,-0.03774 0.08734,-0.05824 0.01493,-0.0098 0.02888,-0.01957 0.0438,-0.02936 0.02986,-0.0233 0.05909,-0.04752 0.08734,-0.07278 0.01448,-0.0093 0.02932,-0.0191 0.04381,-0.02889 0.02986,-0.0233 0.05909,-0.04748 0.08743,-0.07282 0.0045,-0.0051 0.0093,-0.0093 0.01439,-0.01445 0.03075,-0.03261 0.05972,-0.06667 0.08734,-0.101949 l 3.552846,-3.552835 c 0.663372,-0.569063 0.703396,-1.709701 0.08734,-2.329738 -0.614721,-0.621294 -1.756393,-0.586907 -2.329741,0.07282 l -0.946426,0.946492 C 56.724322,16.189424 50.127249,10.829118 42.291877,10.829118 z M 27.483043,26.554286 c -0.0704,0 -0.148777,0.0046 -0.21839,0.01445 -0.01445,4.7e-5 -0.02935,-4.6e-5 -0.0438,0 -0.03448,0.0089 -0.06831,0.01864 -0.101949,0.02936 -0.01957,0.0046 -0.03914,0.0093 -0.05824,0.01445 -0.08512,0.02702 -0.16816,0.06113 -0.247511,0.101949 -0.01445,0.0051 -0.02936,0.0098 -0.0438,0.01445 -0.02982,0.01817 -0.05894,0.03774 -0.08737,0.05824 -0.01491,0.0098 -0.02888,0.01957 -0.0438,0.02889 -0.02982,0.0233 -0.05913,0.04753 -0.08741,0.07282 -0.01445,0.0093 -0.02936,0.01864 -0.0438,0.02888 -0.02982,0.0233 -0.05913,0.04748 -0.08737,0.07282 -0.0046,0.0051 -0.0093,0.0093 -0.01445,0.01445 -0.03075,0.03261 -0.05974,0.06673 -0.08741,0.101903 l -3.538264,3.552849 c -0.66337,0.569061 -0.717979,1.7097 -0.101903,2.329736 0.614725,0.62139 1.770927,0.587003 2.344276,-0.07282 l 0.931894,-0.931905 c 1.895753,7.257039 8.506847,12.609797 16.337281,12.609797 7.067024,0 13.129792,-4.35647 15.638357,-10.542062 A 1.5950273,1.5950273 0 1 0 54.973522,32.85846 c -2.031722,5.010007 -6.924681,8.547293 -12.682486,8.547293 -5.980856,0 -11.040905,-3.823145 -12.915457,-9.144265 l 0.655215,0.655216 c 0.329005,0.337905 0.812705,0.501871 1.281355,0.465993 0.156232,-0.01211 0.305661,-0.04287 0.45141,-0.101903 0.07282,-0.02936 0.151339,-0.07609 0.218389,-0.116486 0.335249,-0.202081 0.578754,-0.530061 0.698922,-0.90282 0.02423,-0.07455 0.04566,-0.141135 0.05824,-0.218436 0.01258,-0.07726 0.02889,-0.154368 0.02889,-0.232974 0.0046,-0.05326 0.0046,-0.106841 0,-0.160146 -0.03728,-0.372711 -0.210561,-0.730326 -0.480484,-0.990138 l -3.407289,-3.392703 c -0.03168,-0.04566 -0.06574,-0.08904 -0.101902,-0.131025 -0.311208,-0.384545 -0.802782,-0.598326 -1.295941,-0.582391 z"
     id="path3442" /></svg>