<?xml version="1.0" encoding="UTF-8" standalone="no"?>
<svg
   xmlns:dc="http://purl.org/dc/elements/1.1/"
   xmlns:cc="http://creativecommons.org/ns#"
   xmlns:rdf="http://www.w3.org/1999/02/22-rdf-syntax-ns#"
   xmlns:svg="http://www.w3.org/2000/svg"
   xmlns="http://www.w3.org/2000/svg"
   xmlns:sodipodi="http://sodipodi.sourceforge.net/DTD/sodipodi-0.dtd"
   xmlns:inkscape="http://www.inkscape.org/namespaces/inkscape"
   version="1.1"
   id="Your_Icon"
   x="0px"
   y="0px"
   width="74.074532"
   height="48.200581"
   viewBox="5 -10 74.074532 65.070784"
   enable-background="new 0 0 100 100"
   xml:space="preserve"
   inkscape:version="0.48.4 r9939"
   sodipodi:docname="noun_27339_cc.svg"><metadata
     id="metadata3090"><rdf:RDF><cc:Work
         rdf:about=""><dc:format>image/svg+xml</dc:format><dc:type
           rdf:resource="http://purl.org/dc/dcmitype/StillImage" /><dc:title></dc:title></cc:Work></rdf:RDF></metadata><defs
     id="defs3088" /><sodipodi:namedview
     pagecolor="#ffffff"
     bordercolor="#666666"
     borderopacity="1"
     objecttolerance="10"
     gridtolerance="10"
     guidetolerance="10"
     inkscape:pageopacity="0"
     inkscape:pageshadow="2"
     inkscape:window-width="640"
     inkscape:window-height="480"
     id="namedview3086"
     showgrid="false"
     fit-margin-top="0"
     fit-margin-left="0"
     fit-margin-right="0"
     fit-margin-bottom="0"
     inkscape:zoom="2.36"
     inkscape:cx="39.8641"
     inkscape:cy="17.32789"
     inkscape:window-x="65"
     inkscape:window-y="24"
     inkscape:window-maximized="0"
     inkscape:current-layer="Your_Icon" /><g
     transform="matrix(0.1,0,0,-0.1,-7.9631262,1974.1781)"
     id="g3076"><path
       d="m 595.469,19841.268 c -10.176,-0.518 -23.379,-1.699 -31.084,-2.822 -7.5,-1.084 -14.639,-2.881 -25.176,-6.377 -47.568,-15.82 -94.121,-48.906 -123.408,-87.598 -3.906,-5.186 -10.273,-15.049 -14.277,-22.09 -2.109,-3.652 -3.857,-6.787 -3.965,-6.885 -0.049,-0.107 -2.979,1.074 -6.416,2.666 -18.037,8.223 -35.762,12.998 -57.695,15.576 -11.055,1.328 -36.221,1.328 -46.24,0.05 -20.146,-2.627 -36.689,-7.607 -54.98,-16.543 -22.09,-10.84 -39.863,-23.379 -56.973,-40.234 -22.461,-22.139 -34.893,-42.432 -45.264,-73.828 -4.99,-15 -8.379,-30.264 -9.658,-43.418 l -0.625,-6.416 -12.324,-6.172 c -15.215,-7.549 -23.379,-12.793 -35.449,-22.656 -16.807,-13.711 -33.193,-31.748 -44.033,-48.496 -13.721,-21.064 -23.125,-47.627 -26.924,-75.781 -1.133,-8.379 -1.338,-31.65 -0.312,-39.824 4.521,-36.631 17.373,-66.992 40.391,-95.82 5.029,-6.26 19.521,-21.113 27.539,-28.203 21.475,-18.955 40.479,-28.467 73.057,-36.533 18.906,-4.668 37.197,-5.908 106.504,-6.934 87.031,-1.338 441.182,-2.412 490.4,-1.543 79.951,1.445 110,4.932 137.949,15.928 19.99,7.861 36.377,16.494 49.326,25.947 45.879,33.496 72.187,85.547 74.092,146.689 0.771,25.322 -3.809,48.545 -14.59,73.721 -9.971,23.281 -21.631,40.283 -40.439,59.092 -25.791,25.732 -54.463,42.793 -85.801,50.908 -3.594,0.928 -6.729,1.855 -6.885,2.002 -0.156,0.156 0.361,5.762 1.23,12.49 1.338,10.84 1.494,13.662 1.445,26.045 0,19.268 -1.748,33.35 -6.426,51.787 -15.205,60.732 -54.102,115.762 -104.346,147.822 -23.486,15 -69.053,33.184 -90.586,36.221 -12.481,1.689 -36.934,2.255 -58.057,1.23 z m 47.265,-29.288 c 10.537,-0.82 17.627,-2.568 31.963,-7.754 15.205,-5.498 33.037,-13.359 45.625,-20.088 19.268,-10.381 40.635,-28.779 56.973,-49.121 22.305,-27.842 38.174,-61.445 45.01,-95.615 2.773,-13.818 3.34,-19.98 3.34,-35.449 -0.049,-12.949 -0.156,-15.156 -1.699,-26.719 -2.207,-16.543 -2.568,-23.633 -1.436,-27.021 1.025,-3.184 3.291,-5.957 6.162,-7.656 1.24,-0.723 5.088,-2.109 8.584,-3.027 3.496,-0.977 10.273,-2.832 15,-4.111 25.791,-7.041 49.072,-20.713 70.186,-41.152 10.225,-9.971 18.291,-19.736 24.971,-30.322 3.955,-6.26 10.889,-20.596 14.023,-29.023 7.295,-19.58 9.766,-34.268 9.199,-54.668 -1.23,-42.539 -16.65,-80.352 -43.926,-108.047 -12.334,-12.48 -24.922,-21.27 -42.803,-29.902 -32.217,-15.518 -49.424,-18.75 -112.725,-21.113 -20.703,-0.771 -122.07,-1.592 -160.557,-1.289 -18.496,0.156 -77.686,0.361 -131.523,0.518 -53.848,0.156 -109.336,0.361 -123.311,0.508 -13.975,0.156 -42.646,0.361 -63.711,0.518 -59.951,0.459 -100.078,1.387 -119.189,2.881 -10.02,0.771 -16.65,1.797 -25.693,4.053 -32.061,8.066 -48.037,17.422 -72.49,42.441 -8.682,8.887 -14.395,15.879 -20.303,24.863 -12.686,19.316 -20.391,39.15 -23.936,61.709 -0.977,6.426 -1.133,9.346 -1.133,21.787 0,16.279 0.771,22.91 4.111,36.221 7.041,28.047 19.268,49.629 40.537,71.357 16.387,16.807 28.613,25.791 47.881,35.254 11.924,5.85 15.42,7.91 18.965,11.143 5.801,5.342 7.803,10.381 8.477,21.27 0.713,12.334 3.701,25.947 9.297,42.236 6.572,19.268 12.949,31.445 23.633,44.951 5.137,6.533 20.039,21.426 26.768,26.768 20.498,16.338 43.008,27.949 64.531,33.447 24.971,6.318 57.852,5.352 85.186,-2.51 9.814,-2.832 15.469,-5.146 28.154,-11.514 11.152,-5.596 12.021,-5.908 15.566,-6.162 3.389,-0.205 4.014,-0.107 7.041,1.387 1.953,0.977 3.857,2.363 4.775,3.545 0.82,1.025 4.883,7.91 9.102,15.254 10.84,19.062 16.689,27.334 28.301,40.078 27.334,29.854 68.75,55.391 106.865,65.762 15.625,4.264 57.598,6.422 84.209,4.312 z"
       id="path3078"
       inkscape:connector-curvature="0"
       style="fill:#000000" /><path
       d="m 693.603,19636.219 c -0.82,-0.312 -2.363,-1.133 -3.34,-1.797 -0.977,-0.615 -17.158,-16.494 -35.967,-35.244 -98.34,-98.027 -227.041,-225.762 -227.754,-226.064 -0.107,-0.05 -25.791,25.332 -57.08,56.416 -39.619,39.355 -57.705,56.973 -59.551,58.057 -2.363,1.387 -3.135,1.533 -6.777,1.533 -3.652,0 -4.424,-0.146 -6.943,-1.592 -6.934,-3.906 -9.502,-12.178 -5.957,-19.16 1.699,-3.242 125.566,-126.494 129.424,-128.75 2.363,-1.387 3.135,-1.543 6.777,-1.543 3.447,0 4.57,0.205 6.523,1.279 2.832,1.494 2.881,1.543 115.498,113.496 159.688,158.76 161.846,160.869 163.184,163.691 1.484,3.086 1.641,7.607 0.41,11.201 -0.977,2.822 -4.219,6.367 -7.148,7.812 -2.412,1.182 -8.935,1.534 -11.299,0.665 z"
       id="path3080"
       inkscape:connector-curvature="0"
       style="fill:#000000" /></g></svg>