<?xml version="1.0" encoding="UTF-8" standalone="no"?>
<svg
   xmlns:dc="http://purl.org/dc/elements/1.1/"
   xmlns:cc="http://creativecommons.org/ns#"
   xmlns:rdf="http://www.w3.org/1999/02/22-rdf-syntax-ns#"
   xmlns:svg="http://www.w3.org/2000/svg"
   xmlns="http://www.w3.org/2000/svg"
   xmlns:sodipodi="http://sodipodi.sourceforge.net/DTD/sodipodi-0.dtd"
   xmlns:inkscape="http://www.inkscape.org/namespaces/inkscape"
   version="1.1"
   x="0px"
   y="0px"
   viewBox="0 0 61.15 61.025"
   enable-background="new 0 0 100 100"
   xml:space="preserve"
   id="svg3037"
   inkscape:version="0.48.4 r9939"
   width="100%"
   height="100%"
   sodipodi:docname="delete.svg"><metadata
     id="metadata3049"><rdf:RDF><cc:Work
         rdf:about=""><dc:format>image/svg+xml</dc:format><dc:type
           rdf:resource="http://purl.org/dc/dcmitype/StillImage" /><dc:title></dc:title></cc:Work></rdf:RDF></metadata><defs
     id="defs3047" /><sodipodi:namedview
     pagecolor="#ffffff"
     bordercolor="#666666"
     borderopacity="1"
     objecttolerance="10"
     gridtolerance="10"
     guidetolerance="10"
     inkscape:pageopacity="0"
     inkscape:pageshadow="2"
     inkscape:window-width="640"
     inkscape:window-height="645"
     id="namedview3045"
     showgrid="false"
     fit-margin-top="1"
     fit-margin-left="1"
     fit-margin-right="1"
     fit-margin-bottom="1"
     inkscape:zoom="5.3400704"
     inkscape:cx="31.586387"
     inkscape:cy="32.532585"
     inkscape:window-x="75"
     inkscape:window-y="34"
     inkscape:window-maximized="0"
     inkscape:current-layer="svg3037" /><path
     style="fill:#800000;fill-opacity:1;stroke:#800000;stroke-width:2.99999992999999998;stroke-linecap:round;stroke-miterlimit:4;stroke-opacity:1;stroke-dasharray:none;stroke-dashoffset:0"
     d="M 5.0086672,56.147267 C 4.1090476,55.247646 3.6122881,54.174934 3.6122881,53.1319 c 0,-1.396082 1.4378533,-3.063396 10.4433669,-12.109977 L 24.499021,30.530932 14.055655,20.039941 C 5.0501414,10.99336 3.6122881,9.3260466 3.6122881,7.9299642 c 0,-2.1698923 2.2418516,-4.4117439 4.4117437,-4.4117439 1.3961149,0 3.0640452,1.4384998 12.1162302,10.4495907 L 30.637506,24.417403 41.096905,13.967811 C 50.443708,4.6297731 51.741459,3.5182203 53.296931,3.5182203 c 2.324155,0 4.340781,2.0048549 4.340781,4.3154419 0,1.5212287 -1.18151,2.9021858 -10.443367,12.2062788 L 36.750979,30.530932 47.194345,41.021923 c 9.005512,9.046581 10.443367,10.713895 10.443367,12.109977 0,2.169892 -2.241852,4.411744 -4.411744,4.411744 -1.396082,0 -3.063396,-1.437855 -12.109977,-10.443366 L 30.625,36.656911 20.134009,47.100278 C 11.087428,56.105789 9.4201144,57.543644 8.0240318,57.543644 c -1.0430341,0 -2.1157451,-0.496758 -3.0153646,-1.396377 z"
     id="path3420"
     inkscape:connector-curvature="0" /><path
     d="m 53.225,60.025 c -1.8,0 -3.6,-0.7 -4.9,-2 l -17.7,-17.7 -17.8,17.7 c -1.3,1.3 -3,2 -4.9,2 -1.9,0 -3.6,-0.7 -4.9,-2 -2.7,-2.7 -2.7,-7.1 0,-9.8 l 17.7,-17.7 -17.7,-17.7 c -2.7,-2.7 -2.7,-7.1 0,-9.8 2.7,-2.7 7.1,-2.7 9.8,0 l 17.8,17.7 17.7,-17.7 c 2.7,-2.7 7.1,-2.7 9.8,0 2.7,2.7 2.7,7.1 0,9.8 l -17.8,17.7 17.7,17.7 c 2.7,2.7 2.7,7.1 0,9.8 -1.2,1.3 -3,2 -4.8,2 z m -22.6,-22.8 19.3,19.3 c 1.8,1.8 4.9,1.8 6.7,0 1.8,-1.8 1.8,-4.9 0,-6.7 l -19.3,-19.3 19.3,-19.3 c 0.9,-0.9 1.4,-2.1 1.4,-3.4 0,-1.3 -0.5,-2.5 -1.4,-3.4 -1.8,-1.8 -4.9,-1.8 -6.7,0 l -19.3,19.4 -19.3,-19.3 c -1.8,-1.8 -4.9,-1.8 -6.7,0 -0.9,0.9 -1.4,2.1 -1.4,3.3 0,1.2 0.5,2.5 1.4,3.4 l 19.3,19.3 -19.3,19.3 c -1.8,1.8 -1.8,4.9 0,6.7 1.8,1.8 4.9,1.8 6.7,0 l 19.3,-19.3 z"
     id="path3039"
     inkscape:connector-curvature="0"
     style="fill:#000000" /></svg>