<?xml version="1.0" encoding="UTF-8" standalone="no"?>
<svg
   xmlns:dc="http://purl.org/dc/elements/1.1/"
   xmlns:cc="http://creativecommons.org/ns#"
   xmlns:rdf="http://www.w3.org/1999/02/22-rdf-syntax-ns#"
   xmlns:svg="http://www.w3.org/2000/svg"
   xmlns="http://www.w3.org/2000/svg"
   xmlns:sodipodi="http://sodipodi.sourceforge.net/DTD/sodipodi-0.dtd"
   xmlns:inkscape="http://www.inkscape.org/namespaces/inkscape"
   version="1.1"
   x="0px"
   y="0px"
   viewBox="0 0 61.15 61.025"
   enable-background="new 0 0 100 100"
   xml:space="preserve"
   id="svg3037"
   inkscape:version="0.48.4 r9939"
   width="100%"
   height="100%"
   sodipodi:docname="noun_204356_cc.svg"><metadata
     id="metadata3049"><rdf:RDF><cc:Work
         rdf:about=""><dc:format>image/svg+xml</dc:format><dc:type
           rdf:resource="http://purl.org/dc/dcmitype/StillImage" /><dc:title></dc:title></cc:Work></rdf:RDF></metadata><defs
     id="defs3047" /><sodipodi:namedview
     pagecolor="#ffffff"
     bordercolor="#666666"
     borderopacity="1"
     objecttolerance="10"
     gridtolerance="10"
     guidetolerance="10"
     inkscape:pageopacity="0"
     inkscape:pageshadow="2"
     inkscape:window-width="640"
     inkscape:window-height="480"
     id="namedview3045"
     showgrid="false"
     fit-margin-top="1"
     fit-margin-left="1"
     fit-margin-right="1"
     fit-margin-bottom="1"
     inkscape:zoom="1.888"
     inkscape:cx="30.625"
     inkscape:cy="18.1"
     inkscape:window-x="75"
     inkscape:window-y="34"
     inkscape:window-maximized="0"
     inkscape:current-layer="svg3037" /><path
     d="m 53.225,60.025 c -1.8,0 -3.6,-0.7 -4.9,-2 l -17.7,-17.7 -17.8,17.7 c -1.3,1.3 -3,2 -4.9,2 -1.9,0 -3.6,-0.7 -4.9,-2 -2.7,-2.7 -2.7,-7.1 0,-9.8 l 17.7,-17.7 -17.7,-17.7 c -2.7,-2.7 -2.7,-7.1 0,-9.8 2.7,-2.7 7.1,-2.7 9.8,0 l 17.8,17.7 17.7,-17.7 c 2.7,-2.7 7.1,-2.7 9.8,0 2.7,2.7 2.7,7.1 0,9.8 l -17.8,17.7 17.7,17.7 c 2.7,2.7 2.7,7.1 0,9.8 -1.2,1.3 -3,2 -4.8,2 z m -22.6,-22.8 19.3,19.3 c 1.8,1.8 4.9,1.8 6.7,0 1.8,-1.8 1.8,-4.9 0,-6.7 l -19.3,-19.3 19.3,-19.3 c 0.9,-0.9 1.4,-2.1 1.4,-3.4 0,-1.3 -0.5,-2.5 -1.4,-3.4 -1.8,-1.8 -4.9,-1.8 -6.7,0 l -19.3,19.4 -19.3,-19.3 c -1.8,-1.8 -4.9,-1.8 -6.7,0 -0.9,0.9 -1.4,2.1 -1.4,3.3 0,1.2 0.5,2.5 1.4,3.4 l 19.3,19.3 -19.3,19.3 c -1.8,1.8 -1.8,4.9 0,6.7 1.8,1.8 4.9,1.8 6.7,0 l 19.3,-19.3 z"
     id="path3039"
     inkscape:connector-curvature="0"
     style="fill:#000000" /></svg>