<?xml version="1.0" encoding="UTF-8" standalone="no"?>
<svg
   xmlns:dc="http://purl.org/dc/elements/1.1/"
   xmlns:cc="http://creativecommons.org/ns#"
   xmlns:rdf="http://www.w3.org/1999/02/22-rdf-syntax-ns#"
   xmlns:svg="http://www.w3.org/2000/svg"
   xmlns="http://www.w3.org/2000/svg"
   xmlns:sodipodi="http://sodipodi.sourceforge.net/DTD/sodipodi-0.dtd"
   xmlns:inkscape="http://www.inkscape.org/namespaces/inkscape"
   version="1.1"
   id="Layer_1"
   x="0px"
   y="0px"
   width="47.833332"
   height="50.612591"
   viewBox="5 -10 47.833332 68.326998"
   enable-background="new 0 0 100 100"
   xml:space="preserve"
   inkscape:version="0.48.4 r9939"
   sodipodi:docname="dislike-fill.svg"><metadata
     id="metadata3059"><rdf:RDF><cc:Work
         rdf:about=""><dc:format>image/svg+xml</dc:format><dc:type
           rdf:resource="http://purl.org/dc/dcmitype/StillImage" /><dc:title /></cc:Work></rdf:RDF></metadata><defs
     id="defs3057" /><sodipodi:namedview
     pagecolor="#ffffff"
     bordercolor="#666666"
     borderopacity="1"
     objecttolerance="10"
     gridtolerance="10"
     guidetolerance="10"
     inkscape:pageopacity="0"
     inkscape:pageshadow="2"
     inkscape:window-width="1301"
     inkscape:window-height="744"
     id="namedview3055"
     showgrid="false"
     fit-margin-left="1"
     fit-margin-top="1"
     fit-margin-right="1"
     fit-margin-bottom="1"
     inkscape:zoom="6.675088"
     inkscape:cx="29.907473"
     inkscape:cy="24.217033"
     inkscape:window-x="65"
     inkscape:window-y="24"
     inkscape:window-maximized="1"
     inkscape:current-layer="Layer_1" /><g
     id="g3830"><path
       transform="matrix(1.35,0,0,1.35,-3.3708333,-10)"
       inkscape:connector-curvature="0"
       id="path3826"
       d="M 7.9376107,47.923893 C 7.6615215,47.787862 7.2621474,47.414413 7.0501129,47.094009 L 6.6645953,46.511451 5.3545459,28.131517 C 4.6340188,18.022553 4.0117093,9.3639471 3.971636,8.8901706 l -0.07286,-0.8614119 19.98553,0 19.985531,0 -8.99e-4,0.4119796 c -4.5e-4,0.2265888 -0.60557,8.8604607 -1.344672,19.1863827 -1.255423,17.539416 -1.36493,18.811961 -1.664728,19.345379 -0.176498,0.314038 -0.574944,0.713755 -0.885434,0.888259 l -0.56448,0.317283 -15.485015,-0.0034 C 9.8378404,48.17153 8.3942639,48.148887 7.9376107,47.923893 l 0,0 z M 18.837119,37.104067 c 0.115718,-0.07326 0.261219,-0.507715 0.323335,-0.965454 0.481316,-3.546839 4.131356,-5.473667 7.107981,-3.752247 1.283399,0.742206 2.067225,1.920548 2.343154,3.522508 0.196761,1.142331 0.325194,1.332983 0.897969,1.332983 0.646554,0 0.815601,-0.484668 0.607362,-1.741345 -0.221033,-1.3339 -0.821237,-2.513137 -1.755043,-3.448188 -1.98497,-1.987615 -4.885509,-2.399188 -7.487993,-1.062514 -0.753773,0.38715 -1.893467,1.467386 -2.383805,2.259442 -0.706896,1.141866 -1.092384,3.377801 -0.657353,3.812832 0.210743,0.210743 0.705186,0.231411 1.004393,0.04198 z m -1.131376,-8.536199 c 0.443219,-0.381788 0.696264,-0.998741 0.696264,-1.697567 l 0,-0.648738 -1.126059,-0.557188 c -0.619333,-0.306454 -1.15692,-0.55719 -1.194639,-0.55719 -0.2157,0 -0.525707,0.99849 -0.525707,1.69323 0,0.594297 0.09073,0.943874 0.341571,1.316101 0.579869,0.860467 1.164306,1.006321 1.80857,0.451352 l 0,0 z m 13.995811,-0.0666 c 0.348355,-0.385654 0.632853,-1.179328 0.632853,-1.765489 0,-0.508424 -0.425928,-1.628595 -0.619248,-1.628595 -0.07551,0 -0.598706,0.232369 -1.162665,0.516374 -1.12371,0.565891 -1.242209,0.758923 -1.064034,1.733286 0.262399,1.434954 1.413148,2.030025 2.213094,1.144424 l 0,0 z"
       style="fill:#c9acc8;fill-opacity:1;stroke:#c9acc8;stroke-width:2.00000001;stroke-linecap:round;stroke-miterlimit:4;stroke-opacity:1;stroke-dasharray:none;stroke-dashoffset:0" /><path
       transform="matrix(1.35,0,0,1.35,-3.3708333,-10)"
       inkscape:connector-curvature="0"
       id="path3828"
       d="M 2.7842351,6.3688407 C 2.4322515,6.1638291 2.4491741,5.5315284 2.811839,5.337436 3.0075987,5.2326686 9.8554007,5.1823543 23.918559,5.1823543 c 19.874111,0 20.832133,0.012295 21.152197,0.2714682 0.407121,0.3296665 0.30416,0.8499758 -0.194659,0.9837025 C 44.26715,6.6007752 3.0670168,6.5335459 2.7842351,6.3688407 z"
       style="fill:#c9acc8;fill-opacity:1;stroke:#c9acc8;stroke-width:2.00000001;stroke-linecap:round;stroke-miterlimit:4;stroke-opacity:1;stroke-dasharray:none;stroke-dashoffset:0" /></g><g
     id="g3129"
     transform="translate(0.80897806,0.33366791)"><g
       transform="translate(-0.8089781,-3.0336679)"
       id="g3124"><path
         d="m 21.416166,28.85 c 0,-0.238 -0.026,-0.465 -0.062,-0.687 l -2.985,-1.492 c -0.425,0.514 -0.703,1.292 -0.703,2.179 0,1.553 0.838,2.812 1.875,2.812 1.037,0 1.875,-1.259 1.875,-2.812 z"
         id="path3043"
         inkscape:connector-curvature="0"
         style="fill:#000000" /><path
         d="m 36.478166,28.164 c -0.036,0.222 -0.062,0.448 -0.062,0.687 0,1.553 0.838,2.812 1.875,2.812 1.037,0 1.875,-1.26 1.875,-2.812 0,-0.886 -0.278,-1.665 -0.703,-2.179 l -2.985,1.492 z"
         id="path3045"
         inkscape:connector-curvature="0"
         style="fill:#000000" /><path
         d="m 28.916166,33.538 c -4.653,0 -8.438,3.785 -8.438,8.438 0,0.518 0.419,0.938 0.938,0.938 0.519,0 0.938,-0.419 0.938,-0.938 0,-3.618 2.944,-6.562 6.562,-6.562 3.618,0 6.562,2.944 6.562,6.562 0,0.518 0.419,0.938 0.938,0.938 0.519,0 0.938,-0.419 0.938,-0.938 0,-4.653 -3.785,-8.438 -8.438,-8.438 z"
         id="path3047"
         inkscape:connector-curvature="0"
         style="fill:#000000" /></g><path
       style="fill:#000000"
       inkscape:connector-curvature="0"
       id="path3049"
       d="m 56.232188,-5.2336679 h -17.907 c -0.436,-2.139 -2.327,-3.75 -4.592,-3.75 h -11.25 c -2.265,0 -4.157,1.611 -4.592,3.75 H -0.01781141 c -1.55099999,0 -2.81199999,1.262 -2.81199999,2.812 0,1.24 0.811,2.28300001 1.92799999,2.65500001 L 2.7971886,52.019332 l 0,0 v 0.002 c 0.176,2.459 2.364,4.62 4.684,4.622 0.002,0 0.002,0 0.002,0 0.003,0 0.005,-0.002 0.009,-0.002 H 48.723188 c 0.004,0 0.006,0.002 0.009,0.002 0,0 0,0 0.002,0 2.32,-0.002 4.508,-2.163 4.684,-4.622 v -0.002 l 0,0 3.699,-51.78599989 c 1.117,-0.372 1.928,-1.41600001 1.928,-2.65500001 0,-1.55 -1.262,-2.812 -2.813,-2.812 z m -33.75,-1.874 h 11.25 c 1.221,0 2.252,0.787 2.64,1.875 h -16.53 c 0.388,-1.088 1.419,-1.875 2.64,-1.875 z m 29.065,58.9959999 0,0 c 0,0.002 0,0.002 0,0.002 -0.104,1.474 -1.47,2.871 -2.809,2.876 -0.002,0 -0.003,0 -0.005,0 H 7.4831886 c -0.002,0 -0.003,0 -0.005,0 -1.339,-0.005 -2.705,-1.402 -2.809,-2.876 0,0 0,0 0,-0.002 l 0,0 -3.678,-51.49699989 H 55.226188 l -3.679,51.49699989 z m 4.685,-53.3719999 H -0.01781141 c -0.516,0 -0.938,-0.421 -0.938,-0.938 0,-0.517 0.421,-0.938 0.938,-0.938 H 56.232188 c 0.516,0 0.938,0.421 0.938,0.938 0,0.517 -0.422,0.938 -0.938,0.938 z" /></g></svg>