<?xml version="1.0" encoding="UTF-8" standalone="no"?>
<svg
   xmlns:dc="http://purl.org/dc/elements/1.1/"
   xmlns:cc="http://creativecommons.org/ns#"
   xmlns:rdf="http://www.w3.org/1999/02/22-rdf-syntax-ns#"
   xmlns:svg="http://www.w3.org/2000/svg"
   xmlns="http://www.w3.org/2000/svg"
   xmlns:sodipodi="http://sodipodi.sourceforge.net/DTD/sodipodi-0.dtd"
   xmlns:inkscape="http://www.inkscape.org/namespaces/inkscape"
   version="1.1"
   x="0px"
   y="0px"
   viewBox="0 0 45.124999 64.281212"
   enable-background="new 0 0 100 100"
   xml:space="preserve"
   id="svg3258"
   inkscape:version="0.48.4 r9939"
   width="100%"
   height="100%"
   sodipodi:docname="noun_47980_cc.svg"><metadata
     id="metadata3276"><rdf:RDF><cc:Work
         rdf:about=""><dc:format>image/svg+xml</dc:format><dc:type
           rdf:resource="http://purl.org/dc/dcmitype/StillImage" /><dc:title></dc:title></cc:Work></rdf:RDF></metadata><defs
     id="defs3274" /><sodipodi:namedview
     pagecolor="#ffffff"
     bordercolor="#666666"
     borderopacity="1"
     objecttolerance="10"
     gridtolerance="10"
     guidetolerance="10"
     inkscape:pageopacity="0"
     inkscape:pageshadow="2"
     inkscape:window-width="751"
     inkscape:window-height="671"
     id="namedview3272"
     showgrid="false"
     fit-margin-top="1"
     fit-margin-right="1"
     fit-margin-bottom="1"
     fit-margin-left="1"
     inkscape:zoom="1.888"
     inkscape:cx="114.99668"
     inkscape:cy="19.438998"
     inkscape:window-x="65"
     inkscape:window-y="24"
     inkscape:window-maximized="0"
     inkscape:current-layer="svg3258" /><path
     d="m 20.117999,1.1492129 c -0.346,-0.22600006 -0.8,-0.19100006 -1.112,0.076 -0.313,0.266 -0.416,0.705 -0.254,1.084 l 0.654,1.515 c 3.682,8.5200001 6.228,14.4070001 0.597,22.4560001 0.126,-6.87 -2.792,-12.336 -8.705,-16.28 -0.326,-0.2160001 -0.754,-0.2070001 -1.073,0.022 -0.316999,0.232 -0.455999,0.637 -0.347999,1.016 1.341999,4.703 -0.628,8.077 -3.122,12.351 -2.563,4.395 -5.753,9.862 -5.75500055,18.325 l 0,0 c 0,0 0,0 0,0.002 v 0.002 c 0,0 0,0 0,0.002 0.003,11.878 9.66299955,21.542 21.53899955,21.555 0.007,0.002 0.015,0.006 0.024,0.006 11.889,0 21.562,-9.674 21.562,-21.562 0,-16.313 -8.526,-30.722 -24.007,-40.5700001 z m 2.459,60.2550001 c -0.005,0 -0.009,-0.004 -0.015,-0.004 -10.856,0 -19.685999,-8.829 -19.687999,-19.686 0,-7.956 2.922,-12.964 5.5,-17.382 2.206999,-3.779 4.157999,-7.127 3.768999,-11.373 4.843,4.022 6.722,9.356 5.74,16.236 -0.059,0.411 0.161,0.814 0.542,0.985 0.383,0.176 0.828,0.072 1.099,-0.244 8.346,-9.737 6.039,-16.514 2.212,-25.4440001 13.257,9.4060001 20.513,22.5210001 20.513,37.2240001 0.001,10.852 -8.823,19.679 -19.672,19.688 z"
     id="path3260"
     inkscape:connector-curvature="0"
     style="fill:#000000" /><path
     d="m 15.061999,38.904213 c 0,-0.238 -0.026,-0.465 -0.062,-0.687 l -2.985,-1.492 c -0.425,0.515 -0.703,1.292 -0.703,2.179 0,1.553 0.838,2.812 1.875,2.812 1.037,0 1.875,-1.259 1.875,-2.812 z"
     id="path3262"
     inkscape:connector-curvature="0"
     style="fill:#000000" /><path
     d="m 31.936999,41.717213 c 1.037,0 1.875,-1.26 1.875,-2.812 0,-0.887 -0.278,-1.664 -0.703,-2.179 l -2.985,1.492 c -0.036,0.222 -0.062,0.448 -0.062,0.687 0,1.552 0.839,2.812 1.875,2.812 z"
     id="path3264"
     inkscape:connector-curvature="0"
     style="fill:#000000" /><path
     d="m 22.561999,43.592213 c -4.653,0 -8.438,3.785 -8.438,8.438 0,0.518 0.419,0.938 0.938,0.938 0.519,0 0.938,-0.42 0.938,-0.938 0,-3.618 2.944,-6.562 6.562,-6.562 3.618,0 6.562,2.944 6.562,6.562 0,0.518 0.419,0.938 0.938,0.938 0.519,0 0.938,-0.42 0.938,-0.938 0,-4.653 -3.785,-8.438 -8.438,-8.438 z"
     id="path3266"
     inkscape:connector-curvature="0"
     style="fill:#000000" /></svg>