<?xml version="1.0" encoding="UTF-8" standalone="no"?>
<svg
   xmlns:dc="http://purl.org/dc/elements/1.1/"
   xmlns:cc="http://creativecommons.org/ns#"
   xmlns:rdf="http://www.w3.org/1999/02/22-rdf-syntax-ns#"
   xmlns:svg="http://www.w3.org/2000/svg"
   xmlns="http://www.w3.org/2000/svg"
   xmlns:sodipodi="http://sodipodi.sourceforge.net/DTD/sodipodi-0.dtd"
   xmlns:inkscape="http://www.inkscape.org/namespaces/inkscape"
   version="1.1"
   id="Layer_1"
   x="0px"
   y="0px"
   width="50.810776"
   height="53.709942"
   viewBox="5 -10 50.810776 72.508422"
   enable-background="new 0 0 100 100"
   xml:space="preserve"
   inkscape:version="0.48.4 r9939"
   sodipodi:docname="dislike.svg"><metadata
     id="metadata3059"><rdf:RDF><cc:Work
         rdf:about=""><dc:format>image/svg+xml</dc:format><dc:type
           rdf:resource="http://purl.org/dc/dcmitype/StillImage" /><dc:title></dc:title></cc:Work></rdf:RDF></metadata><defs
     id="defs3057" /><sodipodi:namedview
     pagecolor="#ffffff"
     bordercolor="#666666"
     borderopacity="1"
     objecttolerance="10"
     gridtolerance="10"
     guidetolerance="10"
     inkscape:pageopacity="0"
     inkscape:pageshadow="2"
     inkscape:window-width="1301"
     inkscape:window-height="744"
     id="namedview3055"
     showgrid="false"
     fit-margin-left="1"
     fit-margin-top="1"
     fit-margin-right="1"
     fit-margin-bottom="1"
     inkscape:zoom="6.675088"
     inkscape:cx="33.975863"
     inkscape:cy="19.768725"
     inkscape:window-x="65"
     inkscape:window-y="24"
     inkscape:window-maximized="1"
     inkscape:current-layer="Layer_1" /><g
     id="g4154"
     transform="matrix(1.0431442,0,0,1.0431442,16.335015,-0.56975886)"><path
       d="m 42.112426,-3.3489621 h -17.907 c -0.436,-2.139 -2.327,-3.75 -4.592,-3.75 h -11.25 c -2.265,0 -4.157,1.611 -4.592,3.75 h -17.908999 c -1.551,0 -2.812,1.262 -2.812,2.81200002 0,1.24000001 0.811,2.28299998 1.928,2.65499998 l 3.699,51.7860001 0,0 v 0.002 c 0.176,2.459 2.3639997,4.62 4.6839997,4.622 0.002,0 0.002,0 0.002,0 0.003,0 0.005,-0.002 0.009,-0.002 H 34.603426 c 0.004,0 0.006,0.002 0.009,0.002 0,0 0,0 0.002,0 2.32,-0.002 4.508,-2.163 4.684,-4.622 v -0.002 l 0,0 3.699,-51.7860001 c 1.117,-0.372 1.928,-1.41599997 1.928,-2.65499998 0,-1.55000002 -1.262,-2.81200002 -2.813,-2.81200002 z m -33.75,-1.874 h 11.25 c 1.221,0 2.252,0.787 2.64,1.875 h -16.53 c 0.388,-1.088 1.419,-1.875 2.64,-1.875 z m 29.065,58.9960001 0,0 c 0,0.002 0,0.002 0,0.002 -0.104,1.474 -1.47,2.871 -2.809,2.876 -0.002,0 -0.003,0 -0.005,0 H -6.6365733 c -0.002,0 -0.003,0 -0.005,0 -1.339,-0.005 -2.705,-1.402 -2.809,-2.876 0,0 0,0 0,-0.002 l 0,0 -3.6779997,-51.4970001 h 54.234999 l -3.679,51.4970001 z m 4.685,-53.37200008 h -56.249999 c -0.516,0 -0.938,-0.421 -0.938,-0.938 0,-0.51700002 0.421,-0.93800002 0.938,-0.93800002 h 56.249999 c 0.516,0 0.938,0.421 0.938,0.93800002 0,0.517 -0.422,0.938 -0.938,0.938 z"
       id="path4156"
       inkscape:connector-curvature="0"
       style="fill:#460008;fill-opacity:1;stroke:#460008;stroke-width:1.2941643;stroke-miterlimit:4;stroke-opacity:1;stroke-dasharray:none" /></g></svg>