<?xml version="1.0" encoding="UTF-8" standalone="no"?>
<svg
   xmlns:dc="http://purl.org/dc/elements/1.1/"
   xmlns:cc="http://creativecommons.org/ns#"
   xmlns:rdf="http://www.w3.org/1999/02/22-rdf-syntax-ns#"
   xmlns:svg="http://www.w3.org/2000/svg"
   xmlns="http://www.w3.org/2000/svg"
   xmlns:sodipodi="http://sodipodi.sourceforge.net/DTD/sodipodi-0.dtd"
   xmlns:inkscape="http://www.inkscape.org/namespaces/inkscape"
   version="1.1"
   id="Layer_1"
   x="0px"
   y="0px"
   width="47.833332"
   height="50.612591"
   viewBox="5 -10 47.833332 68.326998"
   enable-background="new 0 0 100 100"
   xml:space="preserve"
   inkscape:version="0.48.4 r9939"
   sodipodi:docname="dislike-shadow.svg"><metadata
     id="metadata3059"><rdf:RDF><cc:Work
         rdf:about=""><dc:format>image/svg+xml</dc:format><dc:type
           rdf:resource="http://purl.org/dc/dcmitype/StillImage" /><dc:title /></cc:Work></rdf:RDF></metadata><defs
     id="defs3057" /><sodipodi:namedview
     pagecolor="#ffffff"
     bordercolor="#666666"
     borderopacity="1"
     objecttolerance="10"
     gridtolerance="10"
     guidetolerance="10"
     inkscape:pageopacity="0"
     inkscape:pageshadow="2"
     inkscape:window-width="1301"
     inkscape:window-height="744"
     id="namedview3055"
     showgrid="false"
     fit-margin-left="1"
     fit-margin-top="1"
     fit-margin-right="1"
     fit-margin-bottom="1"
     inkscape:zoom="6.675088"
     inkscape:cx="34.200094"
     inkscape:cy="28.575478"
     inkscape:window-x="65"
     inkscape:window-y="24"
     inkscape:window-maximized="1"
     inkscape:current-layer="Layer_1" /><path
     d="m 57.041166,-4.9 h -17.907 c -0.436,-2.139 -2.327,-3.75 -4.592,-3.75 h -11.25 c -2.265,0 -4.157,1.611 -4.592,3.75 H 0.79116665 c -1.55099999,0 -2.81199995,1.262 -2.81199995,2.812 0,1.24000001 0.811,2.28300002 1.92799995,2.65500002 L 3.6061667,52.353 l 0,0 v 0.002 c 0.176,2.459 2.364,4.62 4.684,4.622 0.002,0 0.002,0 0.002,0 0.003,0 0.005,-0.002 0.009,-0.002 H 49.532166 c 0.004,0 0.006,0.002 0.009,0.002 0,0 0,0 0.002,0 2.32,-0.002 4.508,-2.163 4.684,-4.622 v -0.002 l 0,0 3.699,-51.78599998 c 1.117,-0.372 1.928,-1.41600001 1.928,-2.65500002 0,-1.55 -1.262,-2.812 -2.813,-2.812 z m -33.75,-1.874 h 11.25 c 1.221,0 2.252,0.787 2.64,1.875 h -16.53 c 0.388,-1.088 1.419,-1.875 2.64,-1.875 z m 29.065,58.996 0,0 c 0,0.002 0,0.002 0,0.002 -0.104,1.474 -1.47,2.871 -2.809,2.876 -0.002,0 -0.003,0 -0.005,0 H 8.2921667 c -0.002,0 -0.003,0 -0.005,0 -1.339,-0.005 -2.705,-1.402 -2.809,-2.876 0,0 0,0 0,-0.002 l 0,0 -3.678,-51.49699998 H 56.035166 L 52.356166,52.222 z m 4.685,-53.372 H 0.79116665 c -0.516,0 -0.938,-0.421 -0.938,-0.938 0,-0.517 0.421,-0.938 0.938,-0.938 H 57.041166 c 0.516,0 0.938,0.421 0.938,0.938 0,0.517 -0.422,0.938 -0.938,0.938 z"
     id="path3049"
     inkscape:connector-curvature="0"
     style="fill:#460008;fill-opacity:1;stroke:#460008;stroke-opacity:1;stroke-width:1.00035001;stroke-miterlimit:4;stroke-dasharray:none" /></svg>