<?xml version="1.0" encoding="UTF-8" standalone="no"?>
<svg
   xmlns:dc="http://purl.org/dc/elements/1.1/"
   xmlns:cc="http://creativecommons.org/ns#"
   xmlns:rdf="http://www.w3.org/1999/02/22-rdf-syntax-ns#"
   xmlns:svg="http://www.w3.org/2000/svg"
   xmlns="http://www.w3.org/2000/svg"
   xmlns:sodipodi="http://sodipodi.sourceforge.net/DTD/sodipodi-0.dtd"
   xmlns:inkscape="http://www.inkscape.org/namespaces/inkscape"
   version="1.1"
   id="Ebene_1"
   x="0px"
   y="0px"
   width="37.90313"
   height="52.453941"
   viewBox="25.6 -51.2 194.06402 362.56164"
   enable-background="new 0 0 512 512"
   xml:space="preserve"
   inkscape:version="0.48.4 r9939"
   sodipodi:docname="flag.svg"><metadata
     id="metadata3272"><rdf:RDF><cc:Work
         rdf:about=""><dc:format>image/svg+xml</dc:format><dc:type
           rdf:resource="http://purl.org/dc/dcmitype/StillImage" /><dc:title /></cc:Work></rdf:RDF></metadata><defs
     id="defs3270" /><sodipodi:namedview
     pagecolor="#ffffff"
     bordercolor="#666666"
     borderopacity="1"
     objecttolerance="10"
     gridtolerance="10"
     guidetolerance="10"
     inkscape:pageopacity="0"
     inkscape:pageshadow="2"
     inkscape:window-width="1301"
     inkscape:window-height="744"
     id="namedview3268"
     showgrid="false"
     fit-margin-top="1"
     fit-margin-right="1"
     fit-margin-left="1"
     fit-margin-bottom="1"
     inkscape:zoom="13.350176"
     inkscape:cx="18.920585"
     inkscape:cy="31.394387"
     inkscape:window-x="65"
     inkscape:window-y="24"
     inkscape:window-maximized="1"
     inkscape:current-layer="Ebene_1" /><path
     style="fill:#d40a00;fill-opacity:1;stroke:#d40a00;stroke-opacity:1"
     d="m 2.6077874,14.39776 0,-11.8350497 15.5803186,0 c 8.569176,0 15.580319,0.070129 15.580319,0.1558429 0,0.085714 -1.644985,2.6137703 -3.655524,5.6179035 -2.010538,3.0041333 -3.654815,5.6643053 -3.653948,5.9114923 8.69e-4,0.247188 1.645852,2.965433 3.655524,6.040545 2.00967,3.075111 3.653948,5.670583 3.653948,5.767714 0,0.09713 -7.011143,0.176602 -15.580319,0.176602 l -15.5803186,0 0,-11.83505 z"
     id="path3339"
     inkscape:connector-curvature="0"
     transform="matrix(6.912,0,0,6.912,-8.3612049,-51.2)" /><g
     id="g3310"
     transform="translate(55.638794,-2.091503e-7)"><g
       transform="matrix(0.70658601,0,0,0.88963686,-141.87832,-94.107664)"
       id="g3252"><g
         id="g3254"><rect
           id="rect3256"
           height="384"
           width="13.069028"
           y="64"
           x="120" /></g></g><g
       transform="matrix(0.88963686,0,0,0.88963686,-163.84442,-94.107664)"
       id="g3258"><g
         id="g3260"><path
           sodipodi:nodetypes="cccccccccccc"
           inkscape:connector-curvature="0"
           id="path3262"
           d="M 398.948,264 120,264 120,56 398.948,56 329.615,160 z m -266.43985,-11.3442 245.85544,0 -60.9949,-93.81975 60.9949,-91.491846 -249.34728,-1.163949 z" /></g></g></g></svg>