<?xml version="1.0" encoding="UTF-8" standalone="no"?>
<svg
   xmlns:sketch="http://www.bohemiancoding.com/sketch/ns"
   xmlns:dc="http://purl.org/dc/elements/1.1/"
   xmlns:cc="http://creativecommons.org/ns#"
   xmlns:rdf="http://www.w3.org/1999/02/22-rdf-syntax-ns#"
   xmlns:svg="http://www.w3.org/2000/svg"
   xmlns="http://www.w3.org/2000/svg"
   xmlns:sodipodi="http://sodipodi.sourceforge.net/DTD/sodipodi-0.dtd"
   xmlns:inkscape="http://www.inkscape.org/namespaces/inkscape"
   width="75.506462"
   height="51.024002"
   viewBox="5.9 -8 89.097625 81.281238"
   version="1.1"
   id="svg3044"
   inkscape:version="0.48.4 r9939"
   sodipodi:docname="noun_82416_cc.svg">
  <metadata
     id="metadata3063">
    <rdf:RDF>
      <cc:Work
         rdf:about="">
        <dc:format>image/svg+xml</dc:format>
        <dc:type
           rdf:resource="http://purl.org/dc/dcmitype/StillImage" />
      </cc:Work>
    </rdf:RDF>
  </metadata>
  <sodipodi:namedview
     pagecolor="#ffffff"
     bordercolor="#666666"
     borderopacity="1"
     objecttolerance="10"
     gridtolerance="10"
     guidetolerance="10"
     inkscape:pageopacity="0"
     inkscape:pageshadow="2"
     inkscape:window-width="640"
     inkscape:window-height="480"
     id="namedview3061"
     showgrid="false"
     fit-margin-top="1"
     fit-margin-left="1"
     fit-margin-right="1"
     fit-margin-bottom="1"
     inkscape:zoom="2.1708178"
     inkscape:cx="-23.055931"
     inkscape:cy="25.239849"
     inkscape:window-x="549"
     inkscape:window-y="136"
     inkscape:window-maximized="0"
     inkscape:current-layer="svg3044" />
  <!-- Generator: Sketch 3.1.1 (8761) - http://www.bohemiancoding.com/sketch -->
  <title
     id="title3046">preview</title>
  <desc
     id="desc3048">Created with Sketch.</desc>
  <defs
     id="defs3050" />
  <g
     id="Page-1"
     sketch:type="MSPage"
     transform="translate(-8.1484494,-7.3593809)"
     style="fill:none;stroke:none">
    <g
       id="preview"
       sketch:type="MSLayerGroup"
       transform="translate(0,1)"
       style="fill:#000000">
      <path
         d="m 115.81026,35.376381 c -2.9079,-4.185905 -9.16478,-12.3 -18.446647,-19.637048 -0.585484,-0.460762 -1.315387,-0.714571 -2.060903,-0.714571 -0.889936,0 -1.725226,0.347524 -2.349742,0.972286 -0.667452,0.667714 -1.018742,1.593142 -0.964097,2.53419 0.05464,0.952762 0.519129,1.839143 1.268548,2.432667 8.583191,6.790381 14.391191,14.326571 17.092221,18.219619 0.20297,0.292857 0.20297,0.671619 0,0.968381 C 105.26374,47.481143 86.524355,71.39 58.924645,71.39 c -5.398161,0 -10.811935,-0.898095 -16.089097,-2.666952 -0.335677,-0.113239 -0.683064,-0.167905 -1.038258,-0.167905 -0.874322,0 -1.733032,0.355333 -2.357548,0.980095 -0.827484,0.82781 -1.159258,1.999238 -0.889935,3.139429 0.269322,1.136285 1.085096,2.030476 2.189709,2.397524 5.917291,1.975809 12.033645,2.975428 18.185129,2.975428 30.823774,0 51.331325,-26.095524 56.885615,-34.092476 1.77987,-2.565429 1.77987,-6.013334 0,-8.578762"
         id="Fill-1"
         sketch:type="MSShapeGroup"
         inkscape:connector-curvature="0" />
      <path
         d="m 50.942548,58.691714 1.010936,0.347524 c 2.162387,0.738 4.418451,1.112857 6.705742,1.112857 0.936774,0 1.889161,-0.06248 2.829838,-0.187428 9.176484,-1.241715 16.448194,-8.520191 17.68942,-17.700286 0.437161,-3.252667 0.124903,-6.458476 -0.925065,-9.539333 L 77.906032,31.717619 50.942548,58.691714"
         id="Fill-2"
         sketch:type="MSShapeGroup"
         inkscape:connector-curvature="0" />
      <path
         d="m 90.337806,0.83095238 c -1.170967,-1.17142857 -3.067935,-1.17142857 -4.235,0 L 81.032516,5.8993333 80.372871,5.626 C 73.382193,2.7481905 66.165129,1.2878095 58.924645,1.2878095 c -13.477839,0 -26.440451,4.7286667 -38.528742,14.0571425 -9.555097,7.376096 -16.011032,15.716667 -19.0087094,20.027524 -1.78377425,2.569333 -1.78377425,6.021143 0,8.586572 2.9976774,4.314761 9.4536124,12.651428 19.0087094,20.027523 0.284936,0.222572 0.569871,0.429524 0.854807,0.640381 l 0.624516,0.460762 -6.104645,6.107048 c -1.170968,1.171429 -1.170968,3.069143 0,4.236667 0.585483,0.585714 1.350516,0.878571 2.115548,0.878571 0.768936,0 1.533968,-0.292857 2.119452,-0.878571 L 90.337806,5.067619 c 1.167065,-1.1714285 1.167065,-3.0691428 0,-4.23666662 l 0,0 z M 26.223419,60.015429 C 16.075032,52.651048 9.295129,43.677905 6.8478064,40.159714 c -0.2107741,-0.304571 -0.2107741,-0.683333 0,-0.987904 C 11.941516,31.846476 30.743355,7.9415238 58.924645,7.9415238 c 5.659678,0 11.331065,1.0230476 16.858032,3.0379052 l 0.128807,0.04686 -9.281871,9.285523 -0.195161,-0.082 c -2.478549,-1.003524 -5.09371,-1.515048 -7.775226,-1.515048 -11.420839,0 -20.710516,9.293333 -20.710516,20.718667 0,2.682571 0.511322,5.302666 1.514451,7.78219 l 0.08197,0.195238 L 26.641064,60.32 l -0.417645,-0.304571 0,0 z"
         id="Fill-3"
         sketch:type="MSShapeGroup"
         inkscape:connector-curvature="0" />
    </g>
  </g>
</svg>
