<?xml version="1.0" encoding="UTF-8" standalone="no"?>
<svg
   xmlns:dc="http://purl.org/dc/elements/1.1/"
   xmlns:cc="http://creativecommons.org/ns#"
   xmlns:rdf="http://www.w3.org/1999/02/22-rdf-syntax-ns#"
   xmlns:svg="http://www.w3.org/2000/svg"
   xmlns="http://www.w3.org/2000/svg"
   xmlns:sodipodi="http://sodipodi.sourceforge.net/DTD/sodipodi-0.dtd"
   xmlns:inkscape="http://www.inkscape.org/namespaces/inkscape"
   version="1.1"
   id="Your_Icon"
   x="0px"
   y="0px"
   width="56.794861"
   height="47.298363"
   viewBox="5 -10 56.794861 63.85279"
   enable-background="new 0 0 100 100"
   xml:space="preserve"
   inkscape:version="0.48.4 r9939"
   sodipodi:docname="unread.svg"><metadata
     id="metadata3100"><rdf:RDF><cc:Work
         rdf:about=""><dc:format>image/svg+xml</dc:format><dc:type
           rdf:resource="http://purl.org/dc/dcmitype/StillImage" /><dc:title></dc:title></cc:Work></rdf:RDF></metadata><defs
     id="defs3098" /><sodipodi:namedview
     pagecolor="#ffffff"
     bordercolor="#666666"
     borderopacity="1"
     objecttolerance="10"
     gridtolerance="10"
     guidetolerance="10"
     inkscape:pageopacity="0"
     inkscape:pageshadow="2"
     inkscape:window-width="980"
     inkscape:window-height="695"
     id="namedview3096"
     showgrid="false"
     fit-margin-top="1"
     fit-margin-right="1"
     fit-margin-bottom="1"
     fit-margin-left="1"
     inkscape:zoom="4.72"
     inkscape:cx="57.216392"
     inkscape:cy="24.044701"
     inkscape:window-x="113"
     inkscape:window-y="106"
     inkscape:window-maximized="0"
     inkscape:current-layer="Your_Icon" /><path
     style="fill:#90000f;fill-opacity:1;stroke:#90000f;stroke-width:2.00000001;stroke-linecap:round;stroke-miterlimit:4;stroke-opacity:1;stroke-dasharray:none;stroke-dashoffset:0"
     d="m 19.766534,21.34434 c -1.509841,-1.794345 -1.87454,-1.886575 -3.725668,-0.9422 l -1.709447,0.872095 -0.0065,-7.741663 C 14.321362,9.2746581 14.178353,5.5839359 14.007134,5.3309677 13.835914,5.0779996 13.31447,4.6617972 12.848368,4.4060736 12.07892,3.9839206 12.067783,3.9153548 12.727381,3.6612044 c 1.030565,-0.3970882 6.237461,1.4279973 7.405021,2.5955571 0.950106,0.9501064 0.978678,1.2019093 0.978678,8.6250575 0,4.205508 -0.07839,7.646379 -0.174197,7.646379 -0.09581,0 -0.622466,-0.532736 -1.170349,-1.183858 z"
     id="path3091"
     inkscape:connector-curvature="0"
     transform="matrix(1.35,0,0,1.35,-4.9391008,-10)" /><g
     id="g3088"
     transform="matrix(0.73973064,0,0,0.73973064,-3.5891007,-15.552427)"><path
       d="m 94.425,23.535 c -0.177,0 -1.425,0.004 -2.425,0.06 v -2.38 c 0,-2.882 -1.72,-5.055 -4.305,-5.055 -0.293,0 -0.475,0.029 -0.771,0.088 C 86.715,16.289 66.441,20.436 50.525,33.166 47.445,30.702 44,28.56 41,26.707 V 24.195 C 41,19.758 40.461,15.227 33.662,12.857 L 24.975,9.823 c -0.906,-0.327 -1.792,-0.492 -2.65,-0.492 -4.078,0 -6.511,3.691 -6.511,7.26 0,0.012 0.002,0.022 0.004,0.034 -1.017,-0.25 -1.603,-0.37 -1.638,-0.376 C 13.886,16.191 13.208,16.162 12.915,16.162 10.332,16.16 8,18.333 8,21.214 v 2.38 C 7,23.539 5.753,23.534 5.575,23.534 2.502,23.534 0,26.034 0,29.107 v 43.871 c 0,2.715 3,4.981 5,5.473 v 4.79 C 5,86.315 7.793,89 10.867,89 h 31.475 c 0.887,1 2.815,3 5.053,3 h 6.438 c 2.236,0 4.165,-2 5.052,-3 H 91.566 C 94.64,89 97,86.315 97,83.242 v -5.168 c 2,-0.869 3,-2.824 3,-5.095 V 29.108 c 0,-3.073 -2.501,-5.573 -5.575,-5.573 z M 91.564,85 H 60.619 C 73.805,80 87,78.757 92,78.591 v 4.65 C 92,83.942 92.266,85 91.564,85 z M 9,83.242 V 78.638 C 16,78.9 28.327,80 40.607,85 H 10.867 C 10.167,85 9,83.942 9,83.242 z M 5,29.108 c 0,-0.7 0.223,-1.27 0.924,-1.27 0.045,0 1.076,0.004 2.076,0.073 v 37.176 c 0,2.91 2.394,5.588 4.964,6.099 1.326,0.263 9.451,1.946 18.808,6.257 C 19.05,74.385 7.982,74.25 6.21,74.25 5.51,74.25 5,73.68 5,72.979 V 29.108 z m 8.061,-8.639 C 13.137,20.484 16,21.056 20,22.414 v 27.95 c 0,0.692 0.613,1.333 1.209,1.684 0.598,0.352 1.459,0.363 2.063,0.029 l 6.883,-3.759 7.417,8.824 c 0.379,0.453 0.947,0.701 1.515,0.701 0.223,0 0.428,-0.039 0.646,-0.118 C 40.507,57.444 41,56.709 41,55.886 V 31.704 c 2,1.556 5,3.301 8,5.254 V 37.25 82.185 C 34,71.062 16.488,67.373 14.418,66.963 13.971,66.874 13,66.046 13,65.086 V 21.214 c 0,-0.48 -0.047,-0.72 0.061,-0.745 z m 9.271,-7.227 c 0.404,0 0.853,0.087 1.35,0.267 l 8.647,3.042 C 36.415,17.975 37,19.97 37,24.194 v 26.309 l -4.893,-5.931 c -0.381,-0.457 -0.898,-0.701 -1.463,-0.701 -0.32,0 -0.832,0.08 -1.129,0.243 L 24,47.052 V 21.303 c 0,-1.699 0.205,-5.676 -3.932,-5.676 -0.148,0 -0.196,0.018 -0.339,0.05 0.256,-1.169 1.116,-2.435 2.603,-2.435 z M 88,65.086 c 0,0.996 -0.475,1.788 -0.92,1.877 C 85.012,67.373 68,71.064 53,82.186 V 37.25 36.958 C 68,24.54 87.719,20.508 87.967,20.461 88.029,20.494 88,20.733 88,21.214 v 43.872 z m 6.809,9.164 c -1.773,0 -12.861,0.133 -25.582,3.191 9.354,-4.311 17.074,-5.994 18.4,-6.256 C 90.198,70.676 92,67.997 92,65.086 V 27.911 c 1,-0.068 2.532,-0.072 2.577,-0.072 0.701,0 1.423,0.569 1.423,1.27 V 72.98 c 0,0.7 -0.491,1.27 -1.191,1.27 z"
       id="path3090"
       inkscape:connector-curvature="0"
       style="fill:#000000" /></g><g
     id="g3909"
     transform="matrix(0.5477605,0,0,0.5477605,-18.248382,2.2366022)"><path
       inkscape:connector-curvature="0"
       id="path4216"
       d="m 111.71073,49.471654 c -0.27421,-0.71457 0.10323,-6.205662 0.64245,-9.346731 l 0.54261,-3.160766 -3.31609,-3.398827 c -3.47286,-3.559507 -5.26263,-5.864358 -5.0282,-6.475282 0.25169,-0.655893 4.61597,-1.781456 9.70288,-2.502408 l 2.7431,-0.388772 1.82994,-3.530485 c 2.00438,-3.867038 3.45829,-6.221505 4.37175,-7.079657 0.56629,-0.532001 0.61108,-0.537852 1.05334,-0.137605 0.8407,0.760813 2.63462,3.645495 4.41417,7.098109 0.96544,1.873099 1.90132,3.477902 2.07973,3.566228 0.1784,0.08833 2.09547,0.43979 4.26013,0.781033 4.30256,0.678265 6.8189,1.342674 7.65776,2.02194 l 0.54157,0.438538 -1.11528,1.562924 c -0.6134,0.859609 -2.52565,3.023371 -4.24944,4.808361 l -3.13416,3.245435 0.13299,1.009224 c 0.0731,0.555073 0.35926,2.495023 0.63581,4.311004 0.3037,1.994338 0.47565,4.119543 0.43421,5.366939 l -0.0686,2.065158 -0.98528,-0.04233 c -1.17422,-0.05045 -4.67952,-1.492133 -8.35805,-3.437551 l -2.66446,-1.409124 -4.0842,2.008614 c -5.6149,2.761416 -7.72253,3.449923 -8.03869,2.626033 l 0,0 z m 14.04101,-8.472405 c 2.92896,-0.599979 5.73733,-3.87873 4.43648,-5.179571 -0.40744,-0.407444 -12.37779,-0.407444 -12.78524,0 -0.77417,0.774172 0.2242,2.992596 1.85555,4.123127 1.72544,1.195722 4.00372,1.566399 6.49321,1.056444 z m -6.77513,-6.719428 c 0.45183,-0.544428 0.58561,-1.603218 0.29209,-2.311829 -0.36499,-0.881177 -0.87519,-1.076607 -1.58924,-0.608748 -1.04128,0.682277 -0.65522,3.220075 0.48986,3.220075 0.3073,0 0.67059,-0.134774 0.80729,-0.299498 z m 11.06164,-0.09527 c 0.60593,-0.548358 0.58278,-2.08251 -0.0409,-2.706132 -0.26237,-0.262383 -0.58439,-0.477062 -0.71558,-0.477062 -0.13119,0 -0.45321,0.214679 -0.7156,0.477062 -0.57585,0.575856 -0.62728,1.826156 -0.10574,2.570763 0.44141,0.6302 0.97995,0.676405 1.57778,0.135369 l 0,0 z"
       style="fill:#ffdc54;fill-opacity:1;stroke:#ffdc54;stroke-width:1.59221292;stroke-linecap:round;stroke-miterlimit:4;stroke-opacity:1;stroke-dasharray:none;stroke-dashoffset:0" /><ellipse
       transform="matrix(0.58970849,0,0,0.58970849,94.283072,2.8087735)"
       style="fill:#000000"
       sodipodi:ry="2.812"
       sodipodi:rx="1.875"
       sodipodi:cy="50.938"
       sodipodi:cx="40.625"
       id="ellipse3043"
       ry="2.812"
       rx="1.875"
       cy="50.938"
       cx="40.625"
       d="m 42.5,50.938 c 0,1.553024 -0.839466,2.812 -1.875,2.812 -1.035534,0 -1.875,-1.258976 -1.875,-2.812 0,-1.553025 0.839466,-2.812 1.875,-2.812 1.035534,0 1.875,1.258975 1.875,2.812 z" /><ellipse
       transform="matrix(0.58970849,0,0,0.58970849,94.283072,2.8087735)"
       style="fill:#000000"
       sodipodi:ry="2.812"
       sodipodi:rx="1.875"
       sodipodi:cy="50.938"
       sodipodi:cx="59.375"
       id="ellipse3045"
       ry="2.812"
       rx="1.875"
       cy="50.938"
       cx="59.375"
       d="m 61.25,50.938 c 0,1.553024 -0.839466,2.812 -1.875,2.812 -1.035534,0 -1.875,-1.258976 -1.875,-2.812 0,-1.553025 0.839466,-2.812 1.875,-2.812 1.035534,0 1.875,1.258975 1.875,2.812 z" /><path
       style="fill:#000000"
       inkscape:connector-curvature="0"
       id="path3047"
       d="m 129.29702,35.611308 h -11.05704 c -0.34557,0 -0.6705,0.16158 -0.87985,0.436384 -0.20875,0.275394 -0.27775,0.632758 -0.18457,0.965353 0.046,0.168067 1.20831,4.126781 6.59294,4.126781 5.38581,0 6.54694,-3.958714 6.59412,-4.126781 0.092,-0.332595 0.0242,-0.689959 -0.18576,-0.965353 -0.20816,-0.274804 -0.53427,-0.436384 -0.87984,-0.436384 z" /><path
       style="fill:#000000"
       inkscape:connector-curvature="0"
       id="path3049"
       d="m 131.29377,23.046979 c -1.35279,-2.982156 -5.28792,-11.20682 -7.5241,-11.20682 -2.23735,0 -6.17189,8.223484 -7.52408,11.20564 -3.25638,0.373875 -12.30073,1.595162 -12.98244,3.691576 -0.6817,2.098182 5.91832,8.402166 8.33258,10.616521 -0.65103,3.212733 -2.28511,12.193403 -0.50125,13.488993 0.25181,0.18222 0.58086,0.270676 1.00958,0.270676 2.74038,0 10.11999,-4.051297 11.66385,-4.9164 1.54326,0.865103 8.92229,4.91699 11.66384,4.91699 0.42754,0 0.75778,-0.08964 1.00959,-0.271856 1.78386,-1.297948 0.1486,-10.27626 -0.50361,-13.487813 2.41544,-2.215535 9.0184,-8.521877 8.33611,-10.617701 -0.67935,-2.094055 -9.7237,-3.316521 -12.98007,-3.689806 z m 3.6674,13.702467 c -0.1433,0.132094 -0.20817,0.330826 -0.16807,0.521891 1.1629,5.626999 1.84225,12.063668 0.99838,12.677553 -0.003,0.0023 -0.0861,0.06075 -0.35914,0.06075 -2.2515,0 -8.98479,-3.556532 -11.39081,-4.927015 -0.0843,-0.04895 -0.17926,-0.07253 -0.27303,-0.07253 -0.0938,0 -0.18871,0.02358 -0.27304,0.07253 -2.40601,1.370483 -9.1393,4.926425 -11.3908,4.926425 -0.21938,0 -0.32907,-0.03774 -0.35914,-0.05956 -0.76426,-0.554916 -0.30783,-6.361776 0.99661,-12.678733 0.0401,-0.192245 -0.0248,-0.389798 -0.16866,-0.521303 -4.24767,-3.867904 -8.58026,-8.676976 -8.25828,-9.669457 0.32198,-0.9913 6.65486,-2.335835 12.3656,-2.969771 0.19578,-0.02182 0.36385,-0.145069 0.44346,-0.322571 2.35058,-5.236022 5.58159,-10.841201 6.64542,-10.841201 1.06267,0 4.29308,5.605179 6.64485,10.842381 0.0802,0.178092 0.24826,0.301341 0.44346,0.32257 5.71132,0.633937 12.04302,1.977883 12.365,2.969183 0.2925,0.896946 -3.49107,5.324477 -8.26181,9.66886 z" /></g></svg>