<?xml version="1.0" encoding="UTF-8" standalone="no"?>
<svg
   xmlns:dc="http://purl.org/dc/elements/1.1/"
   xmlns:cc="http://creativecommons.org/ns#"
   xmlns:rdf="http://www.w3.org/1999/02/22-rdf-syntax-ns#"
   xmlns:svg="http://www.w3.org/2000/svg"
   xmlns="http://www.w3.org/2000/svg"
   xmlns:sodipodi="http://sodipodi.sourceforge.net/DTD/sodipodi-0.dtd"
   xmlns:inkscape="http://www.inkscape.org/namespaces/inkscape"
   version="1.1"
   x="0px"
   y="0px"
   width="38.738972"
   height="47.263"
   viewBox="5 -10 38.738972 63.805051"
   enable-background="new 0 0 100 100"
   xml:space="preserve"
   id="svg3043"
   inkscape:version="0.48.4 r9939"
   sodipodi:docname="noun_10777_cc.svg"><metadata
     id="metadata3061"><rdf:RDF><cc:Work
         rdf:about=""><dc:format>image/svg+xml</dc:format><dc:type
           rdf:resource="http://purl.org/dc/dcmitype/StillImage" /></cc:Work></rdf:RDF></metadata><defs
     id="defs3059" /><sodipodi:namedview
     pagecolor="#ffffff"
     bordercolor="#666666"
     borderopacity="1"
     objecttolerance="10"
     gridtolerance="10"
     guidetolerance="10"
     inkscape:pageopacity="0"
     inkscape:pageshadow="2"
     inkscape:window-width="640"
     inkscape:window-height="480"
     id="namedview3057"
     showgrid="false"
     fit-margin-top="1"
     fit-margin-right="1"
     fit-margin-bottom="1"
     fit-margin-left="1"
     inkscape:zoom="2.36"
     inkscape:cx="15.254197"
     inkscape:cy="20.085975"
     inkscape:window-x="280"
     inkscape:window-y="43"
     inkscape:window-maximized="0"
     inkscape:current-layer="svg3043" /><g
     id="Captions"
     transform="translate(-41.786017,-30.811017)" /><g
     id="Your_Icon"
     transform="matrix(0.67894499,0,0,0.67894499,-9.4301399,-11.472691)"><path
       d="M 78.929,5 H 78.46 76.346 73.165 29.624 26.4 21.392 c -4.367,0 -7.917,3.55 -7.917,7.916 v 72.437 c 0,0.966 0,2.727 0,2.727 0.331,3.858 4.502,6.92 9.003,6.92 h 6.95 1.976 44.34 c 4.113,0 7.471,-3.354 7.471,-7.467 V 85.352 74.629 c 1.913,-1.35 3.311,-3.573 3.311,-6.094 V 66.348 12.916 C 86.524,8.731 83.114,5 78.929,5 z M 16.7,12.916 c 0,-0.855 0.253,-1.636 0.65,-2.324 0.449,-0.789 1.124,-1.43 1.937,-1.842 0.637,-0.32 1.345,-0.526 2.105,-0.526 H 22.257 26.4 V 8.798 9.96 73.538 c -1.139,0.904 -2.053,2.052 -2.698,3.367 -0.654,1.344 -0.99,2.793 -0.99,4.296 0,1.506 0.336,2.95 0.99,4.295 0.655,1.349 1.583,2.473 2.698,3.367 l 1.679,1.182 h -5.821 -0.865 c -0.761,0 -1.469,-0.206 -2.105,-0.531 -1.521,-0.77 -2.587,-2.339 -2.587,-4.161 v -72.15 -0.287 z m 11.307,63.563 c 0.33,-0.32 0.68,-0.617 1.067,-0.856 0.043,-0.028 0.071,-0.071 0.119,-0.101 0.033,-0.019 0.076,-0.023 0.11,-0.043 0.038,-0.028 0.086,-0.038 0.124,-0.057 0.067,-0.029 0.134,-0.048 0.196,-0.081 0.201,-0.101 0.406,-0.178 0.607,-0.254 0.119,-0.048 0.239,-0.11 0.363,-0.158 0.105,-0.024 0.21,-0.067 0.316,-0.095 0.157,-0.039 0.324,-0.039 0.492,-0.062 0.114,-0.029 0.234,-0.039 0.354,-0.049 0.043,-0.004 0.087,-0.014 0.134,-0.019 0.211,-0.023 0.422,-0.086 0.632,-0.086 H 77.655 V 74.834 76 82.983 c 0,2.649 -2.152,4.803 -4.807,4.803 H 32.522 c -0.215,0 -0.421,-0.067 -0.632,-0.091 -0.047,-0.005 -0.091,-0.01 -0.134,-0.015 -0.119,-0.02 -0.239,-0.033 -0.354,-0.053 -0.277,-0.048 -0.55,-0.062 -0.809,-0.144 -0.124,-0.033 -0.234,-0.109 -0.363,-0.152 -0.206,-0.082 -0.406,-0.178 -0.607,-0.277 -0.062,-0.029 -0.129,-0.058 -0.196,-0.087 -0.038,-0.023 -0.086,-0.033 -0.124,-0.053 -0.072,-0.047 -0.163,-0.062 -0.229,-0.109 -0.388,-0.239 -0.732,-0.55 -1.067,-0.87 -0.55,-0.536 -1.047,-1.124 -1.4,-1.852 -0.092,-0.191 -0.135,-0.393 -0.206,-0.594 -0.283,-0.731 -0.454,-1.487 -0.454,-2.29 0,-0.795 0.171,-1.555 0.454,-2.287 0.071,-0.196 0.114,-0.401 0.206,-0.598 0.348,-0.701 0.845,-1.298 1.4,-1.835 z M 31.403,8.224 h 0.354 0.134 41.274 3.181 c 0.411,0 0.804,0.076 1.186,0.178 0.354,0.095 0.689,0.229 1.005,0.396 0.393,0.211 0.761,0.459 1.071,0.766 0.168,0.162 0.315,0.345 0.455,0.54 0.272,0.35 0.497,0.751 0.655,1.187 0.191,0.512 0.315,1.053 0.315,1.626 V 66.35 c 0,0.383 -0.058,0.747 -0.153,1.104 -0.225,0.934 -0.727,1.747 -1.42,2.368 -0.46,0.411 -1.005,0.742 -1.612,0.947 -0.469,0.158 -0.967,0.269 -1.502,0.269 H 31.891 31.757 31.403 30.594 30.231 29.624 V 8.798 8.224 h 0.971 0.808 z"
       id="path3047"
       inkscape:connector-curvature="0" /><path
       d="M 72.921,80.177 H 29.974 c -0.536,0 -0.967,-0.431 -0.967,-0.966 0,-0.531 0.431,-0.967 0.967,-0.967 h 42.947 c 0.531,0 0.967,0.436 0.967,0.967 0,0.535 -0.436,0.966 -0.967,0.966 z"
       id="path3049"
       inkscape:connector-curvature="0" /><path
       d="M 72.921,84.219 H 32.557 c -0.536,0 -0.967,-0.435 -0.967,-0.971 0,-0.536 0.431,-0.972 0.967,-0.972 h 40.364 c 0.531,0 0.967,0.436 0.967,0.972 0,0.536 -0.436,0.971 -0.967,0.971 z"
       id="path3051"
       inkscape:connector-curvature="0" /></g></svg>