<?xml version="1.0" encoding="UTF-8" standalone="no"?>
<svg
   xmlns:dc="http://purl.org/dc/elements/1.1/"
   xmlns:cc="http://creativecommons.org/ns#"
   xmlns:rdf="http://www.w3.org/1999/02/22-rdf-syntax-ns#"
   xmlns:svg="http://www.w3.org/2000/svg"
   xmlns="http://www.w3.org/2000/svg"
   xmlns:sodipodi="http://sodipodi.sourceforge.net/DTD/sodipodi-0.dtd"
   xmlns:inkscape="http://www.inkscape.org/namespaces/inkscape"
   version="1.1"
   id="Layer_1"
   x="0px"
   y="0px"
   width="53.638172"
   height="51.332592"
   viewBox="5 -10 53.638172 69.298999"
   enable-background="new 0 0 100 100"
   xml:space="preserve"
   inkscape:version="0.48.4 r9939"
   sodipodi:docname="noun_47901_cc.svg"><metadata
     id="metadata3078"><rdf:RDF><cc:Work
         rdf:about=""><dc:format>image/svg+xml</dc:format><dc:type
           rdf:resource="http://purl.org/dc/dcmitype/StillImage" /><dc:title></dc:title></cc:Work></rdf:RDF></metadata><defs
     id="defs3076" /><sodipodi:namedview
     pagecolor="#ffffff"
     bordercolor="#666666"
     borderopacity="1"
     objecttolerance="10"
     gridtolerance="10"
     guidetolerance="10"
     inkscape:pageopacity="0"
     inkscape:pageshadow="2"
     inkscape:window-width="640"
     inkscape:window-height="480"
     id="namedview3074"
     showgrid="false"
     fit-margin-top="1"
     fit-margin-right="1"
     fit-margin-bottom="1"
     fit-margin-left="1"
     inkscape:zoom="2.36"
     inkscape:cx="29.986637"
     inkscape:cy="19.508174"
     inkscape:window-x="75"
     inkscape:window-y="34"
     inkscape:window-maximized="0"
     inkscape:current-layer="Layer_1" /><ellipse
     cx="40.881001"
     cy="50.938"
     rx="1.875"
     ry="2.812"
     id="ellipse3062"
     sodipodi:cx="40.881001"
     sodipodi:cy="50.938"
     sodipodi:rx="1.875"
     sodipodi:ry="2.812"
     style="fill:#000000"
     transform="translate(-18.437532,-23.965)" /><ellipse
     cx="59.631001"
     cy="50.938"
     rx="1.875"
     ry="2.812"
     id="ellipse3064"
     sodipodi:cx="59.631001"
     sodipodi:cy="50.938"
     sodipodi:rx="1.875"
     sodipodi:ry="2.812"
     style="fill:#000000"
     transform="translate(-18.437532,-23.965)" /><path
     d="m 44.579468,10.354 c -2.294,-5.057 -8.966,-19.004 -12.759,-19.004 -3.794,0 -10.466,13.945 -12.759,19.002 -5.522,0.634 -20.859,2.705 -22.0149995,6.26 -1.155,3.558 10.0359995,14.248 14.1309995,18.003 -1.104,5.448 -3.8749999,20.677 -0.85,22.874 0.426,0.309 0.984,0.459 1.712,0.459 4.647,0 17.16,-6.87 19.778,-8.337 2.617,1.467 15.131,8.338 19.779,8.338 0.726,0 1.285,-0.152 1.712,-0.461 3.025,-2.201 0.253,-17.426 -0.853,-22.872 4.096,-3.757 15.293,-14.451 14.136,-18.005 -1.153,-3.551 -16.49,-5.624 -22.012,-6.257 z m 6.22,23.236 c -0.244,0.224 -0.354,0.561 -0.286,0.885 1.973,9.542 3.124,20.457 1.694,21.498 -0.006,0.004 -0.146,0.103 -0.61,0.103 -3.817,0 -15.236,-6.031 -19.315,-8.355 -0.143,-0.083 -0.304,-0.123 -0.464,-0.123 -0.159,0 -0.32,0.04 -0.463,0.123 -4.079,2.324 -15.498,8.354 -19.315,8.354 -0.372,0 -0.559,-0.064 -0.61,-0.101 -1.296,-0.941 -0.521,-10.788 1.69,-21.5 0.067,-0.326 -0.042,-0.661 -0.286,-0.884 -7.203,-6.559 -14.549,-14.714 -14.004,-16.397 0.54600001,-1.681 11.285,-3.961 20.97,-5.036 0.331,-0.037 0.617,-0.246 0.753,-0.547 3.986,-8.879 9.465,-18.384 11.268,-18.384 1.802,0 7.28,9.505 11.269,18.386 0.136,0.302 0.421,0.511 0.753,0.547 9.685,1.075 20.422,3.354 20.967,5.035 0.494,1.521 -5.922,9.029 -14.011,16.396 z"
     id="path3066"
     inkscape:connector-curvature="0"
     style="fill:#000000" /><circle
     cx="50.256001"
     cy="59.375"
     r="3.75"
     id="circle3068"
     sodipodi:cx="50.256001"
     sodipodi:cy="59.375"
     sodipodi:rx="3.75"
     sodipodi:ry="3.75"
     style="fill:#000000"
     transform="translate(-18.437532,-23.965)" /></svg>