<?xml version="1.0" encoding="UTF-8" standalone="no"?>
<svg
   xmlns:dc="http://purl.org/dc/elements/1.1/"
   xmlns:cc="http://creativecommons.org/ns#"
   xmlns:rdf="http://www.w3.org/1999/02/22-rdf-syntax-ns#"
   xmlns:svg="http://www.w3.org/2000/svg"
   xmlns="http://www.w3.org/2000/svg"
   xmlns:sodipodi="http://sodipodi.sourceforge.net/DTD/sodipodi-0.dtd"
   xmlns:inkscape="http://www.inkscape.org/namespaces/inkscape"
   version="1.1"
   id="Layer_1"
   x="0px"
   y="0px"
   width="56.734879"
   height="54.336323"
   viewBox="5 -10 56.734878 73.354036"
   enable-background="new 0 0 100 100"
   xml:space="preserve"
   inkscape:version="0.48.4 r9939"
   sodipodi:docname="star-5.svg"><metadata
     id="metadata3059"><rdf:RDF><cc:Work
         rdf:about=""><dc:format>image/svg+xml</dc:format><dc:type
           rdf:resource="http://purl.org/dc/dcmitype/StillImage" /><dc:title></dc:title></cc:Work></rdf:RDF></metadata><defs
     id="defs3057" /><sodipodi:namedview
     pagecolor="#ffffff"
     bordercolor="#666666"
     borderopacity="1"
     objecttolerance="10"
     gridtolerance="10"
     guidetolerance="10"
     inkscape:pageopacity="0"
     inkscape:pageshadow="2"
     inkscape:window-width="847"
     inkscape:window-height="630"
     id="namedview3055"
     showgrid="false"
     fit-margin-top="1"
     fit-margin-left="1"
     fit-margin-right="1"
     fit-margin-bottom="1"
     inkscape:zoom="4.72"
     inkscape:cx="41.501891"
     inkscape:cy="13.758714"
     inkscape:window-x="468"
     inkscape:window-y="72"
     inkscape:window-maximized="0"
     inkscape:current-layer="Layer_1" /><path
     d="M 47.188736,11.800882 C 44.801556,6.5384828 37.857526,-7.975 33.911506,-7.975 c -3.9481,0 -10.8911,14.5114028 -13.27723,19.773801 -5.74629,0.659751 -21.7062276,2.814869 -22.9091806,6.514261 -1.202953,3.702514 10.44363,14.826708 14.7039206,18.734224 -1.148851,5.66928 -4.0324006,21.516832 -0.884531,23.803068 0.444341,0.32155 1.025011,0.477643 1.781541,0.477643 4.83574,0 17.85802,-7.149038 20.58236,-8.675624 2.72329,1.526586 15.74453,8.676664 20.58236,8.676664 0.75444,0 1.33719,-0.158173 1.78153,-0.479724 3.14787,-2.290397 0.26224,-18.133788 -0.88869,-23.800987 4.26237,-3.909597 15.91416,-15.037953 14.71016,-18.736304 -1.19879,-3.695232 -17.15873,-5.85243 -22.90501,-6.51114 z m 6.47159,24.179771 c -0.25287,0.233098 -0.36734,0.583785 -0.29657,0.920945 2.05209,9.929567 3.25088,21.287899 1.76176,22.371181 -0.005,0.0042 -0.15193,0.107188 -0.63373,0.107188 -3.97308,0 -15.85484,-6.275958 -20.10056,-8.694353 -0.14881,-0.08637 -0.31635,-0.127995 -0.4818,-0.127995 -0.16546,0 -0.333,0.04162 -0.48181,0.127995 -4.24572,2.418395 -16.12748,8.693313 -20.10055,8.693313 -0.38711,0 -0.58067,-0.0666 -0.63374,-0.105096 -1.348641,-0.979221 -0.5432,-11.226175 1.75864,-22.373261 0.0708,-0.339243 -0.0437,-0.687848 -0.29761,-0.919906 C 6.6587854,29.155246 -0.98662162,20.669019 -0.41844462,18.91766 0.14973238,17.168384 11.324915,14.795778 21.402246,13.677115 c 0.34549,-0.0385 0.64206,-0.255994 0.78255,-0.569219 4.14789,-9.2396362 9.84943,-19.1306982 11.72671,-19.1306982 1.87519,0 7.57569,9.891062 11.72567,19.1327802 0.14152,0.314267 0.4381,0.531754 0.78254,0.569218 10.07838,1.118662 21.25148,3.490229 21.81965,5.239505 0.51615,1.582778 -6.16045,9.395728 -14.57904,17.061952 z"
     id="path3049-5"
     inkscape:connector-curvature="0"
     style="fill:#460008;fill-opacity:1;stroke:#460008;stroke-width:1.35000002;stroke-miterlimit:4;stroke-opacity:1;stroke-dasharray:none" /></svg>