<?xml version="1.0" encoding="UTF-8" standalone="no"?>
<svg
   xmlns:dc="http://purl.org/dc/elements/1.1/"
   xmlns:cc="http://creativecommons.org/ns#"
   xmlns:rdf="http://www.w3.org/1999/02/22-rdf-syntax-ns#"
   xmlns:svg="http://www.w3.org/2000/svg"
   xmlns="http://www.w3.org/2000/svg"
   xmlns:sodipodi="http://sodipodi.sourceforge.net/DTD/sodipodi-0.dtd"
   xmlns:inkscape="http://www.inkscape.org/namespaces/inkscape"
   version="1.1"
   id="Layer_1"
   x="0px"
   y="0px"
   width="53.637432"
   height="51.332592"
   viewBox="5 -10 53.637432 69.298999"
   enable-background="new 0 0 100 100"
   xml:space="preserve"
   inkscape:version="0.48.4 r9939"
   sodipodi:docname="star-3-fill.svg"><metadata
     id="metadata3211"><rdf:RDF><cc:Work
         rdf:about=""><dc:format>image/svg+xml</dc:format><dc:type
           rdf:resource="http://purl.org/dc/dcmitype/StillImage" /><dc:title /></cc:Work></rdf:RDF></metadata><defs
     id="defs3209" /><sodipodi:namedview
     pagecolor="#ffffff"
     bordercolor="#666666"
     borderopacity="1"
     objecttolerance="10"
     gridtolerance="10"
     guidetolerance="10"
     inkscape:pageopacity="0"
     inkscape:pageshadow="2"
     inkscape:window-width="457"
     inkscape:window-height="383"
     id="namedview3207"
     showgrid="false"
     fit-margin-top="1"
     fit-margin-left="1"
     fit-margin-right="1"
     fit-margin-bottom="1"
     inkscape:zoom="4.72"
     inkscape:cx="40.246662"
     inkscape:cy="9.7057276"
     inkscape:window-x="383"
     inkscape:window-y="243"
     inkscape:window-maximized="0"
     inkscape:current-layer="Layer_1" /><path
     style="fill:#99dc54;fill-opacity:1;stroke:#99dc54;stroke-width:1.99999999;stroke-linecap:round;stroke-miterlimit:4;stroke-opacity:1;stroke-dasharray:none;stroke-dashoffset:0"
     d="m 11.827785,48.849147 c -0.958047,-0.385528 -0.559943,-6.869667 0.878862,-14.314534 0.164184,-0.84954 0.298812,-1.658518 0.299174,-1.797729 5.99e-4,-0.229069 -0.100784,-0.348454 -1.067402,-1.256963 -4.3333801,-4.072877 -8.2390701,-8.449851 -9.2040976,-10.31472 -0.3548925,-0.685813 -0.377161,-1.0054 -0.088684,-1.27275 1.0675454,-0.989369 6.8821115,-2.364377 13.7501896,-3.251599 0.937911,-0.12116 1.775421,-0.257822 1.861132,-0.303693 0.08571,-0.04587 0.272942,-0.341709 0.416068,-0.657418 1.519505,-3.35176 3.719275,-7.511868 5.204567,-9.8426471 1.629733,-2.5574446 2.555288,-3.5437449 3.135634,-3.341435 0.507788,0.1770159 1.685425,1.6307053 2.933723,3.621422 1.266189,2.01925 3.395368,6.0445081 4.749563,8.9791531 0.315023,0.682679 0.580049,1.157301 0.684411,1.225682 0.103085,0.06754 0.724795,0.179459 1.575011,0.283522 6.800094,0.832299 12.955211,2.285015 14.04498,3.314861 0.280628,0.265197 0.266802,0.563418 -0.05472,1.18026 -1.005081,1.928267 -4.686277,6.070887 -9.122676,10.26617 -1.373472,1.298824 -1.303768,1.115468 -0.997362,2.623578 0.999316,4.918566 1.694996,11.159131 1.484028,13.31242 -0.10669,1.088958 -0.268285,1.504494 -0.611788,1.573195 -1.369602,0.27392 -6.730955,-1.916631 -12.819738,-5.23791 -1.14195,-0.622904 -1.922632,-1.004559 -2.054848,-1.004559 -0.132799,0 -0.996689,0.424757 -2.290342,1.126113 -5.062117,2.744436 -9.53215,4.683792 -11.644897,5.052225 -0.734985,0.128169 -0.827058,0.131412 -1.06079,0.03736 l 0,0 z M 28.098597,36.967789 c 1.606534,-0.41103 3.033035,-1.838545 3.432897,-3.435339 0.345339,-1.379064 0.171615,-1.984993 -0.569112,-1.984993 -0.363961,0 -0.628097,0.248861 -0.686771,0.647053 -0.185762,1.260669 -0.431261,1.836091 -1.045348,2.450178 -1.363803,1.363803 -3.502299,1.353857 -4.838668,-0.0225 -0.621006,-0.63959 -0.878912,-1.236794 -1.016505,-2.353806 -0.05947,-0.482767 -0.290561,-0.720923 -0.699551,-0.720923 -0.671517,0 -0.875913,0.522794 -0.647939,1.657266 0.482208,2.399634 2.642336,4.070775 5.059774,3.914394 0.308985,-0.01999 0.764035,-0.08809 1.011223,-0.151328 l 0,0 z m -7.749853,-7.611314 c 0.876456,-0.441971 1.227789,-2.143527 0.666999,-3.230373 -0.225397,-0.436834 -0.419131,-0.623658 -0.795962,-0.767571 -0.594412,-0.227008 -1.160776,0.0874 -1.529492,0.849061 -0.238481,0.492636 -0.287768,1.488948 -0.102755,2.077152 0.216245,0.6875 0.762661,1.201314 1.311778,1.233512 0.06337,0.0037 0.265612,-0.06909 0.449432,-0.161781 z m 13.708153,0.09395 c 0.336671,-0.09353 0.689421,-0.45643 0.910432,-0.936632 0.251406,-0.546246 0.248519,-1.701257 -0.0057,-2.265261 -0.63519,-1.409423 -2.021452,-1.249957 -2.488047,0.286205 -0.355827,1.171486 0.0924,2.590081 0.91199,2.886347 0.324252,0.117211 0.35081,0.118372 0.671289,0.02934 l -10e-7,0 z"
     id="path7022"
     inkscape:connector-curvature="0"
     transform="matrix(1.35,0,0,1.35,-4.3865506,-10)" /><ellipse
     cx="40.881001"
     cy="50.938"
     rx="1.875"
     ry="2.812"
     id="ellipse3195"
     sodipodi:cx="40.881001"
     sodipodi:cy="50.938"
     sodipodi:rx="1.875"
     sodipodi:ry="2.812"
     style="fill:#000000"
     transform="translate(-18.437402,-23.965)" /><ellipse
     cx="59.631001"
     cy="50.938"
     rx="1.875"
     ry="2.812"
     id="ellipse3197"
     sodipodi:cx="59.631001"
     sodipodi:cy="50.938"
     sodipodi:rx="1.875"
     sodipodi:ry="2.812"
     style="fill:#000000"
     transform="translate(-18.437402,-23.965)" /><path
     d="m 44.579598,10.354 c -2.294,-5.057 -8.967,-19.004 -12.759,-19.004 -3.794,0 -10.466,13.945 -12.759,19.002 -5.522,0.634 -20.8590002,2.705 -22.0149999,6.26 -1.155,3.558 10.0359997,14.248 14.1299999,18.003 -1.104,5.448 -3.8750002,20.677 -0.85,22.874 0.427,0.309 0.985,0.459 1.712,0.459 4.647,0 17.16,-6.87 19.779,-8.337 2.617,1.467 15.13,8.338 19.779,8.338 0.726,0 1.286,-0.152 1.712,-0.461 3.025,-2.201 0.252,-17.426 -0.854,-22.872 4.096,-3.757 15.293,-14.451 14.136,-18.005 -1.152,-3.551 -16.488,-5.624 -22.011,-6.257 z m 6.22,23.236 c -0.244,0.224 -0.354,0.561 -0.286,0.885 1.972,9.542 3.124,20.457 1.694,21.498 -0.005,0.004 -0.146,0.103 -0.61,0.103 -3.817,0 -15.236,-6.031 -19.315,-8.355 -0.143,-0.083 -0.304,-0.123 -0.463,-0.123 -0.159,0 -0.32,0.04 -0.463,0.123 -4.08,2.324 -15.498,8.354 -19.315,8.354 -0.372,0 -0.559,-0.064 -0.61,-0.101 -1.296,-0.941 -0.522,-10.788 1.69,-21.5 0.068,-0.326 -0.042,-0.661 -0.286,-0.884 C 5.6315978,27.031 -1.7134022,18.876 -1.1684021,17.193 -0.62340214,15.512 10.116598,13.232 19.800598,12.157 c 0.332,-0.037 0.617,-0.246 0.752,-0.547 3.986,-8.879 9.465,-18.384 11.269,-18.384 1.802,0 7.28,9.505 11.268,18.386 0.136,0.302 0.421,0.511 0.753,0.547 9.684,1.075 20.421,3.354 20.967,5.035 0.496,1.521 -5.92,9.029 -14.01,16.396 z"
     id="path3199"
     inkscape:connector-curvature="0"
     style="fill:#000000" /><path
     d="m 37.443598,32.597 c -0.518,0 -0.938,0.419 -0.938,0.938 0,2.585 -2.102,4.688 -4.688,4.688 -2.586,0 -4.688,-2.102 -4.688,-4.688 0,-0.518 -0.419,-0.938 -0.938,-0.938 -0.519,0 -0.938,0.419 -0.938,0.938 0,3.618 2.944,6.562 6.562,6.562 3.618,0 6.562,-2.944 6.562,-6.562 0.004,-0.518 -0.416,-0.938 -0.934,-0.938 z"
     id="path3201"
     inkscape:connector-curvature="0"
     style="fill:#000000" /></svg>