<?xml version="1.0" encoding="UTF-8" standalone="no"?>
<svg
   xmlns:dc="http://purl.org/dc/elements/1.1/"
   xmlns:cc="http://creativecommons.org/ns#"
   xmlns:rdf="http://www.w3.org/1999/02/22-rdf-syntax-ns#"
   xmlns:svg="http://www.w3.org/2000/svg"
   xmlns="http://www.w3.org/2000/svg"
   xmlns:sodipodi="http://sodipodi.sourceforge.net/DTD/sodipodi-0.dtd"
   xmlns:inkscape="http://www.inkscape.org/namespaces/inkscape"
   version="1.1"
   id="Layer_1"
   x="0px"
   y="0px"
   width="53.637432"
   height="51.332592"
   viewBox="5 -10 53.637432 69.298999"
   enable-background="new 0 0 100 100"
   xml:space="preserve"
   inkscape:version="0.48.4 r9939"
   sodipodi:docname="noun_47902_cc.svg"><metadata
     id="metadata3211"><rdf:RDF><cc:Work
         rdf:about=""><dc:format>image/svg+xml</dc:format><dc:type
           rdf:resource="http://purl.org/dc/dcmitype/StillImage" /></cc:Work></rdf:RDF></metadata><defs
     id="defs3209" /><sodipodi:namedview
     pagecolor="#ffffff"
     bordercolor="#666666"
     borderopacity="1"
     objecttolerance="10"
     gridtolerance="10"
     guidetolerance="10"
     inkscape:pageopacity="0"
     inkscape:pageshadow="2"
     inkscape:window-width="640"
     inkscape:window-height="480"
     id="namedview3207"
     showgrid="false"
     fit-margin-top="1"
     fit-margin-left="1"
     fit-margin-right="1"
     fit-margin-bottom="1"
     inkscape:zoom="2.36"
     inkscape:cx="29.986733"
     inkscape:cy="19.508174"
     inkscape:window-x="65"
     inkscape:window-y="24"
     inkscape:window-maximized="0"
     inkscape:current-layer="Layer_1" /><ellipse
     cx="40.881001"
     cy="50.938"
     rx="1.875"
     ry="2.812"
     id="ellipse3195"
     sodipodi:cx="40.881001"
     sodipodi:cy="50.938"
     sodipodi:rx="1.875"
     sodipodi:ry="2.812"
     style="fill:#000000"
     transform="translate(-18.437402,-23.965)" /><ellipse
     cx="59.631001"
     cy="50.938"
     rx="1.875"
     ry="2.812"
     id="ellipse3197"
     sodipodi:cx="59.631001"
     sodipodi:cy="50.938"
     sodipodi:rx="1.875"
     sodipodi:ry="2.812"
     style="fill:#000000"
     transform="translate(-18.437402,-23.965)" /><path
     d="m 44.579598,10.354 c -2.294,-5.057 -8.967,-19.004 -12.759,-19.004 -3.794,0 -10.466,13.945 -12.759,19.002 -5.522,0.634 -20.8590002,2.705 -22.0149999,6.26 -1.155,3.558 10.0359997,14.248 14.1299999,18.003 -1.104,5.448 -3.8750002,20.677 -0.85,22.874 0.427,0.309 0.985,0.459 1.712,0.459 4.647,0 17.16,-6.87 19.779,-8.337 2.617,1.467 15.13,8.338 19.779,8.338 0.726,0 1.286,-0.152 1.712,-0.461 3.025,-2.201 0.252,-17.426 -0.854,-22.872 4.096,-3.757 15.293,-14.451 14.136,-18.005 -1.152,-3.551 -16.488,-5.624 -22.011,-6.257 z m 6.22,23.236 c -0.244,0.224 -0.354,0.561 -0.286,0.885 1.972,9.542 3.124,20.457 1.694,21.498 -0.005,0.004 -0.146,0.103 -0.61,0.103 -3.817,0 -15.236,-6.031 -19.315,-8.355 -0.143,-0.083 -0.304,-0.123 -0.463,-0.123 -0.159,0 -0.32,0.04 -0.463,0.123 -4.08,2.324 -15.498,8.354 -19.315,8.354 -0.372,0 -0.559,-0.064 -0.61,-0.101 -1.296,-0.941 -0.522,-10.788 1.69,-21.5 0.068,-0.326 -0.042,-0.661 -0.286,-0.884 C 5.6315978,27.031 -1.7134022,18.876 -1.1684021,17.193 -0.62340214,15.512 10.116598,13.232 19.800598,12.157 c 0.332,-0.037 0.617,-0.246 0.752,-0.547 3.986,-8.879 9.465,-18.384 11.269,-18.384 1.802,0 7.28,9.505 11.268,18.386 0.136,0.302 0.421,0.511 0.753,0.547 9.684,1.075 20.421,3.354 20.967,5.035 0.496,1.521 -5.92,9.029 -14.01,16.396 z"
     id="path3199"
     inkscape:connector-curvature="0"
     style="fill:#000000" /><path
     d="m 37.443598,32.597 c -0.518,0 -0.938,0.419 -0.938,0.938 0,2.585 -2.102,4.688 -4.688,4.688 -2.586,0 -4.688,-2.102 -4.688,-4.688 0,-0.518 -0.419,-0.938 -0.938,-0.938 -0.519,0 -0.938,0.419 -0.938,0.938 0,3.618 2.944,6.562 6.562,6.562 3.618,0 6.562,-2.944 6.562,-6.562 0.004,-0.518 -0.416,-0.938 -0.934,-0.938 z"
     id="path3201"
     inkscape:connector-curvature="0"
     style="fill:#000000" /></svg>