<?xml version="1.0" encoding="UTF-8" standalone="no"?>
<svg
   xmlns:dc="http://purl.org/dc/elements/1.1/"
   xmlns:cc="http://creativecommons.org/ns#"
   xmlns:rdf="http://www.w3.org/1999/02/22-rdf-syntax-ns#"
   xmlns:svg="http://www.w3.org/2000/svg"
   xmlns="http://www.w3.org/2000/svg"
   xmlns:sodipodi="http://sodipodi.sourceforge.net/DTD/sodipodi-0.dtd"
   xmlns:inkscape="http://www.inkscape.org/namespaces/inkscape"
   version="1.1"
   id="Layer_1"
   x="0px"
   y="0px"
   width="53.637531"
   height="51.332592"
   viewBox="5 -10 53.637531 69.298999"
   enable-background="new 0 0 100 100"
   xml:space="preserve"
   inkscape:version="0.48.4 r9939"
   sodipodi:docname="noun_47898_cc.svg"><metadata
     id="metadata3059"><rdf:RDF><cc:Work
         rdf:about=""><dc:format>image/svg+xml</dc:format><dc:type
           rdf:resource="http://purl.org/dc/dcmitype/StillImage" /></cc:Work></rdf:RDF></metadata><defs
     id="defs3057" /><sodipodi:namedview
     pagecolor="#ffffff"
     bordercolor="#666666"
     borderopacity="1"
     objecttolerance="10"
     gridtolerance="10"
     guidetolerance="10"
     inkscape:pageopacity="0"
     inkscape:pageshadow="2"
     inkscape:window-width="640"
     inkscape:window-height="480"
     id="namedview3055"
     showgrid="false"
     fit-margin-top="1"
     fit-margin-left="1"
     fit-margin-right="1"
     fit-margin-bottom="1"
     inkscape:zoom="3.337544"
     inkscape:cx="19.601937"
     inkscape:cy="22.189098"
     inkscape:window-x="75"
     inkscape:window-y="34"
     inkscape:window-maximized="0"
     inkscape:current-layer="Layer_1" /><ellipse
     cx="40.625"
     cy="50.938"
     rx="1.875"
     ry="2.812"
     id="ellipse3043"
     sodipodi:cx="40.625"
     sodipodi:cy="50.938"
     sodipodi:rx="1.875"
     sodipodi:ry="2.812"
     style="fill:#000000"
     transform="translate(-18.181287,-23.965)" /><ellipse
     cx="59.375"
     cy="50.938"
     rx="1.875"
     ry="2.812"
     id="ellipse3045"
     sodipodi:cx="59.375"
     sodipodi:cy="50.938"
     sodipodi:rx="1.875"
     sodipodi:ry="2.812"
     style="fill:#000000"
     transform="translate(-18.181287,-23.965)" /><path
     d="m 41.193713,31.66 h -18.75 c -0.586,0 -1.137,0.274 -1.492,0.74 -0.354,0.467 -0.471,1.073 -0.313,1.637 0.078,0.285 2.049,6.998 11.18,6.998 9.133,0 11.102,-6.713 11.182,-6.998 0.156,-0.564 0.041,-1.17 -0.315,-1.637 -0.353,-0.466 -0.906,-0.74 -1.492,-0.74 z"
     id="path3047"
     inkscape:connector-curvature="0"
     style="fill:#000000" /><path
     d="m 44.579713,10.354 c -2.294,-5.057 -8.967,-19.004 -12.759,-19.004 -3.794,0 -10.466,13.945 -12.759,19.002 -5.522,0.634 -20.8590004,2.705 -22.0150002,6.26 -1.156,3.558 10.0359998,14.248 14.1300002,18.003 -1.104,5.448 -3.8750004,20.677 -0.85,22.874 0.427,0.309 0.985,0.459 1.712,0.459 4.647,0 17.161,-6.87 19.779,-8.337 2.617,1.467 15.13,8.338 19.779,8.338 0.725,0 1.285,-0.152 1.712,-0.461 3.025,-2.201 0.252,-17.426 -0.854,-22.872 4.096,-3.757 15.293,-14.451 14.136,-18.005 -1.152,-3.551 -16.489,-5.624 -22.011,-6.257 z m 6.219,23.236 c -0.243,0.224 -0.353,0.561 -0.285,0.885 1.972,9.542 3.124,20.457 1.693,21.498 -0.005,0.004 -0.146,0.103 -0.609,0.103 -3.818,0 -15.236,-6.031 -19.316,-8.355 -0.143,-0.083 -0.304,-0.123 -0.463,-0.123 -0.159,0 -0.32,0.04 -0.463,0.123 -4.08,2.324 -15.498,8.354 -19.316,8.354 -0.372,0 -0.558,-0.064 -0.609,-0.101 -1.296,-0.941 -0.522,-10.788 1.69,-21.5 0.068,-0.326 -0.042,-0.661 -0.286,-0.884 C 5.6317126,27.031 -1.7152874,18.876 -1.1692874,17.193 -0.62328738,15.512 10.115713,13.232 19.799713,12.157 c 0.332,-0.037 0.617,-0.246 0.752,-0.547 3.986,-8.879 9.465,-18.384 11.269,-18.384 1.802,0 7.28,9.505 11.268,18.386 0.136,0.302 0.421,0.511 0.752,0.547 9.685,1.075 20.422,3.354 20.968,5.035 0.496,1.521 -5.92,9.029 -14.01,16.396 z"
     id="path3049"
     inkscape:connector-curvature="0"
     style="fill:#000000" /></svg>