<?xml version="1.0" encoding="UTF-8" standalone="no"?>
<svg
   xmlns:dc="http://purl.org/dc/elements/1.1/"
   xmlns:cc="http://creativecommons.org/ns#"
   xmlns:rdf="http://www.w3.org/1999/02/22-rdf-syntax-ns#"
   xmlns:svg="http://www.w3.org/2000/svg"
   xmlns="http://www.w3.org/2000/svg"
   xmlns:sodipodi="http://sodipodi.sourceforge.net/DTD/sodipodi-0.dtd"
   xmlns:inkscape="http://www.inkscape.org/namespaces/inkscape"
   width="63.719025"
   height="53.679607"
   id="svg3513"
   version="1.1"
   inkscape:version="0.48.4 r9939"
   sodipodi:docname="sync.svg"
   viewBox="5 -10 63.719025 72.46747">
  <defs
     id="defs3515" />
  <sodipodi:namedview
     id="base"
     pagecolor="#ffffff"
     bordercolor="#666666"
     borderopacity="1.0"
     inkscape:pageopacity="0.0"
     inkscape:pageshadow="2"
     inkscape:zoom="1.7103774"
     inkscape:cx="51.027228"
     inkscape:cy="11.24011"
     inkscape:document-units="px"
     inkscape:current-layer="layer1"
     showgrid="false"
     inkscape:window-width="472"
     inkscape:window-height="383"
     inkscape:window-x="436"
     inkscape:window-y="116"
     inkscape:window-maximized="0"
     fit-margin-top="0"
     fit-margin-left="0"
     fit-margin-right="0"
     fit-margin-bottom="0" />
  <metadata
     id="metadata3518">
    <rdf:RDF>
      <cc:Work
         rdf:about="">
        <dc:format>image/svg+xml</dc:format>
        <dc:type
           rdf:resource="http://purl.org/dc/dcmitype/StillImage" />
        <dc:title></dc:title>
      </cc:Work>
    </rdf:RDF>
  </metadata>
  <g
     inkscape:label="Layer 1"
     inkscape:groupmode="layer"
     id="layer1"
     transform="translate(-18.665583,-978.49633)">
    <path
       inkscape:connector-curvature="0"
       style="font-size:medium;font-style:normal;font-variant:normal;font-weight:normal;font-stretch:normal;text-indent:0;text-align:start;text-decoration:none;line-height:normal;letter-spacing:normal;word-spacing:normal;text-transform:none;direction:ltr;block-progression:tb;writing-mode:lr-tb;text-anchor:start;baseline-shift:baseline;color:#000000;fill:#000000;fill-opacity:1;fill-rule:nonzero;stroke:none;stroke-width:6.84569836;marker:none;visibility:visible;display:inline;overflow:visible;enable-background:accumulate;font-family:Sans;-inkscape-font-specification:Sans"
       d="m 55.533562,968.49633 c -15.167,0 -28.210098,9.3494 -33.593698,22.625 a 3.4231915,3.4231915 0 1 0 6.3437,2.5625 c 4.360398,-10.7522 14.892798,-18.3437 27.249998,-18.3437 12.8255,0 23.6611,8.1883 27.6875,19.5937 l -1.375,-1.375 c -0.9414,-0.9668 -2.4989,-1.287 -3.75,-0.7813 -0.4692,0.1897 -0.8799,0.5004 -1.2188,0.875 -0.1129,0.1249 -0.218,0.2668 -0.3124,0.4063 -0.2835,0.4186 -0.4812,0.8776 -0.5626,1.375 -0.027,0.1658 -0.03,0.3313 -0.031,0.5 -0.01,0.1144 -0.01,0.2292 0,0.3437 0.08,0.7999 0.4519,1.5673 1.0312,2.125 l 7.2813,7.28127 c 0.068,0.098 0.1411,0.1912 0.2187,0.2813 0.7634,0.9431 2.0548,1.4274 3.25,1.2187 0.031,0 0.063,10e-5 0.094,0 0.074,-0.019 0.1466,-0.04 0.2188,-0.062 0.042,-0.01 0.084,-0.02 0.125,-0.031 0.1827,-0.058 0.3608,-0.1312 0.5312,-0.2188 0.031,-0.01 0.063,-0.021 0.094,-0.031 0.064,-0.039 0.1265,-0.081 0.1874,-0.125 0.032,-0.021 0.062,-0.042 0.094,-0.063 0.064,-0.05 0.1269,-0.102 0.1875,-0.1562 0.031,-0.02 0.063,-0.041 0.094,-0.062 0.064,-0.05 0.1269,-0.1019 0.1876,-0.1563 0.01,-0.011 0.02,-0.02 0.031,-0.031 0.066,-0.07 0.1281,-0.1431 0.1875,-0.2188 l 7.625,-7.62497 c 1.4237,-1.2213 1.5096,-3.6693 0.1875,-5 -1.3193,-1.3334 -3.7695,-1.2596 -5,0.1563 l -2.0312,2.0313 c -4.0569,-15.5897 -18.2153,-27.0938 -35.0313,-27.0938 z m -31.781298,33.74997 c -0.1511,0 -0.3193,0.01 -0.4687,0.031 -0.031,10e-5 -0.063,-10e-5 -0.094,0 -0.074,0.019 -0.1466,0.04 -0.2188,0.063 -0.042,0.01 -0.084,0.02 -0.125,0.031 -0.1827,0.058 -0.3609,0.1312 -0.5312,0.2188 -0.031,0.011 -0.063,0.021 -0.094,0.031 -0.064,0.039 -0.1265,0.081 -0.1875,0.125 -0.032,0.021 -0.062,0.042 -0.094,0.062 -0.064,0.05 -0.1269,0.102 -0.1876,0.1563 -0.031,0.02 -0.063,0.04 -0.094,0.062 -0.064,0.05 -0.1269,0.1019 -0.1875,0.1563 -0.01,0.011 -0.02,0.02 -0.031,0.031 -0.066,0.07 -0.1282,0.1432 -0.1876,0.2187 l -7.593699,7.625 c -1.4237,1.2213 -1.5409,3.6693 -0.2187,5 1.3193,1.3336 3.800699,1.2598 5.031199,-0.1563 l 2,-2 c 4.0686,15.5748 18.257098,27.0627 35.062498,27.0627 15.167,0 28.1787,-9.3497 33.5625,-22.625 a 3.4231915,3.4231915 0 1 0 -6.3438,-2.5627 c -4.3604,10.7523 -14.8615,18.3439 -27.2187,18.3439 -12.8359,0 -23.6956,-8.2051 -27.718698,-19.6251 l 1.4062,1.4062 c 0.706098,0.7252 1.744198,1.0771 2.749998,1.0001 0.3353,-0.026 0.656,-0.092 0.9688,-0.2187 0.1563,-0.063 0.3248,-0.1633 0.4687,-0.25 0.7195,-0.4337 1.2421,-1.1376 1.5,-1.9376 0.052,-0.16 0.098,-0.3029 0.125,-0.4688 0.027,-0.1658 0.062,-0.3313 0.062,-0.5 0.01,-0.1143 0.01,-0.2293 0,-0.3437 -0.08,-0.7999 -0.4519,-1.5674 -1.0312,-2.125 l -7.312598,-7.2813 c -0.068,-0.098 -0.1411,-0.1911 -0.2187,-0.2812 -0.6679,-0.8253 -1.7229,-1.2841 -2.7813,-1.2499 z"
       id="path3442" />
  </g>
</svg>
