<?xml version="1.0" encoding="UTF-8" standalone="no"?>
<svg
   xmlns:dc="http://purl.org/dc/elements/1.1/"
   xmlns:cc="http://creativecommons.org/ns#"
   xmlns:rdf="http://www.w3.org/1999/02/22-rdf-syntax-ns#"
   xmlns:svg="http://www.w3.org/2000/svg"
   xmlns="http://www.w3.org/2000/svg"
   xmlns:sodipodi="http://sodipodi.sourceforge.net/DTD/sodipodi-0.dtd"
   xmlns:inkscape="http://www.inkscape.org/namespaces/inkscape"
   version="1.1"
   id="Layer_1"
   x="0px"
   y="0px"
   viewBox="0 0 40 51.761909"
   enable-background="new 0 0 100 100"
   xml:space="preserve"
   height="51.761909"
   width="40"
   inkscape:version="0.48.4 r9939"
   sodipodi:docname="bookmark-fill.svg"><metadata
     id="metadata3193"><rdf:RDF><cc:Work
         rdf:about=""><dc:format>image/svg+xml</dc:format><dc:type
           rdf:resource="http://purl.org/dc/dcmitype/StillImage" /><dc:title></dc:title></cc:Work></rdf:RDF></metadata><defs
     id="defs3191" /><sodipodi:namedview
     pagecolor="#ffffff"
     bordercolor="#666666"
     borderopacity="1"
     objecttolerance="10"
     gridtolerance="10"
     guidetolerance="10"
     inkscape:pageopacity="0"
     inkscape:pageshadow="2"
     inkscape:window-width="640"
     inkscape:window-height="662"
     id="namedview3189"
     showgrid="false"
     fit-margin-top="1"
     fit-margin-right="1"
     fit-margin-left="1"
     fit-margin-bottom="1"
     inkscape:zoom="4.72"
     inkscape:cx="6.632524"
     inkscape:cy="18.812003"
     inkscape:window-x="65"
     inkscape:window-y="24"
     inkscape:window-maximized="0"
     inkscape:current-layer="Layer_1" /><path
     style="fill:#5cd5cf;fill-opacity:1;stroke:#5cd5cf;stroke-width:2;stroke-linecap:round;stroke-miterlimit:4;stroke-opacity:1;stroke-dasharray:none;stroke-dashoffset:0"
     d="m 12.784746,13.073454 0,-9.5437513 4.661017,0 4.661017,0 0,9.5857823 c 0,10.699841 0.297589,9.947529 -2.874914,7.267837 -0.765525,-0.646609 -1.558784,-1.175653 -1.762798,-1.175653 -0.204014,0 -1.341447,0.767146 -2.527628,1.704768 l -2.156694,1.704769 0,-9.543752 z"
     id="path3257"
     inkscape:connector-curvature="0" /><path
     style="fill:#f8ac49;fill-opacity:1;stroke:#f8ac49;stroke-width:2;stroke-linecap:round;stroke-miterlimit:4;stroke-opacity:1;stroke-dasharray:none;stroke-dashoffset:0"
     d="m 3.4627117,24.538935 c 0,-10.118651 0.1157394,-18.69916 0.2571987,-19.0677969 C 3.9222743,4.9437862 4.643435,4.8008892 7.1024651,4.8008892 l 3.1253559,0 0.113208,10.6991528 c 0.132619,12.533622 0.01007,12.286379 4.453268,8.984586 l 2.63596,-1.958813 2.516078,2.188419 c 1.784367,1.551994 2.803241,2.147744 3.503516,2.048553 l 0.987437,-0.139864 0.113086,-10.911017 0.113086,-10.9110168 3.170812,0 3.170813,0 0,19.0677968 0,19.067796 -13.771187,0 -13.7711863,0 0,-18.397547 z"
     id="path4027"
     inkscape:connector-curvature="0" /><path
     style="fill:#e09534;fill-opacity:1;stroke:#e09534;stroke-width:2;stroke-linecap:round;stroke-miterlimit:4;stroke-opacity:1;stroke-dasharray:none;stroke-dashoffset:0"
     d="M 3.9711863,47.936482 C 3.2287054,47.194001 3.3483934,46.417311 4.2823128,45.917493 4.7972472,45.641908 10.113238,45.476443 18.58316,45.472367 c 7.414686,-0.0036 13.707665,-0.150458 13.984399,-0.326421 1.241687,-0.789533 1.403627,-2.978658 1.403627,-18.974336 l 0,-16.2859751 1.271187,0 1.271186,0 0,18.2396001 0,18.239599 -1.040061,1.040062 -1.040062,1.040061 -14.976887,0 c -11.0837191,0 -15.1090636,-0.132175 -15.4853627,-0.508475 z"
     id="path4029"
     inkscape:connector-curvature="0" /><path
     d="M 36.707937,7.574603 H 33.631746 V 4.920635 c 0,-1.809524 -1.326984,-2.653969 -2.714285,-2.714286 H 24.403174 V 2.085714 C 24.403174,1.48254 23.920635,1 23.317461,1 H 11.555556 C 10.952381,1 10.469841,1.48254 10.469841,2.085714 V 2.266666 H 4.8 c -2.050793,0 -3.679365,1.628572 -3.8,3.619048 0,0.06032 0,0.120635 0,0.180953 v 40.834921 c 0,0 0,0 0,0 0,0 0,0.06032 0,0.06032 0,2.111111 1.688889,3.8 3.8,3.8 h 28.771429 c 0,0 0.06032,0 0.06032,0 2.593648,-0.120636 5.368252,-1.749208 5.368252,-5.97143 V 9.806349 c 0,-1.206348 -1.025396,-2.231746 -2.292063,-2.231746 z M 12.701587,3.171429 h 9.469842 v 0.120634 19.96508 l -4.041271,-3.438095 c -0.120634,-0.06032 -0.180952,-0.120635 -0.301586,-0.180952 0,0 0,0 0,0 -0.120636,-0.06032 -0.24127,-0.06032 -0.361905,-0.06032 0,0 0,0 0,0 0,0 0,0 0,0 -0.06032,0 -0.180953,0 -0.24127,0.06032 -0.06032,0 -0.06032,0 -0.120635,0 -0.120635,0.06032 -0.24127,0.120634 -0.361905,0.180952 l -4.04127,3.136508 V 3.352381 3.171429 z M 3.231746,6.187302 c 0,-0.06032 0,-0.120635 0,-0.120635 0,-0.844444 0.72381,-1.568254 1.568254,-1.568254 h 5.669841 v 20.749206 c 0,0.422222 0.24127,0.844445 0.603174,1.025398 0.361905,0.180952 0.844445,0.120634 1.146032,-0.120636 l 5.126984,-3.980952 5.187303,4.403174 c 0.06032,0.06032 0.180952,0.120636 0.241269,0.180953 0,0 0.06032,0 0.06032,0 0.06032,0.06032 0.180953,0.06032 0.24127,0.06032 0,0 0,0 0.06032,0 0.06032,0 0.06032,0 0.120636,0 0.06032,0 0.06032,0 0.120635,0 0,0 0.06032,0 0.06032,0 0.120634,0 0.180952,-0.06032 0.301587,-0.06032 0.422223,-0.180953 0.663492,-0.603175 0.663492,-1.025397 V 4.438095 h 6.514286 c 0.48254,0 0.48254,0.24127 0.48254,0.48254 v 3.8 33.536508 c 0,0.784128 -0.301588,0.904762 -0.663493,0.96508 H 4.8 c -0.120635,0 -0.24127,0 -0.422222,0 -0.06032,0 -0.120635,0 -0.24127,0.06032 -0.06032,0 -0.120635,0 -0.180952,0 -0.120636,0 -0.180953,0.06032 -0.301588,0.06032 0,0 -0.06032,0 -0.06032,0 -0.120635,0.06032 -0.180953,0.06032 -0.301587,0.120635 0,0 0,0 -0.06032,0 0,0 -0.06032,0 -0.06032,0.06032 V 6.187302 z m 33.536508,38.663492 c 0,2.895238 -1.749206,3.619048 -3.196825,3.739683 H 4.8 c -0.844444,0 -1.568254,-0.72381 -1.568254,-1.568254 0,0 0,-0.06032 0,-0.06032 0,-0.301587 0.120635,-0.603174 0.301588,-0.844444 0,0 0,-0.06032 0.06032,-0.06032 0.06032,-0.06032 0.06032,-0.120635 0.120635,-0.180953 0.06032,-0.06032 0.120634,-0.06032 0.120634,-0.120635 0,0 0.06032,-0.06032 0.06032,-0.06032 0.06032,-0.06032 0.120636,-0.06032 0.241271,-0.120635 0,0 0,0 0.06032,0 0.06032,-0.06032 0.180953,-0.06032 0.24127,-0.06032 0,0 0,0 0.06032,0 0.120635,0 0.180952,-0.06032 0.301588,-0.06032 h 26.11746 c 1.326984,0 2.714285,-0.904762 2.714285,-2.83492 V 42.257143 9.806349 l 3.136509,0 v 35.044445 z"
     id="path3187"
     inkscape:connector-curvature="0" /></svg>