<?xml version="1.0" encoding="UTF-8" standalone="no"?>
<svg
   xmlns:dc="http://purl.org/dc/elements/1.1/"
   xmlns:cc="http://creativecommons.org/ns#"
   xmlns:rdf="http://www.w3.org/1999/02/22-rdf-syntax-ns#"
   xmlns:svg="http://www.w3.org/2000/svg"
   xmlns="http://www.w3.org/2000/svg"
   xmlns:sodipodi="http://sodipodi.sourceforge.net/DTD/sodipodi-0.dtd"
   xmlns:inkscape="http://www.inkscape.org/namespaces/inkscape"
   version="1.1"
   id="Layer_1"
   x="0px"
   y="0px"
   width="47.833332"
   height="50.612591"
   viewBox="5 -10 47.833332 68.326998"
   enable-background="new 0 0 100 100"
   xml:space="preserve"
   inkscape:version="0.48.4 r9939"
   sodipodi:docname="noun_49048_cc.svg"><metadata
     id="metadata3059"><rdf:RDF><cc:Work
         rdf:about=""><dc:format>image/svg+xml</dc:format><dc:type
           rdf:resource="http://purl.org/dc/dcmitype/StillImage" /><dc:title></dc:title></cc:Work></rdf:RDF></metadata><defs
     id="defs3057" /><sodipodi:namedview
     pagecolor="#ffffff"
     bordercolor="#666666"
     borderopacity="1"
     objecttolerance="10"
     gridtolerance="10"
     guidetolerance="10"
     inkscape:pageopacity="0"
     inkscape:pageshadow="2"
     inkscape:window-width="640"
     inkscape:window-height="480"
     id="namedview3055"
     showgrid="false"
     fit-margin-left="1"
     fit-margin-top="1"
     fit-margin-right="1"
     fit-margin-bottom="1"
     inkscape:zoom="6.675088"
     inkscape:cx="29.796954"
     inkscape:cy="24.185948"
     inkscape:window-x="75"
     inkscape:window-y="34"
     inkscape:window-maximized="0"
     inkscape:current-layer="Layer_1" /><g
     id="g3129"
     transform="translate(0.80897806,0.33366791)"><g
       transform="translate(-0.8089781,-3.0336679)"
       id="g3124"><path
         d="m 21.416166,28.85 c 0,-0.238 -0.026,-0.465 -0.062,-0.687 l -2.985,-1.492 c -0.425,0.514 -0.703,1.292 -0.703,2.179 0,1.553 0.838,2.812 1.875,2.812 1.037,0 1.875,-1.259 1.875,-2.812 z"
         id="path3043"
         inkscape:connector-curvature="0"
         style="fill:#000000" /><path
         d="m 36.478166,28.164 c -0.036,0.222 -0.062,0.448 -0.062,0.687 0,1.553 0.838,2.812 1.875,2.812 1.037,0 1.875,-1.26 1.875,-2.812 0,-0.886 -0.278,-1.665 -0.703,-2.179 l -2.985,1.492 z"
         id="path3045"
         inkscape:connector-curvature="0"
         style="fill:#000000" /><path
         d="m 28.916166,33.538 c -4.653,0 -8.438,3.785 -8.438,8.438 0,0.518 0.419,0.938 0.938,0.938 0.519,0 0.938,-0.419 0.938,-0.938 0,-3.618 2.944,-6.562 6.562,-6.562 3.618,0 6.562,2.944 6.562,6.562 0,0.518 0.419,0.938 0.938,0.938 0.519,0 0.938,-0.419 0.938,-0.938 0,-4.653 -3.785,-8.438 -8.438,-8.438 z"
         id="path3047"
         inkscape:connector-curvature="0"
         style="fill:#000000" /></g><path
       style="fill:#000000"
       inkscape:connector-curvature="0"
       id="path3049"
       d="m 56.232188,-5.2336679 h -17.907 c -0.436,-2.139 -2.327,-3.75 -4.592,-3.75 h -11.25 c -2.265,0 -4.157,1.611 -4.592,3.75 H -0.01781141 c -1.55099999,0 -2.81199999,1.262 -2.81199999,2.812 0,1.24 0.811,2.28300001 1.92799999,2.65500001 L 2.7971886,52.019332 l 0,0 v 0.002 c 0.176,2.459 2.364,4.62 4.684,4.622 0.002,0 0.002,0 0.002,0 0.003,0 0.005,-0.002 0.009,-0.002 H 48.723188 c 0.004,0 0.006,0.002 0.009,0.002 0,0 0,0 0.002,0 2.32,-0.002 4.508,-2.163 4.684,-4.622 v -0.002 l 0,0 3.699,-51.78599989 c 1.117,-0.372 1.928,-1.41600001 1.928,-2.65500001 0,-1.55 -1.262,-2.812 -2.813,-2.812 z m -33.75,-1.874 h 11.25 c 1.221,0 2.252,0.787 2.64,1.875 h -16.53 c 0.388,-1.088 1.419,-1.875 2.64,-1.875 z m 29.065,58.9959999 0,0 c 0,0.002 0,0.002 0,0.002 -0.104,1.474 -1.47,2.871 -2.809,2.876 -0.002,0 -0.003,0 -0.005,0 H 7.4831886 c -0.002,0 -0.003,0 -0.005,0 -1.339,-0.005 -2.705,-1.402 -2.809,-2.876 0,0 0,0 0,-0.002 l 0,0 -3.678,-51.49699989 H 55.226188 l -3.679,51.49699989 z m 4.685,-53.3719999 H -0.01781141 c -0.516,0 -0.938,-0.421 -0.938,-0.938 0,-0.517 0.421,-0.938 0.938,-0.938 H 56.232188 c 0.516,0 0.938,0.421 0.938,0.938 0,0.517 -0.422,0.938 -0.938,0.938 z" /></g></svg>