<?xml version="1.0" encoding="UTF-8" standalone="no"?>
<svg
   xmlns:dc="http://purl.org/dc/elements/1.1/"
   xmlns:cc="http://creativecommons.org/ns#"
   xmlns:rdf="http://www.w3.org/1999/02/22-rdf-syntax-ns#"
   xmlns:svg="http://www.w3.org/2000/svg"
   xmlns="http://www.w3.org/2000/svg"
   xmlns:sodipodi="http://sodipodi.sourceforge.net/DTD/sodipodi-0.dtd"
   xmlns:inkscape="http://www.inkscape.org/namespaces/inkscape"
   version="1.1"
   id="Layer_1"
   x="0px"
   y="0px"
   width="35.712997"
   height="26.505186"
   viewBox="2.5 -5 35.712997 35.782001"
   enable-background="new 0 0 50 50"
   xml:space="preserve"
   inkscape:version="0.48.4 r9939"
   sodipodi:docname="noun_20921_cc.svg"><metadata
     id="metadata3057"><rdf:RDF><cc:Work
         rdf:about=""><dc:format>image/svg+xml</dc:format><dc:type
           rdf:resource="http://purl.org/dc/dcmitype/StillImage" /><dc:title></dc:title></cc:Work></rdf:RDF></metadata><defs
     id="defs3055" /><sodipodi:namedview
     pagecolor="#ffffff"
     bordercolor="#666666"
     borderopacity="1"
     objecttolerance="10"
     gridtolerance="10"
     guidetolerance="10"
     inkscape:pageopacity="0"
     inkscape:pageshadow="2"
     inkscape:window-width="640"
     inkscape:window-height="480"
     id="namedview3053"
     showgrid="false"
     fit-margin-top="1"
     fit-margin-right="1"
     fit-margin-left="1"
     fit-margin-bottom="1"
     inkscape:zoom="4.72"
     inkscape:cx="19.889696"
     inkscape:cy="11.302259"
     inkscape:window-x="75"
     inkscape:window-y="34"
     inkscape:window-maximized="0"
     inkscape:current-layer="Layer_1" /><g
     id="settings_6_"
     transform="translate(-4.6107746,-12.368)"><path
       d="m 31.357,21.611 h -0.809 c -0.174,-0.536 -0.387,-1.062 -0.636,-1.573 l 0.34,-0.336 c 0.735,-0.735 1.159,-1.747 1.159,-2.77 0,-1.022 -0.405,-2.005 -1.159,-2.791 -1.49,-1.487 -4.069,-1.483 -5.559,0 l -0.308,0.308 c -0.548,-0.281 -1.112,-0.511 -1.687,-0.696 v -1.099 c 0,-2.167 -1.764,-3.928 -3.927,-3.928 -2.166,0 -3.929,1.761 -3.929,3.928 v 1.095 c -0.509,0.165 -1.002,0.364 -1.476,0.595 l -0.75,-0.748 c -1.531,-1.475 -4.057,-1.465 -5.55,0.025 -1.498,1.526 -1.5,4.011 0.008,5.55 l 0.653,0.654 c -0.303,0.579 -0.552,1.177 -0.748,1.786 h -0.84 c -2.164,0 -3.928,1.761 -3.928,3.929 0,2.165 1.764,3.927 3.928,3.927 h 0.846 c 0.183,0.574 0.417,1.138 0.692,1.689 l -0.814,0.816 c -0.74,0.735 -1.158,1.747 -1.158,2.77 0,1.023 0.403,2.009 1.158,2.79 1.487,1.488 4.072,1.488 5.561,0 l 0.839,-0.839 c 0.511,0.254 1.039,0.468 1.578,0.637 v 0.542 c 0,2.168 1.763,3.928 3.93,3.928 2.162,0 3.926,-1.76 3.926,-3.928 v -0.543 c 0.612,-0.196 1.211,-0.447 1.796,-0.753 L 24.926,37 c 1.466,1.47 4.06,1.474 5.538,0 1.531,-1.537 1.531,-4.029 0,-5.56 l -0.5,-0.502 c 0.232,-0.475 0.433,-0.968 0.595,-1.475 h 0.799 c 2.167,0 3.928,-1.761 3.928,-3.926 -0.001,-2.165 -1.762,-3.926 -3.929,-3.926 z m 0,5.325 h -2.784 l -0.219,0.996 c -0.199,0.922 -0.549,1.783 -1.032,2.565 l -0.527,0.852 1.884,1.881 c 0.545,0.545 0.545,1.438 0,1.982 -0.534,0.532 -1.429,0.538 -1.972,-0.008 L 24.86,33.39 24.012,33.933 c -0.906,0.575 -1.864,0.978 -2.845,1.192 L 20.17,35.34 v 2.532 c 0,0.785 -0.615,1.397 -1.397,1.397 -0.772,0 -1.4,-0.628 -1.4,-1.397 V 35.34 l -1,-0.215 c -0.933,-0.202 -1.83,-0.563 -2.669,-1.077 l -0.851,-0.522 -2.217,2.221 c -0.53,0.53 -1.469,0.513 -1.964,0.017 -0.274,-0.29 -0.435,-0.66 -0.435,-1.021 0,-0.358 0.151,-0.715 0.417,-0.979 l 2.192,-2.197 -0.517,-0.85 C 9.787,29.827 9.401,28.888 9.185,27.925 L 8.961,26.937 H 6.144 c -0.773,0 -1.399,-0.625 -1.399,-1.396 0,-0.772 0.626,-1.399 1.399,-1.399 h 2.828 l 0.217,-0.998 c 0.212,-0.985 0.613,-1.941 1.192,-2.845 L 10.929,19.442 8.874,17.391 C 8.337,16.837 8.334,15.942 8.867,15.4 c 0.539,-0.538 1.436,-0.522 1.981,0 l 2.116,2.108 0.851,-0.526 c 0.78,-0.485 1.645,-0.833 2.569,-1.036 l 0.991,-0.219 v -3.078 c 0,-0.772 0.629,-1.401 1.4,-1.401 0.784,0 1.397,0.615 1.397,1.401 v 3.072 l 0.988,0.223 c 0.961,0.217 1.901,0.605 2.792,1.149 l 0.847,0.518 1.685,-1.682 c 0.532,-0.533 1.47,-0.514 1.965,-0.019 0.277,0.286 0.436,0.659 0.436,1.017 0,0.361 -0.15,0.716 -0.415,0.98 l -1.698,1.695 0.501,0.844 c 0.492,0.837 0.871,1.776 1.093,2.715 l 0.228,0.972 h 2.771 c 0.771,0 1.398,0.628 1.398,1.4 -0.005,0.778 -0.635,1.403 -1.406,1.403 z"
       id="path3043"
       inkscape:connector-curvature="0"
       style="fill:#000000" /><path
       d="m 18.746,20.09 c -2.845,0 -5.159,2.324 -5.159,5.185 0,2.847 2.313,5.161 5.159,5.161 2.847,0 5.163,-2.314 5.163,-5.161 0,-2.861 -2.316,-5.185 -5.163,-5.185 z m 0,7.813 c -1.448,0 -2.63,-1.183 -2.63,-2.629 0,-1.465 1.182,-2.657 2.63,-2.657 1.454,0 2.634,1.192 2.634,2.657 -10e-4,1.452 -1.18,2.629 -2.634,2.629 z"
       id="path3045"
       inkscape:connector-curvature="0"
       style="fill:#000000" /><path
       d="m 46.191,15.038 c 0.285,-0.321 0.485,-0.716 0.561,-1.141 C 46.863,13.294 46.733,12.671 46.37,12.122 45.758,11.233 44.55,10.871 43.564,11.26 43.608,10.725 43.465,10.191 43.158,9.744 42.8,9.222 42.258,8.875 41.635,8.761 l -0.43,-0.043 c -1.007,0 -1.884,0.633 -2.217,1.554 C 38.643,9.927 38.207,9.693 37.732,9.609 L 37.313,9.571 c -0.48,0 -0.948,0.145 -1.355,0.428 -0.969,0.676 -1.273,1.97 -0.756,3.01 h -0.085 c -1.141,0 -2.116,0.815 -2.324,1.941 -0.21,1.144 0.449,2.252 1.507,2.643 -0.401,0.35 -0.679,0.832 -0.77,1.347 -0.116,0.599 0.014,1.225 0.379,1.78 0.663,0.964 2.036,1.292 3.058,0.744 0.064,1.058 0.844,1.98 1.936,2.182 l 0.432,0.042 c 0.993,0 1.863,-0.623 2.206,-1.53 0.338,0.346 0.779,0.588 1.26,0.673 l 0.416,0.039 c 0.477,0 0.946,-0.146 1.349,-0.422 0.929,-0.64 1.257,-1.828 0.85,-2.834 1.115,-0.023 2.064,-0.832 2.269,-1.938 0.208,-1.138 -0.445,-2.243 -1.494,-2.638 z m -2.909,2.672 c -0.12,0.283 -0.281,0.541 -0.479,0.756 l -0.602,0.662 -0.729,0.296 c -0.328,0.134 -0.661,0.208 -0.987,0.217 l -0.85,0.026 -0.789,-0.327 c -0.283,-0.116 -0.557,-0.292 -0.791,-0.499 l -0.646,-0.581 -0.28,-0.737 c -0.125,-0.327 -0.193,-0.656 -0.206,-0.975 l -0.032,-0.842 0.329,-0.792 c 0.128,-0.303 0.314,-0.584 0.551,-0.842 l 0.546,-0.58 0.828,-0.324 c 0.273,-0.105 0.57,-0.167 0.876,-0.181 l 0.848,-0.031 0.769,0.328 c 0.301,0.129 0.585,0.314 0.844,0.544 l 0.618,0.55 0.278,0.758 c 0.112,0.308 0.182,0.64 0.198,0.965 l 0.043,0.807 -0.337,0.802 z"
       id="path3047"
       inkscape:connector-curvature="0"
       style="fill:#000000" /></g></svg>