<?xml version="1.0" encoding="UTF-8" standalone="no"?>
<svg
   xmlns:dc="http://purl.org/dc/elements/1.1/"
   xmlns:cc="http://creativecommons.org/ns#"
   xmlns:rdf="http://www.w3.org/1999/02/22-rdf-syntax-ns#"
   xmlns:svg="http://www.w3.org/2000/svg"
   xmlns="http://www.w3.org/2000/svg"
   xmlns:sodipodi="http://sodipodi.sourceforge.net/DTD/sodipodi-0.dtd"
   xmlns:inkscape="http://www.inkscape.org/namespaces/inkscape"
   version="1.1"
   id="Layer_1"
   x="0px"
   y="0px"
   width="53.637436"
   height="51.332592"
   viewBox="5 -10 53.637436 69.298999"
   enable-background="new 0 0 100 100"
   xml:space="preserve"
   inkscape:version="0.48.4 r9939"
   sodipodi:docname="noun_47903_cc.svg"><metadata
     id="metadata3135"><rdf:RDF><cc:Work
         rdf:about=""><dc:format>image/svg+xml</dc:format><dc:type
           rdf:resource="http://purl.org/dc/dcmitype/StillImage" /></cc:Work></rdf:RDF></metadata><defs
     id="defs3133" /><sodipodi:namedview
     pagecolor="#ffffff"
     bordercolor="#666666"
     borderopacity="1"
     objecttolerance="10"
     gridtolerance="10"
     guidetolerance="10"
     inkscape:pageopacity="0"
     inkscape:pageshadow="2"
     inkscape:window-width="640"
     inkscape:window-height="480"
     id="namedview3131"
     showgrid="false"
     fit-margin-top="1"
     fit-margin-left="1"
     fit-margin-right="1"
     fit-margin-bottom="1"
     inkscape:zoom="4.72"
     inkscape:cx="11.717063"
     inkscape:cy="16.596813"
     inkscape:window-x="65"
     inkscape:window-y="24"
     inkscape:window-maximized="0"
     inkscape:current-layer="Layer_1" /><ellipse
     cx="40.625"
     cy="50.938"
     rx="1.875"
     ry="2.812"
     id="ellipse3119"
     sodipodi:cx="40.625"
     sodipodi:cy="50.938"
     sodipodi:rx="1.875"
     sodipodi:ry="2.812"
     style="fill:#000000"
     transform="translate(-18.181396,-23.965)" /><ellipse
     cx="59.375"
     cy="50.938"
     rx="1.875"
     ry="2.812"
     id="ellipse3121"
     sodipodi:cx="59.375"
     sodipodi:cy="50.938"
     sodipodi:rx="1.875"
     sodipodi:ry="2.812"
     style="fill:#000000"
     transform="translate(-18.181396,-23.965)" /><path
     d="m 44.579604,10.354 c -2.294,-5.057 -8.967,-19.004 -12.76,-19.004 -3.793,0 -10.465,13.945 -12.758,19.002 -5.522999,0.634 -20.8599993,2.705 -22.0149997,6.261 -1.155,3.558 10.0350004,14.247 14.1300007,18.002 -1.104,5.448 -3.8750002,20.677 -0.851,22.874 0.428,0.309 0.986,0.459 1.713,0.459 4.648,0 17.159999,-6.87 19.778999,-8.337 2.616,1.467 15.13,8.338 19.779,8.338 0.725,0 1.285,-0.152 1.711,-0.461 3.026,-2.201 0.254,-17.426 -0.853,-22.872 4.096,-3.757 15.293,-14.451 14.136,-18.004 -1.153,-3.552 -16.49,-5.624 -22.011,-6.258 z m 6.219,23.236 c -0.243,0.224 -0.353,0.561 -0.285,0.885 1.972,9.542 3.123,20.457 1.692,21.498 -0.005,0.004 -0.146,0.103 -0.608,0.103 -3.818,0 -15.236,-6.032 -19.316,-8.355 -0.143,-0.082 -0.304,-0.123 -0.463,-0.123 -0.159,0 -0.32,0.041 -0.463,0.123 -4.08,2.324 -15.497999,8.354 -19.315999,8.354 -0.371,0 -0.559,-0.064 -0.61,-0.101 -1.296,-0.941 -0.521,-10.788 1.69,-21.5 0.067,-0.326 -0.042,-0.661 -0.285,-0.884 C 5.6316047,27.031 -1.7153953,18.876 -1.1693953,17.193 -0.62339526,15.512 10.114605,13.232 19.799604,12.157 c 0.331,-0.037 0.617,-0.245 0.753,-0.547 3.986,-8.879 9.465,-18.384 11.268,-18.384 1.802,0 7.281,9.505 11.27,18.386 0.135,0.302 0.42,0.511 0.753,0.547 9.683,1.075 20.421,3.354 20.967,5.035 0.494,1.52 -5.922,9.029 -14.012,16.396 z"
     id="path3123"
     inkscape:connector-curvature="0"
     style="fill:#000000" /><path
     d="m 39.318604,36.347 h -15 c -0.519,0 -0.938,0.419 -0.938,0.938 0,0.519 0.419,0.938 0.938,0.938 h 15 c 0.519,0 0.938,-0.419 0.938,-0.938 0,-0.519 -0.419,-0.938 -0.938,-0.938 z"
     id="path3125"
     inkscape:connector-curvature="0"
     style="fill:#000000" /></svg>