<?xml version="1.0" encoding="UTF-8" standalone="no"?>
<svg
   xmlns:dc="http://purl.org/dc/elements/1.1/"
   xmlns:cc="http://creativecommons.org/ns#"
   xmlns:rdf="http://www.w3.org/1999/02/22-rdf-syntax-ns#"
   xmlns:svg="http://www.w3.org/2000/svg"
   xmlns="http://www.w3.org/2000/svg"
   xmlns:sodipodi="http://sodipodi.sourceforge.net/DTD/sodipodi-0.dtd"
   xmlns:inkscape="http://www.inkscape.org/namespaces/inkscape"
   version="1.1"
   id="Layer_1"
   x="0px"
   y="0px"
   width="53.637531"
   height="51.332592"
   viewBox="5 -10 53.637531 69.298999"
   enable-background="new 0 0 100 100"
   xml:space="preserve"
   inkscape:version="0.48.4 r9939"
   sodipodi:docname="star-5-fill.svg"><metadata
     id="metadata3059"><rdf:RDF><cc:Work
         rdf:about=""><dc:format>image/svg+xml</dc:format><dc:type
           rdf:resource="http://purl.org/dc/dcmitype/StillImage" /><dc:title /></cc:Work></rdf:RDF></metadata><defs
     id="defs3057" /><sodipodi:namedview
     pagecolor="#ffffff"
     bordercolor="#666666"
     borderopacity="1"
     objecttolerance="10"
     gridtolerance="10"
     guidetolerance="10"
     inkscape:pageopacity="0"
     inkscape:pageshadow="2"
     inkscape:window-width="457"
     inkscape:window-height="383"
     id="namedview3055"
     showgrid="false"
     fit-margin-top="1"
     fit-margin-left="1"
     fit-margin-right="1"
     fit-margin-bottom="1"
     inkscape:zoom="3.337544"
     inkscape:cx="19.686668"
     inkscape:cy="22.154888"
     inkscape:window-x="909"
     inkscape:window-y="385"
     inkscape:window-maximized="0"
     inkscape:current-layer="Layer_1" /><path
     style="fill:#ffdc54;fill-opacity:1;stroke:#ffdc54;stroke-width:1.99999999;stroke-linecap:round;stroke-miterlimit:4;stroke-opacity:1;stroke-dasharray:none;stroke-dashoffset:0"
     d="M 11.672802,48.269426 C 11.328366,47.371844 11.802467,40.47441 12.479799,36.528871 L 13.161378,32.558592 8.9959869,28.289279 C 4.6336776,23.818135 2.3855284,20.92298 2.6800037,20.15559 2.9961541,19.331715 8.4781828,17.91788 14.867917,17.012282 l 3.445647,-0.488341 2.298612,-4.43469 c 2.517732,-4.8574376 4.344,-7.814915 5.491412,-8.8928524 0.711322,-0.668253 0.767581,-0.6756024 1.32312,-0.1728467 1.056001,0.9556676 3.309373,4.5791549 5.544695,8.9160291 1.212697,2.352825 2.388265,4.368639 2.61237,4.479586 0.224102,0.110947 2.632151,0.552427 5.351216,0.981067 5.404501,0.851978 8.565298,1.68655 9.619004,2.539787 l 0.680273,0.550853 -1.400919,1.96321 c -0.770504,1.079766 -3.172501,3.797696 -5.337773,6.039846 l -3.936856,4.076635 0.167048,1.267699 c 0.09188,0.697234 0.451266,3.134032 0.798642,5.41511 0.381493,2.505115 0.597472,5.174614 0.545425,6.741484 l -0.08617,2.594073 -1.237613,-0.05318 C 39.271091,48.472381 34.868042,46.661465 30.247386,44.2178 l -3.346875,-1.77002 -5.130214,2.523047 c -7.052955,3.468652 -9.700368,4.333495 -10.097496,3.298596 l 0,0 z M 29.309908,37.627124 c 3.679103,-0.753641 7.20673,-4.872124 5.572726,-6.506128 -0.511795,-0.511796 -15.547917,-0.511796 -16.059713,0 -0.972448,0.972448 0.281618,3.75904 2.330788,5.179114 2.167333,1.501963 5.02912,1.967575 8.156199,1.327014 z m -8.510336,-8.440363 c 0.567557,-0.683863 0.735595,-2.013825 0.366906,-2.90392 -0.458476,-1.106859 -1.099349,-1.352341 -1.996267,-0.764657 -1.307974,0.857017 -0.823033,4.04478 0.615316,4.04478 0.386003,0 0.842324,-0.169291 1.014045,-0.376203 z M 34.69425,29.067094 c 0.761117,-0.688801 0.732027,-2.61587 -0.05131,-3.39921 -0.329583,-0.329583 -0.734073,-0.599243 -0.898864,-0.599243 -0.164792,0 -0.569281,0.26966 -0.898865,0.599243 -0.72334,0.72334 -0.787939,2.293859 -0.132822,3.22917 0.554461,0.791604 1.230914,0.849642 1.981864,0.17004 l 0,0 z"
     id="path4216"
     inkscape:connector-curvature="0"
     transform="matrix(1.35,0,0,1.35,-4.386568,-10)" /><ellipse
     cx="40.625"
     cy="50.938"
     rx="1.875"
     ry="2.812"
     id="ellipse3043"
     sodipodi:cx="40.625"
     sodipodi:cy="50.938"
     sodipodi:rx="1.875"
     sodipodi:ry="2.812"
     style="fill:#000000"
     transform="translate(-18.181287,-23.965)" /><ellipse
     cx="59.375"
     cy="50.938"
     rx="1.875"
     ry="2.812"
     id="ellipse3045"
     sodipodi:cx="59.375"
     sodipodi:cy="50.938"
     sodipodi:rx="1.875"
     sodipodi:ry="2.812"
     style="fill:#000000"
     transform="translate(-18.181287,-23.965)" /><path
     d="m 41.193713,31.66 h -18.75 c -0.586,0 -1.137,0.274 -1.492,0.74 -0.354,0.467 -0.471,1.073 -0.313,1.637 0.078,0.285 2.049,6.998 11.18,6.998 9.133,0 11.102,-6.713 11.182,-6.998 0.156,-0.564 0.041,-1.17 -0.315,-1.637 -0.353,-0.466 -0.906,-0.74 -1.492,-0.74 z"
     id="path3047"
     inkscape:connector-curvature="0"
     style="fill:#000000" /><path
     d="m 44.579713,10.354 c -2.294,-5.057 -8.967,-19.004 -12.759,-19.004 -3.794,0 -10.466,13.945 -12.759,19.002 -5.522,0.634 -20.8590004,2.705 -22.0150002,6.26 -1.156,3.558 10.0359998,14.248 14.1300002,18.003 -1.104,5.448 -3.8750004,20.677 -0.85,22.874 0.427,0.309 0.985,0.459 1.712,0.459 4.647,0 17.161,-6.87 19.779,-8.337 2.617,1.467 15.13,8.338 19.779,8.338 0.725,0 1.285,-0.152 1.712,-0.461 3.025,-2.201 0.252,-17.426 -0.854,-22.872 4.096,-3.757 15.293,-14.451 14.136,-18.005 -1.152,-3.551 -16.489,-5.624 -22.011,-6.257 z m 6.219,23.236 c -0.243,0.224 -0.353,0.561 -0.285,0.885 1.972,9.542 3.124,20.457 1.693,21.498 -0.005,0.004 -0.146,0.103 -0.609,0.103 -3.818,0 -15.236,-6.031 -19.316,-8.355 -0.143,-0.083 -0.304,-0.123 -0.463,-0.123 -0.159,0 -0.32,0.04 -0.463,0.123 -4.08,2.324 -15.498,8.354 -19.316,8.354 -0.372,0 -0.558,-0.064 -0.609,-0.101 -1.296,-0.941 -0.522,-10.788 1.69,-21.5 0.068,-0.326 -0.042,-0.661 -0.286,-0.884 C 5.6317126,27.031 -1.7152874,18.876 -1.1692874,17.193 -0.62328738,15.512 10.115713,13.232 19.799713,12.157 c 0.332,-0.037 0.617,-0.246 0.752,-0.547 3.986,-8.879 9.465,-18.384 11.269,-18.384 1.802,0 7.28,9.505 11.268,18.386 0.136,0.302 0.421,0.511 0.752,0.547 9.685,1.075 20.422,3.354 20.968,5.035 0.496,1.521 -5.92,9.029 -14.01,16.396 z"
     id="path3049"
     inkscape:connector-curvature="0"
     style="fill:#000000" /></svg>