<?xml version="1.0" encoding="UTF-8" standalone="no"?>
<svg
   xmlns:dc="http://purl.org/dc/elements/1.1/"
   xmlns:cc="http://creativecommons.org/ns#"
   xmlns:rdf="http://www.w3.org/1999/02/22-rdf-syntax-ns#"
   xmlns:svg="http://www.w3.org/2000/svg"
   xmlns="http://www.w3.org/2000/svg"
   xmlns:sodipodi="http://sodipodi.sourceforge.net/DTD/sodipodi-0.dtd"
   xmlns:inkscape="http://www.inkscape.org/namespaces/inkscape"
   version="1.1"
   id="Layer_1"
   x="0px"
   y="0px"
   width="53.637436"
   height="51.332592"
   viewBox="5 -10 53.637436 69.298999"
   enable-background="new 0 0 100 100"
   xml:space="preserve"
   inkscape:version="0.48.4 r9939"
   sodipodi:docname="star-1-fill.svg"><metadata
     id="metadata3135"><rdf:RDF><cc:Work
         rdf:about=""><dc:format>image/svg+xml</dc:format><dc:type
           rdf:resource="http://purl.org/dc/dcmitype/StillImage" /><dc:title /></cc:Work></rdf:RDF></metadata><defs
     id="defs3133" /><sodipodi:namedview
     pagecolor="#ffffff"
     bordercolor="#666666"
     borderopacity="1"
     objecttolerance="10"
     gridtolerance="10"
     guidetolerance="10"
     inkscape:pageopacity="0"
     inkscape:pageshadow="2"
     inkscape:window-width="457"
     inkscape:window-height="383"
     id="namedview3131"
     showgrid="false"
     fit-margin-top="1"
     fit-margin-left="1"
     fit-margin-right="1"
     fit-margin-bottom="1"
     inkscape:zoom="3.337544"
     inkscape:cx="7.7279186"
     inkscape:cy="30.339514"
     inkscape:window-x="719"
     inkscape:window-y="152"
     inkscape:window-maximized="0"
     inkscape:current-layer="Layer_1" /><path
     style="fill:#8cc2c0;fill-opacity:1;stroke:#89bebc;stroke-width:1.99999999;stroke-linecap:round;stroke-miterlimit:4;stroke-opacity:1;stroke-dasharray:none;stroke-dashoffset:0"
     d="m 11.726766,48.836196 c -0.04902,-0.0286 -0.136799,-0.179416 -0.19507,-0.335158 -0.583323,-1.559073 -0.100608,-7.34748 1.167713,-14.002458 0.287774,-1.50997 0.318324,-1.731096 0.264149,-1.911918 -0.04973,-0.165997 -0.26812,-0.397572 -1.160609,-1.230705 C 10.246374,29.902904 7.6655155,27.300565 6.4669938,25.975589 3.8047736,23.032482 2.4201802,21.095894 2.4156625,20.309118 2.41457,20.118846 2.4431916,20.064169 2.6342317,19.891575 3.7674379,18.867792 9.6706056,17.47661 16.574804,16.606243 c 0.811575,-0.10231 1.541083,-0.219885 1.621129,-0.261278 0.196686,-0.101711 0.231541,-0.161996 0.796907,-1.378345 3.245101,-6.9816378 6.704241,-12.5264832 7.81462,-12.5264832 0.464446,0 1.350473,0.931424 2.443651,2.568856 1.62461,2.4334441 3.604012,6.0890832 5.420388,10.0105932 0.450006,0.971553 0.616374,1.255705 0.789424,1.348318 0.05351,0.02864 0.773546,0.137267 1.600072,0.241393 6.965499,0.87752 12.852654,2.267448 13.96305,3.296608 0.267774,0.248184 0.278564,0.345298 0.09311,0.838001 -0.631425,1.677541 -4.396399,6.00479 -8.951691,10.288568 -0.728284,0.684875 -1.368663,1.313486 -1.423065,1.396912 -0.141298,0.216685 -0.125238,0.398398 0.173178,1.959469 1.389459,7.268544 1.844097,13.568878 1.037357,14.375618 -0.264729,0.264729 -1.314136,0.133695 -2.806538,-0.350437 -2.46902,-0.800944 -6.930322,-2.896037 -11.243618,-5.280169 -0.836976,-0.462631 -0.934341,-0.503696 -1.138771,-0.480302 -0.151888,0.01738 -0.512168,0.1865 -1.123967,0.527598 -4.242752,2.365477 -9.129756,4.639025 -11.486127,5.343613 -1.089773,0.325857 -2.165746,0.463912 -2.427148,0.31142 z M 32.688935,35.670727 c 0.48069,-0.228103 0.525895,-0.918032 0.08091,-1.234889 -0.154318,-0.109884 -0.166397,-0.110108 -5.939993,-0.110108 -5.707994,0 -5.78767,0.0014 -5.958112,0.106767 -0.349448,0.215971 -0.428598,0.662058 -0.179532,1.011838 0.229544,0.322366 -0.07211,0.307145 6.131564,0.309407 5.114593,0.0019 5.703867,-0.0065 5.865162,-0.08302 z M 20.194718,29.426299 c 0.635852,-0.188828 1.07562,-1.022526 1.07562,-2.039128 0,-0.784101 -0.236688,-1.41534 -0.675534,-1.801628 -1.147572,-1.010133 -2.503596,0.701229 -2.028264,2.559759 0.170533,0.666776 0.519426,1.114702 1.002795,1.28744 0.249115,0.08902 0.30588,0.08844 0.625383,-0.0064 l 0,0 z m 14.051617,-0.05366 c 0.239021,-0.125616 0.522185,-0.468886 0.687016,-0.832842 0.499908,-1.10383 0.138032,-2.703928 -0.712802,-3.151774 -0.209578,-0.110314 -0.694705,-0.107945 -0.911197,0.0045 -0.584565,0.303484 -0.935946,1.051211 -0.937372,1.994699 -0.0016,1.032273 0.442645,1.856025 1.114122,2.066066 0.183285,0.05733 0.577256,0.01556 0.760233,-0.0806 z"
     id="path6452"
     inkscape:connector-curvature="0"
     transform="matrix(1.35,0,0,1.35,-4.3865511,-10)" /><ellipse
     cx="40.625"
     cy="50.938"
     rx="1.875"
     ry="2.812"
     id="ellipse3119"
     sodipodi:cx="40.625"
     sodipodi:cy="50.938"
     sodipodi:rx="1.875"
     sodipodi:ry="2.812"
     style="fill:#000000"
     transform="translate(-18.181396,-23.965)" /><ellipse
     cx="59.375"
     cy="50.938"
     rx="1.875"
     ry="2.812"
     id="ellipse3121"
     sodipodi:cx="59.375"
     sodipodi:cy="50.938"
     sodipodi:rx="1.875"
     sodipodi:ry="2.812"
     style="fill:#000000"
     transform="translate(-18.181396,-23.965)" /><path
     d="m 44.579604,10.354 c -2.294,-5.057 -8.967,-19.004 -12.76,-19.004 -3.793,0 -10.465,13.945 -12.758,19.002 -5.522999,0.634 -20.8599993,2.705 -22.0149997,6.261 -1.155,3.558 10.0350004,14.247 14.1300007,18.002 -1.104,5.448 -3.8750002,20.677 -0.851,22.874 0.428,0.309 0.986,0.459 1.713,0.459 4.648,0 17.159999,-6.87 19.778999,-8.337 2.616,1.467 15.13,8.338 19.779,8.338 0.725,0 1.285,-0.152 1.711,-0.461 3.026,-2.201 0.254,-17.426 -0.853,-22.872 4.096,-3.757 15.293,-14.451 14.136,-18.004 -1.153,-3.552 -16.49,-5.624 -22.011,-6.258 z m 6.219,23.236 c -0.243,0.224 -0.353,0.561 -0.285,0.885 1.972,9.542 3.123,20.457 1.692,21.498 -0.005,0.004 -0.146,0.103 -0.608,0.103 -3.818,0 -15.236,-6.032 -19.316,-8.355 -0.143,-0.082 -0.304,-0.123 -0.463,-0.123 -0.159,0 -0.32,0.041 -0.463,0.123 -4.08,2.324 -15.497999,8.354 -19.315999,8.354 -0.371,0 -0.559,-0.064 -0.61,-0.101 -1.296,-0.941 -0.521,-10.788 1.69,-21.5 0.067,-0.326 -0.042,-0.661 -0.285,-0.884 C 5.6316047,27.031 -1.7153953,18.876 -1.1693953,17.193 -0.62339526,15.512 10.114605,13.232 19.799604,12.157 c 0.331,-0.037 0.617,-0.245 0.753,-0.547 3.986,-8.879 9.465,-18.384 11.268,-18.384 1.802,0 7.281,9.505 11.27,18.386 0.135,0.302 0.42,0.511 0.753,0.547 9.683,1.075 20.421,3.354 20.967,5.035 0.494,1.52 -5.922,9.029 -14.012,16.396 z"
     id="path3123"
     inkscape:connector-curvature="0"
     style="fill:#000000" /><path
     d="m 39.318604,36.347 h -15 c -0.519,0 -0.938,0.419 -0.938,0.938 0,0.519 0.419,0.938 0.938,0.938 h 15 c 0.519,0 0.938,-0.419 0.938,-0.938 0,-0.519 -0.419,-0.938 -0.938,-0.938 z"
     id="path3125"
     inkscape:connector-curvature="0"
     style="fill:#000000" /></svg>