<?xml version="1.0" encoding="UTF-8" standalone="no"?>
<svg
   xmlns:dc="http://purl.org/dc/elements/1.1/"
   xmlns:cc="http://creativecommons.org/ns#"
   xmlns:rdf="http://www.w3.org/1999/02/22-rdf-syntax-ns#"
   xmlns:svg="http://www.w3.org/2000/svg"
   xmlns="http://www.w3.org/2000/svg"
   xmlns:sodipodi="http://sodipodi.sourceforge.net/DTD/sodipodi-0.dtd"
   xmlns:inkscape="http://www.inkscape.org/namespaces/inkscape"
   version="1.1"
   id="Your_Icon"
   x="0px"
   y="0px"
   width="56.794861"
   height="47.298363"
   viewBox="5 -10 56.794861 63.85279"
   enable-background="new 0 0 100 100"
   xml:space="preserve"
   inkscape:version="0.48.4 r9939"
   sodipodi:docname="noun_14945_cc.svg"><metadata
     id="metadata3100"><rdf:RDF><cc:Work
         rdf:about=""><dc:format>image/svg+xml</dc:format><dc:type
           rdf:resource="http://purl.org/dc/dcmitype/StillImage" /><dc:title></dc:title></cc:Work></rdf:RDF></metadata><defs
     id="defs3098" /><sodipodi:namedview
     pagecolor="#ffffff"
     bordercolor="#666666"
     borderopacity="1"
     objecttolerance="10"
     gridtolerance="10"
     guidetolerance="10"
     inkscape:pageopacity="0"
     inkscape:pageshadow="2"
     inkscape:window-width="640"
     inkscape:window-height="480"
     id="namedview3096"
     showgrid="false"
     fit-margin-top="1"
     fit-margin-right="1"
     fit-margin-bottom="1"
     fit-margin-left="1"
     inkscape:zoom="2.36"
     inkscape:cx="21.11108"
     inkscape:cy="20.787114"
     inkscape:window-x="75"
     inkscape:window-y="34"
     inkscape:window-maximized="0"
     inkscape:current-layer="Your_Icon" /><g
     id="g3088"
     transform="matrix(0.73973064,0,0,0.73973064,-3.5891007,-15.552427)"><path
       d="m 94.425,23.535 c -0.177,0 -1.425,0.004 -2.425,0.06 v -2.38 c 0,-2.882 -1.72,-5.055 -4.305,-5.055 -0.293,0 -0.475,0.029 -0.771,0.088 C 86.715,16.289 66.441,20.436 50.525,33.166 47.445,30.702 44,28.56 41,26.707 V 24.195 C 41,19.758 40.461,15.227 33.662,12.857 L 24.975,9.823 c -0.906,-0.327 -1.792,-0.492 -2.65,-0.492 -4.078,0 -6.511,3.691 -6.511,7.26 0,0.012 0.002,0.022 0.004,0.034 -1.017,-0.25 -1.603,-0.37 -1.638,-0.376 C 13.886,16.191 13.208,16.162 12.915,16.162 10.332,16.16 8,18.333 8,21.214 v 2.38 C 7,23.539 5.753,23.534 5.575,23.534 2.502,23.534 0,26.034 0,29.107 v 43.871 c 0,2.715 3,4.981 5,5.473 v 4.79 C 5,86.315 7.793,89 10.867,89 h 31.475 c 0.887,1 2.815,3 5.053,3 h 6.438 c 2.236,0 4.165,-2 5.052,-3 H 91.566 C 94.64,89 97,86.315 97,83.242 v -5.168 c 2,-0.869 3,-2.824 3,-5.095 V 29.108 c 0,-3.073 -2.501,-5.573 -5.575,-5.573 z M 91.564,85 H 60.619 C 73.805,80 87,78.757 92,78.591 v 4.65 C 92,83.942 92.266,85 91.564,85 z M 9,83.242 V 78.638 C 16,78.9 28.327,80 40.607,85 H 10.867 C 10.167,85 9,83.942 9,83.242 z M 5,29.108 c 0,-0.7 0.223,-1.27 0.924,-1.27 0.045,0 1.076,0.004 2.076,0.073 v 37.176 c 0,2.91 2.394,5.588 4.964,6.099 1.326,0.263 9.451,1.946 18.808,6.257 C 19.05,74.385 7.982,74.25 6.21,74.25 5.51,74.25 5,73.68 5,72.979 V 29.108 z m 8.061,-8.639 C 13.137,20.484 16,21.056 20,22.414 v 27.95 c 0,0.692 0.613,1.333 1.209,1.684 0.598,0.352 1.459,0.363 2.063,0.029 l 6.883,-3.759 7.417,8.824 c 0.379,0.453 0.947,0.701 1.515,0.701 0.223,0 0.428,-0.039 0.646,-0.118 C 40.507,57.444 41,56.709 41,55.886 V 31.704 c 2,1.556 5,3.301 8,5.254 V 37.25 82.185 C 34,71.062 16.488,67.373 14.418,66.963 13.971,66.874 13,66.046 13,65.086 V 21.214 c 0,-0.48 -0.047,-0.72 0.061,-0.745 z m 9.271,-7.227 c 0.404,0 0.853,0.087 1.35,0.267 l 8.647,3.042 C 36.415,17.975 37,19.97 37,24.194 v 26.309 l -4.893,-5.931 c -0.381,-0.457 -0.898,-0.701 -1.463,-0.701 -0.32,0 -0.832,0.08 -1.129,0.243 L 24,47.052 V 21.303 c 0,-1.699 0.205,-5.676 -3.932,-5.676 -0.148,0 -0.196,0.018 -0.339,0.05 0.256,-1.169 1.116,-2.435 2.603,-2.435 z M 88,65.086 c 0,0.996 -0.475,1.788 -0.92,1.877 C 85.012,67.373 68,71.064 53,82.186 V 37.25 36.958 C 68,24.54 87.719,20.508 87.967,20.461 88.029,20.494 88,20.733 88,21.214 v 43.872 z m 6.809,9.164 c -1.773,0 -12.861,0.133 -25.582,3.191 9.354,-4.311 17.074,-5.994 18.4,-6.256 C 90.198,70.676 92,67.997 92,65.086 V 27.911 c 1,-0.068 2.532,-0.072 2.577,-0.072 0.701,0 1.423,0.569 1.423,1.27 V 72.98 c 0,0.7 -0.491,1.27 -1.191,1.27 z"
       id="path3090"
       inkscape:connector-curvature="0"
       style="fill:#000000" /></g></svg>